<svg xmlns="http://www.w3.org/2000/svg" width="55.239" height="40.5" viewBox="0 0 55.239 40.5"><defs><style>.a{fill:#696666;}.b{fill:#fff;}.c{fill:#8dc21f;}</style></defs><g transform="translate(-710.878 -956.58)"><g transform="translate(710.878 956.58)"><g transform="translate(0 0)"><g transform="translate(4.212)"><path class="a" d="M757.4,981.6a1.167,1.167,0,0,1-1.167-1.167v-6.843a1.167,1.167,0,0,1,2.333,0v6.843A1.166,1.166,0,0,1,757.4,981.6Z" transform="translate(-733.991 -967.162)"/><g transform="translate(11.999 11.582)"><path class="b" d="M755.684,992.179v-6.922h-9.541v6.922h-5.473v19.663h20.486V992.179Z" transform="translate(-739.504 -984.091)"/><path class="a" d="M760.324,1012.176H739.838a1.167,1.167,0,0,1-1.167-1.167V991.346a1.167,1.167,0,0,1,1.167-1.166h4.306v-5.755a1.166,1.166,0,0,1,1.167-1.166h9.54a1.166,1.166,0,0,1,1.167,1.166v5.755h4.307a1.167,1.167,0,0,1,1.167,1.166v19.663A1.167,1.167,0,0,1,760.324,1012.176ZM741,1009.843h18.153v-17.33h-4.307a1.167,1.167,0,0,1-1.166-1.167v-5.755h-7.207v5.755a1.167,1.167,0,0,1-1.167,1.167H741Z" transform="translate(-738.671 -983.258)"/></g><g transform="translate(0 11.582)"><rect class="b" width="12.898" height="26.585" transform="translate(1.166 1.166)"/><path class="a" d="M732.163,1012.176h-12.9a1.167,1.167,0,0,1-1.167-1.167V984.424a1.166,1.166,0,0,1,1.167-1.166h12.9a1.166,1.166,0,0,1,1.167,1.166v26.585A1.167,1.167,0,0,1,732.163,1012.176Zm-11.731-2.333H731V985.591H720.432Z" transform="translate(-718.099 -983.258)"/></g><g transform="translate(31.586)"><path class="b" d="M787.151,1003.568h-12.9V970.139l12.9-4.738Z" transform="translate(-773.086 -964.234)"/><path class="a" d="M786.317,1003.9h-12.9a1.167,1.167,0,0,1-1.167-1.167V969.3a1.166,1.166,0,0,1,.764-1.095l12.9-4.738a1.167,1.167,0,0,1,1.568,1.095v38.166A1.167,1.167,0,0,1,786.317,1003.9Zm-11.731-2.333h10.565V966.239l-10.565,3.881Z" transform="translate(-772.253 -963.4)"/></g></g><path class="a" d="M764.951,1031.171H712.044a1.167,1.167,0,1,1,0-2.333h52.906a1.167,1.167,0,1,1,0,2.333Z" transform="translate(-710.878 -990.671)"/></g><rect class="c" width="5.954" height="2.721" transform="translate(8.748 16.428)"/><rect class="c" width="5.954" height="2.721" transform="translate(8.748 21.24)"/><rect class="c" width="5.954" height="2.721" transform="translate(8.748 26.052)"/><rect class="c" width="5.954" height="2.721" transform="translate(40.536 8.263)"/><rect class="c" width="5.954" height="2.723" transform="translate(40.536 13.187)"/><rect class="c" width="5.954" height="2.722" transform="translate(40.536 18.113)"/><rect class="c" width="5.954" height="2.722" transform="translate(40.536 23.038)"/><rect class="c" width="3.111" height="3.111" transform="translate(21.495 23.523)"/><rect class="c" width="3.111" height="3.111" transform="translate(25.967 23.523)"/><rect class="c" width="3.111" height="3.111" transform="translate(30.439 23.523)"/><rect class="c" width="3.111" height="3.11" transform="translate(21.495 28.675)"/><rect class="c" width="3.111" height="3.11" transform="translate(25.967 28.675)"/><rect class="c" width="3.111" height="3.11" transform="translate(30.439 28.675)"/></g></g></svg>