<svg xmlns="http://www.w3.org/2000/svg" width="16.997" height="17.568" viewBox="0 0 16.997 17.568"><defs><style>.a{fill:#3268b2;}</style></defs><g transform="translate(-356.652 -1884.363)"><path class="a" d="M364.816,1926.809a8.5,8.5,0,0,0,4.6-15.839,1.108,1.108,0,1,0-1.115,1.916h0a6.287,6.287,0,1,1-6.283-.006,1.108,1.108,0,0,0-1.109-1.92,8.494,8.494,0,0,0,3.907,15.849Z" transform="translate(0 -24.885)"/><path class="a" d="M482.761,1890.623a1.109,1.109,0,0,0,1.108-1.109v-4.043a1.108,1.108,0,0,0-2.217,0v4.043A1.108,1.108,0,0,0,482.761,1890.623Z" transform="translate(-117.611)"/></g></svg>