<svg xmlns="http://www.w3.org/2000/svg" width="72.596" height="70.166" viewBox="0 0 72.596 70.166"><defs><style>.a{fill:none;}.b{fill:#3e3a39;}.c{fill:#94c5ff;}</style></defs><path class="a" d="M721.308,897.661a1.128,1.128,0,0,1-2.256,0V855.136h-4.224v44.146l5.352,7.422,5.352-7.422V855.136h-4.224Z" transform="translate(-656.182 -839.594)"/><path class="a" d="M639.836,903.121h47.111V837.467H639.836Zm27.628-49.211h14.1a1.128,1.128,0,1,1,0,2.256h-14.1a1.128,1.128,0,1,1,0-2.256Zm0,5.728h14.1a1.128,1.128,0,0,1,0,2.256h-14.1a1.128,1.128,0,0,1,0-2.256Zm0,20.027h14.1a1.128,1.128,0,0,1,0,2.256h-14.1a1.128,1.128,0,0,1,0-2.256Zm0,5.728h14.1a1.128,1.128,0,0,1,0,2.256h-14.1a1.128,1.128,0,0,1,0-2.256Zm-14.287-36.231a8.81,8.81,0,0,1,6.741,3.131L663,849.209A1.128,1.128,0,0,1,664.6,850.8l-3.433,3.433a8.83,8.83,0,1,1-7.986-5.076Zm0,25.754a8.81,8.81,0,0,1,6.741,3.131L663,874.964a1.128,1.128,0,0,1,1.595,1.595l-3.433,3.433a8.83,8.83,0,1,1-7.986-5.076Z" transform="translate(-637.58 -835.211)"/><path class="a" d="M724.579,839.137a1.672,1.672,0,0,0-1.67-1.67h-4.521a1.672,1.672,0,0,0-1.669,1.67v4.6h7.86Z" transform="translate(-656.651 -835.211)"/><path class="b" d="M687.331,834.467H637.964a1.128,1.128,0,0,0-1.128,1.128v67.91a1.128,1.128,0,0,0,1.128,1.128h49.367a1.128,1.128,0,0,0,1.128-1.128v-67.91A1.128,1.128,0,0,0,687.331,834.467Zm-1.128,67.91H639.092V836.723H686.2Z" transform="translate(-636.836 -834.467)"/><path class="b" d="M725.915,852.136H712.956a1.128,1.128,0,0,0-1.128,1.128V898.9a1.128,1.128,0,0,0,.213.66l6.48,8.987a1.128,1.128,0,0,0,1.83,0l6.48-8.987a1.122,1.122,0,0,0,.213-.66V853.264A1.128,1.128,0,0,0,725.915,852.136Zm-1.128,46.4-5.352,7.423-5.352-7.423V854.392h4.224v42.525a1.128,1.128,0,0,0,2.256,0V854.392h4.224Z" transform="translate(-655.438 -838.85)"/><path class="b" d="M726.579,842.991H725.3v-4.6a3.93,3.93,0,0,0-3.926-3.926h-4.521a3.93,3.93,0,0,0-3.925,3.926v4.6H711.64a1.128,1.128,0,1,0,0,2.256h14.939a1.128,1.128,0,0,0,0-2.256Zm-11.4-4.6a1.671,1.671,0,0,1,1.669-1.67h4.521a1.672,1.672,0,0,1,1.67,1.67v4.6h-7.86Z" transform="translate(-655.111 -834.467)"/><path class="c" d="M654.663,870.69a8.82,8.82,0,0,0,7.986-12.6l-7.377,7.377a1.127,1.127,0,0,1-1.595,0l-4.136-4.136a1.128,1.128,0,0,1,1.595-1.595l3.338,3.338,6.929-6.928a8.833,8.833,0,1,0-6.741,14.54Z" transform="translate(-639.066 -839.069)"/><path class="b" d="M652.254,859.647a1.128,1.128,0,0,0-1.595,1.595l4.136,4.136a1.127,1.127,0,0,0,1.595,0L663.766,858l3.433-3.433a1.128,1.128,0,1,0-1.595-1.595l-3.083,3.083-6.929,6.928Z" transform="translate(-640.183 -838.976)"/><path class="b" d="M676.206,861.591h14.1a1.128,1.128,0,0,0,0-2.256h-14.1a1.128,1.128,0,0,0,0,2.256Z" transform="translate(-646.322 -840.635)"/><path class="b" d="M676.206,869.208h14.1a1.128,1.128,0,0,0,0-2.256h-14.1a1.128,1.128,0,0,0,0,2.256Z" transform="translate(-646.322 -842.525)"/><path class="c" d="M654.663,904.94a8.82,8.82,0,0,0,7.986-12.6l-7.377,7.377a1.126,1.126,0,0,1-1.595,0l-4.136-4.136a1.128,1.128,0,0,1,1.595-1.595l3.338,3.338L661.4,890.4a8.834,8.834,0,1,0-6.741,14.54Z" transform="translate(-639.066 -847.565)"/><path class="b" d="M652.254,893.9a1.128,1.128,0,0,0-1.595,1.595l4.136,4.136a1.126,1.126,0,0,0,1.595,0l7.377-7.377,3.433-3.433a1.128,1.128,0,0,0-1.595-1.595l-3.083,3.083-6.929,6.929Z" transform="translate(-640.183 -847.471)"/><path class="b" d="M676.206,895.841h14.1a1.128,1.128,0,0,0,0-2.256h-14.1a1.128,1.128,0,0,0,0,2.256Z" transform="translate(-646.322 -849.131)"/><path class="b" d="M676.206,903.458h14.1a1.128,1.128,0,0,0,0-2.256h-14.1a1.128,1.128,0,0,0,0,2.256Z" transform="translate(-646.322 -851.021)"/></svg>