<svg xmlns="http://www.w3.org/2000/svg" width="30" height="30" viewBox="0 0 30 30"><defs><style>.a{fill:#98b9e5;}</style></defs><g transform="translate(-6606 -372)"><path class="a" d="M6005.738-1515.034a15.017,15.017,0,0,0-15,15,15.017,15.017,0,0,0,15,15,15.017,15.017,0,0,0,15-15A15.017,15.017,0,0,0,6005.738-1515.034Zm0,28.745a13.762,13.762,0,0,1-13.745-13.745,13.762,13.762,0,0,1,13.745-13.746,13.761,13.761,0,0,1,13.745,13.746A13.761,13.761,0,0,1,6005.738-1486.289Z" transform="translate(615.262 1887.034)"/><path class="a" d="M6068.779-1462.75l-8.722-5.783a.681.681,0,0,0-.775.016l-7.928,5.783a.646.646,0,0,0-.268.518v10.377a.658.658,0,0,0,.666.648l6.124,0a.683.683,0,0,0,.472-.189.645.645,0,0,0,.2-.46l-.012-4.752h3.225l-.015,4.772a.643.643,0,0,0,.193.46.683.683,0,0,0,.473.19h0l6-.024a.658.658,0,0,0,.663-.648v-10.377A.642.642,0,0,0,6068.779-1462.75Zm-5.883,5.057a.684.684,0,0,0-.472-.19h-4.56a.67.67,0,0,0-.472.19.648.648,0,0,0-.194.459l.011,4.752-4.79,0v-9.406l7.28-5.311,8.037,5.329v9.39l-4.661.019.014-4.769A.639.639,0,0,0,6062.9-1457.692Z" transform="translate(560.921 1845.831)"/></g></svg>