<svg xmlns="http://www.w3.org/2000/svg" width="62.772" height="79.981" viewBox="0 0 62.772 79.981"><defs><style>.a{fill:none;}.b{fill:#fff;}.c{fill:#3e3a39;}.d{fill:#94c5ff;}</style></defs><path class="a" d="M479.224,677.247v49.277h46.2V677.247h-7.273v2.166a1.243,1.243,0,0,1-1.243,1.243H487.74a1.243,1.243,0,0,1-1.243-1.243v-2.166Zm33.25,43.617h-20.3a1.243,1.243,0,1,1,0-2.485h20.3a1.243,1.243,0,1,1,0,2.485Zm0-5.385h-20.3a1.243,1.243,0,1,1,0-2.485h20.3a1.243,1.243,0,1,1,0,2.485Zm-22.7-18.307a3,3,0,0,1,4.24,0l3.751,3.751,12.872-12.871a3,3,0,0,1,4.241,4.239l-14.991,14.991a3,3,0,0,1-4.241,0l-5.871-5.872A3,3,0,0,1,489.774,697.172Z" transform="translate(-470.94 -658.694)"/><rect class="b" width="26.687" height="8.859" transform="translate(18.043 10.618)"/><path class="a" d="M508.717,663.348a3.214,3.214,0,0,0,0-4.548,3.292,3.292,0,0,0-4.548,0,3.216,3.216,0,0,0,0,4.548,1.151,1.151,0,0,1,.1.157h4.339A1.235,1.235,0,0,1,508.717,663.348Z" transform="translate(-475.057 -655.373)"/><path class="a" d="M516.953,673.79h8.516a1.243,1.243,0,0,1,1.243,1.243v51.762a1.243,1.243,0,0,1-1.243,1.243H476.78a1.242,1.242,0,0,1-1.243-1.243V675.032a1.243,1.243,0,0,1,1.243-1.243H485.3v-2.209H472.224v63.637h57.8V671.581H516.953Z" transform="translate(-469.739 -657.722)"/><path class="c" d="M530.753,666.226H516.439v-2a1.243,1.243,0,0,0-1.243-1.243h-9.433a5.7,5.7,0,1,0-10.307,0h-9.433a1.243,1.243,0,0,0-1.243,1.243v2H470.467a1.243,1.243,0,0,0-1.243,1.243V733.59a1.243,1.243,0,0,0,1.243,1.243h60.287A1.243,1.243,0,0,0,532,733.59V667.468A1.243,1.243,0,0,0,530.753,666.226Zm-44.729,10.588H515.2a1.243,1.243,0,0,0,1.243-1.243V673.4h7.273v49.277h-46.2V673.4h7.273v2.166A1.243,1.243,0,0,0,486.024,676.814Zm12.312-13.987a3.216,3.216,0,0,1,0-4.548,3.292,3.292,0,0,1,4.548,0,3.214,3.214,0,0,1,0,4.548,1.232,1.232,0,0,0-.1.157H498.44A1.148,1.148,0,0,0,498.336,662.827Zm-11.069,2.643h26.687v8.859H487.267Zm42.244,66.878h-57.8V668.711h13.072v2.209h-8.516a1.243,1.243,0,0,0-1.243,1.243v51.762a1.242,1.242,0,0,0,1.243,1.243h48.689a1.243,1.243,0,0,0,1.243-1.243V672.162a1.243,1.243,0,0,0-1.243-1.243h-8.516v-2.209h13.072Z" transform="translate(-469.224 -654.852)"/><path class="d" d="M497.648,709.339a3,3,0,0,0,4.241,0l14.992-14.992a3,3,0,0,0-4.241-4.239l-12.872,12.871-3.751-3.751a3,3,0,1,0-4.24,4.239Z" transform="translate(-472.943 -660.75)"/><path class="c" d="M514.9,720.4H494.6a1.243,1.243,0,0,0,0,2.485h20.3a1.243,1.243,0,0,0,0-2.485Z" transform="translate(-473.365 -666.096)"/><path class="c" d="M514.9,726.9H494.6a1.243,1.243,0,1,0,0,2.485h20.3a1.243,1.243,0,1,0,0-2.485Z" transform="translate(-473.365 -667.212)"/></svg>