<svg xmlns="http://www.w3.org/2000/svg" width="83" height="68.299" viewBox="0 0 83 68.299"><defs><style>.a{fill:none;stroke:#494949;stroke-linecap:round;stroke-linejoin:round;stroke-width:3px;}</style></defs><g transform="translate(-134.74 -781.164)"><path class="a" d="M184.369,804.371a5.514,5.514,0,0,0-3.038-3.982l-6.4-2-.548-2.879a6.969,6.969,0,0,0,3.229-6.01c0-3.776-2.761-6.836-6.166-6.836s-6.164,3.061-6.164,6.836a6.969,6.969,0,0,0,3.229,6.01l-.548,2.879-6.4,2a5.51,5.51,0,0,0-3.036,3.982l-1.285,7.063h28.412Z" transform="translate(4.794 0)"/><g transform="translate(136.24 819.194)"><path class="a" d="M163.369,833.838a5.512,5.512,0,0,0-3.038-3.982l-6.4-2-.548-2.878a6.971,6.971,0,0,0,3.229-6.011c0-3.774-2.761-6.835-6.166-6.835s-6.164,3.061-6.164,6.835a6.971,6.971,0,0,0,3.229,6.011l-.548,2.878-6.4,2a5.507,5.507,0,0,0-3.036,3.982L136.24,840.9h28.412Z" transform="translate(-136.24 -812.131)"/><path class="a" d="M205.369,833.838a5.512,5.512,0,0,0-3.038-3.982l-6.4-2-.548-2.878a6.971,6.971,0,0,0,3.229-6.011c0-3.774-2.761-6.835-6.166-6.835s-6.164,3.061-6.164,6.835a6.971,6.971,0,0,0,3.229,6.011l-.548,2.878-6.4,2a5.507,5.507,0,0,0-3.036,3.982L178.24,840.9h28.412Z" transform="translate(-126.652 -812.131)"/></g><g transform="translate(169.289 818.452)"><path class="a" d="M177.4,825.915l-7.241-6.951-6.661,6.951" transform="translate(-163.502 -810.999)"/><line class="a" y1="7.965" transform="translate(6.661)"/></g></g></svg>