<svg xmlns="http://www.w3.org/2000/svg" width="36.833" height="40.474" viewBox="0 0 36.833 40.474"><defs><style>.a{fill:#efefef;}.b{fill:none;}.c{fill:#999;}.d{fill:#85a4cf;}.e{fill:#fff;}</style></defs><g transform="translate(-3648 1007)"><path class="a" d="M710.017,987.073a17.676,17.676,0,0,0-11.365-16.445,17.139,17.139,0,0,0-6.209-1.128,17.573,17.573,0,1,0,17.574,17.573Z" transform="translate(2974.096 -1972.199)"/><g transform="translate(3648 -1007)"><rect class="b" width="5.628" height="0.877" transform="translate(13.156 1.762)"/><path class="b" d="M335.112,981.588h-8.621v15.834h9.851v-1.14a4.575,4.575,0,0,1,0-8.979v-5.715Z" transform="translate(-315.447 -977.187)"/><rect class="b" width="5.628" height="0.877" transform="translate(13.156 21.998)"/><path class="b" d="M338.186,1005a7.831,7.831,0,0,1-.734,15.627H320.277v1.757h17.175a9.588,9.588,0,0,0,.817-19.141,4.591,4.591,0,0,1,.054.665A4.545,4.545,0,0,1,338.186,1005Z" transform="translate(-311.97 -989.301)"/><path class="b" d="M307.626,1057.08a1.937,1.937,0,0,0-1.722,1.053h27.375a1.938,1.938,0,0,0-1.722-1.053Z" transform="translate(-303.929 -1019.421)"/><rect class="b" width="3.341" height="1.053" transform="translate(13.992 34.843)"/><path class="c" d="M326.9,1021.864a11.35,11.35,0,0,0,.147-22.7,4.549,4.549,0,0,1,.671,1.8,9.588,9.588,0,0,1-.817,19.141H309.728v-1.757H326.9a7.831,7.831,0,0,0,.734-15.627,4.556,4.556,0,0,1-.84,1.726h.106a6.07,6.07,0,0,1,0,12.139H308.847a.881.881,0,0,0-.881.881v3.519a.881.881,0,0,0,.881.881h4.8v1.053h-8.533a3.7,3.7,0,0,0-3.7,3.7.881.881,0,0,0,.881.881h29.562a.881.881,0,0,0,.881-.881,3.7,3.7,0,0,0-3.7-3.7h-8.533v-1.053Zm3.867,3.868H303.4a1.937,1.937,0,0,1,1.722-1.053h23.931A1.938,1.938,0,0,1,330.771,1025.733Zm-12.017-2.816h-3.341v-1.053h3.341Z" transform="translate(-301.421 -987.021)"/><path class="c" d="M334.1,990.693v1.14h-9.851V976H334.1v5.715a4.516,4.516,0,0,1,1.762,0v-6.6a.881.881,0,0,0-.881-.881h-1.23v-1.758a.881.881,0,0,0-.881-.881h-7.391a.881.881,0,0,0-.881.881v1.758h-1.23a.881.881,0,0,0-.881.881v17.6a.881.881,0,0,0,.881.881h1.23v1.758a.881.881,0,0,0,.881.881h7.391a.881.881,0,0,0,.881-.881v-1.758h1.23a.881.881,0,0,0,.881-.881v-2.021a4.5,4.5,0,0,1-1.762,0Zm-7.74-17.333h5.628v.877h-5.628Zm5.628,21.113h-5.628v-.877h5.628Z" transform="translate(-313.209 -971.597)"/><path class="d" d="M349.89,1003.031a.758.758,0,1,0,.758.758A.759.759,0,0,0,349.89,1003.031Z" transform="translate(-328.113 -989.183)"/><path class="d" d="M349.618,998.94a4.628,4.628,0,1,0-.137,1.091A4.587,4.587,0,0,0,349.618,998.94Zm-2.056,0a2.52,2.52,0,1,1-2.52-2.52A2.523,2.523,0,0,1,347.562,998.94Z" transform="translate(-323.265 -984.334)"/><path class="e" d="M347.652,999.031a2.521,2.521,0,1,0,2.52,2.52A2.524,2.524,0,0,0,347.652,999.031Zm0,3.279a.758.758,0,1,1,.758-.759A.759.759,0,0,1,347.652,1002.31Z" transform="translate(-325.876 -986.945)"/></g></g></svg>