<svg xmlns="http://www.w3.org/2000/svg" width="57.623" height="70.166" viewBox="0 0 57.623 70.166"><defs><style>.a{fill:none;}.b{fill:#3e3a39;}.c{fill:#94c5ff;}</style></defs><g transform="translate(8195.596 -3225.815)"><g transform="translate(24)"><path class="a" d="M639.836,903.121h47.111V837.467H639.836Zm27.628-49.211h14.1a1.128,1.128,0,1,1,0,2.256h-14.1a1.128,1.128,0,1,1,0-2.256Zm0,5.728h14.1a1.128,1.128,0,0,1,0,2.256h-14.1a1.128,1.128,0,0,1,0-2.256Zm0,20.027h14.1a1.128,1.128,0,0,1,0,2.256h-14.1a1.128,1.128,0,0,1,0-2.256Zm0,5.728h14.1a1.128,1.128,0,0,1,0,2.256h-14.1a1.128,1.128,0,0,1,0-2.256Zm-14.287-36.231a8.81,8.81,0,0,1,6.741,3.131L663,849.209A1.128,1.128,0,0,1,664.6,850.8l-3.433,3.433a8.83,8.83,0,1,1-7.986-5.076Zm0,25.754a8.81,8.81,0,0,1,6.741,3.131L663,874.964a1.128,1.128,0,0,1,1.595,1.595l-3.433,3.433a8.83,8.83,0,1,1-7.986-5.076Z" transform="translate(-8857.176 2390.604)"/><path class="b" d="M693.331,834.467H637.964a1.128,1.128,0,0,0-1.128,1.128v67.91a1.128,1.128,0,0,0,1.128,1.128h55.367a1.128,1.128,0,0,0,1.128-1.128v-67.91A1.128,1.128,0,0,0,693.331,834.467Zm-1.128,67.91H639.092V836.723H692.2Z" transform="translate(-8856.432 2391.348)"/><path class="b" d="M676.206,895.841h14.1a1.128,1.128,0,0,0,0-2.256h-14.1a1.128,1.128,0,0,0,0,2.256Z" transform="translate(-8866.918 2377.684)"/><path class="b" d="M676.206,895.841h14.1a1.128,1.128,0,0,0,0-2.256h-14.1a1.128,1.128,0,0,0,0,2.256Z" transform="translate(-8880.918 2377.684)"/><path class="b" d="M676.206,903.458h14.1a1.128,1.128,0,0,0,0-2.256h-14.1a1.128,1.128,0,0,0,0,2.256Z" transform="translate(-8866.918 2375.795)"/><path class="b" d="M676.206,903.458h14.1a1.128,1.128,0,0,0,0-2.256h-14.1a1.128,1.128,0,0,0,0,2.256Z" transform="translate(-8880.918 2375.795)"/><g transform="translate(-8200.944 3240.318)"><path class="c" d="M730.181,811.4a4.642,4.642,0,1,0-4.642,4.642A4.641,4.641,0,0,0,730.181,811.4Z" transform="translate(-714.967 -806.763)"/><path class="c" d="M721.283,825.363a10.4,10.4,0,0,0-10.572,10.229h21.144A10.4,10.4,0,0,0,721.283,825.363Z" transform="translate(-710.711 -814.534)"/></g></g></g></svg>