<svg xmlns="http://www.w3.org/2000/svg" width="20.317" height="17" viewBox="0 0 20.317 17">
  <g id="그룹_964" data-name="그룹 964" transform="translate(-748.788 -826.82)">
    <path id="패스_1017" data-name="패스 1017" d="M760.081,834.694a4.591,4.591,0,1,0-6.577,0,5.5,5.5,0,0,0-4.715,5.469v2.928a.726.726,0,0,0,.722.729h14.565a.726.726,0,0,0,.721-.729v-2.928A5.5,5.5,0,0,0,760.081,834.694Zm-3.289-.051a3.182,3.182,0,1,1,3.148-3.182A3.169,3.169,0,0,1,756.792,834.642ZM754.25,836.1h5.083a4.045,4.045,0,0,1,4.019,4.062v2.2H750.231v-2.2A4.045,4.045,0,0,1,754.25,836.1Z" transform="translate(0 0)" fill="#3268b2"/>
    <path id="패스_1018" data-name="패스 1018" d="M820.419,845.956h-2.041v-2.041a.759.759,0,0,0-1.519,0v2.041h-2.041a.759.759,0,1,0,0,1.519h2.041v2.041a.759.759,0,1,0,1.519,0v-2.041h2.041a.759.759,0,0,0,0-1.519Z" transform="translate(-52.073 -13.056)" fill="#3268b2"/>
  </g>
</svg>
