<svg xmlns="http://www.w3.org/2000/svg" width="78.092" height="79.312" viewBox="0 0 78.092 79.312"><defs><style>.a{fill:none;}.b{fill:#3e3a39;}.c{fill:#94c5ff;}</style></defs><path class="a" d="M130.873,867.836a2.3,2.3,0,1,0-2.3,2.3A2.3,2.3,0,0,0,130.873,867.836Z" transform="translate(-107.328 -838.262)"/><path class="a" d="M148.015,870.133a2.3,2.3,0,1,0-2.3-2.3A2.3,2.3,0,0,0,148.015,870.133Z" transform="translate(-110.546 -838.262)"/><path class="a" d="M167.454,870.133a2.3,2.3,0,1,0-2.3-2.3A2.3,2.3,0,0,0,167.454,870.133Z" transform="translate(-113.763 -838.262)"/><path class="a" d="M132.188,889.134a1.269,1.269,0,0,1,1.041-.275,45.058,45.058,0,0,0,8.307.773c19.28,0,34.966-12.062,34.966-26.89s-15.686-26.89-34.966-26.89-34.966,12.063-34.966,26.89c0,8.933,5.766,17.267,15.426,22.291a1.254,1.254,0,0,1,.671,1.191l-.739,11.593Zm25.569-31.011a4.8,4.8,0,1,1-4.8,4.8A4.8,4.8,0,0,1,157.756,858.123Zm-16.221,0a4.8,4.8,0,1,1-4.8,4.8A4.8,4.8,0,0,1,141.536,858.123Zm-21.021,4.8a4.8,4.8,0,1,1,4.8,4.8A4.8,4.8,0,0,1,120.514,862.923Z" transform="translate(-104.066 -833.348)"/><path class="b" d="M132.88,867.34a4.8,4.8,0,1,0-4.8,4.8A4.805,4.805,0,0,0,132.88,867.34Zm-7.1,0a2.3,2.3,0,1,1,2.3,2.3A2.3,2.3,0,0,1,125.783,867.34Z" transform="translate(-106.832 -837.766)"/><path class="b" d="M147.519,872.14a4.8,4.8,0,1,0-4.8-4.8A4.805,4.805,0,0,0,147.519,872.14Zm0-7.1a2.3,2.3,0,1,1-2.3,2.3A2.3,2.3,0,0,1,147.519,865.043Z" transform="translate(-110.049 -837.766)"/><path class="b" d="M166.957,872.14a4.8,4.8,0,1,0-4.8-4.8A4.805,4.805,0,0,0,166.957,872.14Zm0-7.1a2.3,2.3,0,1,1-2.3,2.3A2.3,2.3,0,0,1,166.957,865.043Z" transform="translate(-113.266 -837.766)"/><path class="c" d="M186.817,890.479a18.38,18.38,0,0,0-4.784-12.126c-4.689,12.036-18.979,20.817-35.838,20.817a47.582,47.582,0,0,1-8.181-.708l-3.29,2.784c4.811,6.515,13.837,10.909,24.2,10.909a35.631,35.631,0,0,0,6.577-.611l9.632,8.151-.713-11.191C181.893,904.615,186.817,897.994,186.817,890.479Z" transform="translate(-108.726 -840.383)"/><path class="b" d="M141.039,891.639c16.859,0,31.149-8.781,35.838-20.817a23.519,23.519,0,0,0,1.631-8.576c0-16.208-16.809-29.394-37.469-29.394s-37.47,13.186-37.47,29.394c0,9.656,5.983,18.624,16.051,24.127l-.876,13.724a1.252,1.252,0,0,0,2.058,1.036l8.765-7.418,3.29-2.784A47.588,47.588,0,0,0,141.039,891.639Zm-19.54-7.1c-9.66-5.024-15.426-13.358-15.426-22.291,0-14.827,15.686-26.89,34.966-26.89S176,847.419,176,862.246s-15.686,26.89-34.966,26.89a45.058,45.058,0,0,1-8.307-.773,1.269,1.269,0,0,0-1.041.275L121.43,897.32l.739-11.593A1.254,1.254,0,0,0,121.5,884.536Z" transform="translate(-103.569 -832.852)"/></svg>