<svg xmlns="http://www.w3.org/2000/svg" width="62" height="62.001" viewBox="0 0 62 62.001"><defs><style>.a{fill:#699b00;}.b{fill:#1c7cc2;}</style></defs><g transform="translate(-121.841 -337.817)"><path class="a" d="M152.841,399.818a31,31,0,1,1,31-31A31.035,31.035,0,0,1,152.841,399.818Zm0-59.083a28.082,28.082,0,1,0,28.082,28.082A28.114,28.114,0,0,0,152.841,340.735Z" transform="translate(0 0)"/><path class="b" d="M151.052,385.429h0a1.4,1.4,0,0,1-1.012-.438l-10.982-11.477a1.543,1.543,0,0,1,0-2.113,1.386,1.386,0,0,1,2.022,0l9.971,10.42,18.458-19.29a1.386,1.386,0,0,1,2.022,0,1.543,1.543,0,0,1,0,2.113l-19.47,20.346A1.4,1.4,0,0,1,151.052,385.429Z" transform="translate(-2.454 -4.321)"/></g></svg>