<svg xmlns="http://www.w3.org/2000/svg" width="85.615" height="75.51" viewBox="0 0 85.615 75.51"><defs><style>.a{fill:none;}.b{fill:#3e3a39;}.c{fill:#94c5ff;}</style></defs><path class="a" d="M116.778,705.127a21.812,21.812,0,1,0,43.624,0H138.59V683.315A21.837,21.837,0,0,0,116.778,705.127Z" transform="translate(-104.416 -663.79)"/><path class="a" d="M138.654,732.384a24.371,24.371,0,0,1-16.329-6.263l-4.982,4.982a31.494,31.494,0,0,0,52.824-23.191h-7.04A24.5,24.5,0,0,1,138.654,732.384Z" transform="translate(-104.48 -666.575)"/><path class="a" d="M105.838,703.888a31.389,31.389,0,0,0,8.322,21.31l4.982-4.982a24.456,24.456,0,0,1,18.209-40.8v-7.04A31.548,31.548,0,0,0,105.838,703.888Z" transform="translate(-103.178 -662.552)"/><path class="b" d="M137.012,735.063A31.389,31.389,0,0,1,115.7,726.74l4.982-4.982a24.457,24.457,0,0,0,40.8-18.209h-2.66a21.812,21.812,0,1,1-21.812-21.812v-2.66a24.456,24.456,0,0,0-18.209,40.8l-4.982,4.982a31.493,31.493,0,0,1,23.191-52.822v-2.66a34.173,34.173,0,1,0,34.174,34.173h-2.66A31.549,31.549,0,0,1,137.012,735.063Z" transform="translate(-102.838 -662.212)"/><path class="b" d="M156.53,674.683a1.33,1.33,0,0,0,1.881,1.881l7.926-7.925,3.316-3.316h23.5a1.33,1.33,0,0,0,0-2.66H169.1a1.328,1.328,0,0,0-.941.39l-4.127,4.127Z" transform="translate(-108.872 -661.452)"/><path class="b" d="M196.227,668.923H184.6a1.33,1.33,0,1,0,0,2.66h11.631a1.33,1.33,0,0,0,0-2.66Z" transform="translate(-111.943 -662.161)"/><path class="b" d="M197.037,675.778H191.75a1.33,1.33,0,1,0,0,2.66h5.287a1.33,1.33,0,1,0,0-2.66Z" transform="translate(-112.753 -662.937)"/><path class="c" d="M164.666,668.485l-7.926,7.925a1.33,1.33,0,1,1-1.881-1.881l7.5-7.5a41.13,41.13,0,0,0-20.989-5.728v41.336h41.337A41.288,41.288,0,0,0,164.666,668.485Z" transform="translate(-107.2 -661.298)"/></svg>