<?xml version="1.0" encoding="utf-8"?>
<!-- Generator: Adobe Illustrator 25.0.1, SVG Export Plug-In . SVG Version: 6.00 Build 0)  -->
<svg version="1.1" id="레이어_1" xmlns="http://www.w3.org/2000/svg" xmlns:xlink="http://www.w3.org/1999/xlink" x="0px"
	 y="0px" viewBox="0 0 16.5 19" style="enable-background:new 0 0 16.5 19;" xml:space="preserve">
<style type="text/css">
	.st0{fill:#FFFFFF;stroke:#333333;stroke-width:1.5;stroke-linecap:round;stroke-linejoin:round;}
</style>
<g transform="translate(-616.702 -1104.946)">
	<path class="st0" d="M632.2,1119.7c-0.4-3.1-4.3-5.1-4.9-5.3s-0.4-2.6-0.4-2.6l-1.9-1.6l-1.9,1.6c0,0,0.3,2.3-0.4,2.6
		s-4.5,2.2-4.9,5.3s-0.3,3.5-0.3,3.5h15C632.5,1123.2,632.6,1122.8,632.2,1119.7z"/>
	<path class="st0" d="M629.1,1110.5c0.1,2.3-1.4,4.3-3.6,5c-0.3,0.1-0.7,0.1-1,0c-2.2-0.7-3.6-2.7-3.6-5c0-2.6,1.8-4.8,4.1-4.8
		S629.1,1107.8,629.1,1110.5z"/>
</g>
</svg>
