<svg xmlns="http://www.w3.org/2000/svg" width="59.136" height="71.651" viewBox="0 0 59.136 71.651"><defs><style>.a{fill:#fff;}.b{fill:#3e3a39;}.c{fill:#94c5ff;}.d{fill:#8dc21f;}</style></defs><g transform="translate(-168.364 -425.616)"><g transform="translate(-334.446 -140.512)"><g transform="translate(502.81 566.128)"><g transform="translate(0 7.963)"><rect class="a" width="56.504" height="61.055" transform="translate(1.316 1.316)"/><path class="b" d="M560.63,641.917h-56.5a1.316,1.316,0,0,1-1.316-1.316V579.545a1.316,1.316,0,0,1,1.316-1.316h56.5a1.317,1.317,0,0,1,1.316,1.316V640.6A1.317,1.317,0,0,1,560.63,641.917Zm-55.188-2.632h53.871V580.861H505.442Z" transform="translate(-502.81 -578.229)"/></g><g transform="translate(0 3.982)"><rect class="a" width="56.504" height="61.055" transform="translate(1.316 1.316)"/><path class="b" d="M560.63,635.866h-56.5a1.316,1.316,0,0,1-1.316-1.316V573.5a1.316,1.316,0,0,1,1.316-1.316h56.5a1.316,1.316,0,0,1,1.316,1.316V634.55A1.316,1.316,0,0,1,560.63,635.866Zm-55.188-2.632h53.871V574.811H505.442Z" transform="translate(-502.81 -572.179)"/></g><path class="a" d="M561.313,568.128h-56.5v61.055h40.956l15.548-15.549Z" transform="translate(-503.494 -566.812)"/><path class="b" d="M545.082,629.815H504.126a1.316,1.316,0,0,1-1.316-1.316V567.444a1.316,1.316,0,0,1,1.316-1.316h56.5a1.316,1.316,0,0,1,1.316,1.316V612.95a1.317,1.317,0,0,1-.386.93L546.012,629.43A1.316,1.316,0,0,1,545.082,629.815Zm-39.64-2.632h39.095l14.777-14.777V568.76H505.442Z" transform="translate(-502.81 -566.128)"/><g transform="translate(40.956 45.506)"><path class="c" d="M567.047,652.829l15.548-15.549H567.047Z" transform="translate(-565.731 -635.964)"/><path class="b" d="M566.363,653.461a1.315,1.315,0,0,1-1.316-1.316V636.6a1.316,1.316,0,0,1,1.316-1.316h15.548a1.316,1.316,0,0,1,.93,2.247l-15.548,15.549A1.315,1.315,0,0,1,566.363,653.461Zm1.316-15.549v11.055l11.055-11.055Z" transform="translate(-565.047 -635.28)"/></g><path class="d" d="M504.81,579.5V568.128h56.5V579.5" transform="translate(-503.494 -566.812)"/><path class="b" d="M560.63,580.136a1.316,1.316,0,0,1-1.316-1.316V568.76H505.442v10.06a1.316,1.316,0,0,1-2.632,0V567.444a1.316,1.316,0,0,1,1.316-1.316h56.5a1.316,1.316,0,0,1,1.316,1.316V578.82A1.316,1.316,0,0,1,560.63,580.136Z" transform="translate(-502.81 -566.128)"/></g></g></g></svg>