<svg xmlns="http://www.w3.org/2000/svg" width="80.86" height="69.974" viewBox="0 0 80.86 69.974"><defs><style>.a{fill:none;stroke:#494949;stroke-linecap:round;stroke-linejoin:round;stroke-width:3px;}.b{fill:#494949;}</style></defs><g transform="translate(-134.499 -641.817)"><path class="a" d="M167.549,661.817h-15.5A16.052,16.052,0,0,0,136,677.869v1.845a16.052,16.052,0,0,0,16.052,16.052h1.415l-1.23,12.546,11.12-12.546h4.193A16.051,16.051,0,0,0,183.6,679.714v-1.845A16.052,16.052,0,0,0,167.549,661.817Z" transform="translate(0 1.98)"/><path class="a" d="M163.38,658.068a16.054,16.054,0,0,1,16-14.751h15.5a16.053,16.053,0,0,1,16.052,16.052v1.845a16.052,16.052,0,0,1-16.052,16.052l1.168,11.07-9.41-11.07H185.1" transform="translate(2.93 0)"/><g transform="translate(147.346 677.728)"><circle class="b" cx="2.352" cy="2.352" r="2.352"/><circle class="b" cx="2.352" cy="2.352" r="2.352" transform="translate(10.24)"/><circle class="b" cx="2.352" cy="2.352" r="2.352" transform="translate(20.48)"/></g></g></svg>