<svg xmlns="http://www.w3.org/2000/svg" width="73.25" height="77.711" viewBox="0 0 73.25 77.711"><defs><style>.a{fill:none;stroke:#494949;stroke-linecap:round;stroke-linejoin:round;stroke-width:3px;}</style></defs><g transform="translate(-721.921 -905.229)"><rect class="a" width="34.307" height="25.454" transform="translate(741.392 906.729)"/><path class="a" d="M775.7,932.183H741.392l-5.2,9.96H780.9Z"/><ellipse class="a" cx="8.875" cy="2.375" rx="8.875" ry="2.375" transform="translate(723.421 964.502)"/><path class="a" d="M741.171,966.877v5.75c0,1.312-3.974,2.375-8.875,2.375s-8.875-1.063-8.875-2.375v-5.75"/><path class="a" d="M741.171,973.315v5.75c0,1.311-3.974,2.375-8.875,2.375s-8.875-1.064-8.875-2.375v-5.75"/><ellipse class="a" cx="8.875" cy="2.375" rx="8.875" ry="2.375" transform="translate(749.671 964.502)"/><path class="a" d="M767.421,966.877v5.75c0,1.312-3.974,2.375-8.875,2.375s-8.875-1.063-8.875-2.375v-5.75"/><path class="a" d="M767.421,973.315v5.75c0,1.311-3.974,2.375-8.875,2.375s-8.875-1.064-8.875-2.375v-5.75"/><ellipse class="a" cx="8.875" cy="2.375" rx="8.875" ry="2.375" transform="translate(775.921 964.502)"/><path class="a" d="M793.671,966.877v5.75c0,1.312-3.974,2.375-8.875,2.375s-8.875-1.063-8.875-2.375v-5.75"/><path class="a" d="M793.671,973.315v5.75c0,1.311-3.974,2.375-8.875,2.375s-8.875-1.064-8.875-2.375v-5.75"/><path class="a" d="M785.179,959.218v-7.035H731.913v7.035"/><line class="a" y1="13.035" transform="translate(758.546 946.183)"/></g></svg>