<svg xmlns="http://www.w3.org/2000/svg" width="41.94" height="43.667" viewBox="0 0 41.94 43.667"><defs><style>.a{fill:none;}.b{fill:#595757;}.c{fill:#8dc21f;}</style></defs><g transform="translate(-299.105 -971.597)"><path class="a" d="M342.6,1038.017h-8.792a.94.94,0,0,1-.149-.015v3.3h9.089V1038A.952.952,0,0,1,342.6,1038.017Z" transform="translate(-18.134 -34.843)"/><path class="a" d="M333.813,1003.371H342.6a.967.967,0,0,1,.149.015V975.6h-9.089v27.789A.954.954,0,0,1,333.813,1003.371Zm4.4-23.387a2.355,2.355,0,1,1-2.356,2.355A2.355,2.355,0,0,1,338.209,979.984ZM336.8,999.76h2.827a.951.951,0,1,1,0,1.9H336.8a.951.951,0,1,1,0-1.9Z" transform="translate(-18.134 -2.099)"/><path class="a" d="M312.046,1052.553h-8.792a.966.966,0,0,1-.149-.015v3.3h9.09v-3.3A.961.961,0,0,1,312.046,1052.553Z" transform="translate(-2.099 -42.471)"/><path class="a" d="M303.254,1017.907h8.792a.977.977,0,0,1,.149.015V990.133h-9.09v27.789A.981.981,0,0,1,303.254,1017.907Zm4.4-23.388a2.355,2.355,0,1,1-2.355,2.355A2.355,2.355,0,0,1,307.65,994.519Zm-1.413,19.777h2.826a.951.951,0,1,1,0,1.9h-2.826a.951.951,0,1,1,0-1.9Z" transform="translate(-2.099 -9.726)"/><path class="a" d="M373.162,1052.552H364.37a.952.952,0,0,1-.149-.015v3.3h9.09v-3.3A.9.9,0,0,1,373.162,1052.552Z" transform="translate(-34.167 -42.47)"/><path class="a" d="M364.37,1017.907h8.792a.91.91,0,0,1,.149.016v-27.79h-9.09v27.789A.983.983,0,0,1,364.37,1017.907Zm4.4-23.388a2.355,2.355,0,1,1-2.355,2.355A2.355,2.355,0,0,1,368.766,994.519Zm-1.413,19.777h2.826a.951.951,0,1,1,0,1.9h-2.826a.951.951,0,0,1,0-1.9Z" transform="translate(-34.167 -9.726)"/><path class="b" d="M311.047,986.133H300.056a.951.951,0,0,0-.951.951v34.857a.951.951,0,0,0,.951.951h10.991a.951.951,0,0,0,.951-.951V987.084A.95.95,0,0,0,311.047,986.133Zm-.951,1.9v27.789a.948.948,0,0,0-.149-.015h-8.792a.953.953,0,0,0-.149.015V988.034Zm-9.09,32.955v-3.3a.967.967,0,0,0,.149.015h8.792a.963.963,0,0,0,.149-.015v3.3Z" transform="translate(0 -7.627)"/><path class="b" d="M308.646,1042.872h2.826a.951.951,0,1,0,0-1.9h-2.826a.951.951,0,0,0,0,1.9Z" transform="translate(-4.507 -36.401)"/><path class="c" d="M310.068,1004.072a2.355,2.355,0,1,0-2.356-2.355A2.355,2.355,0,0,0,310.068,1004.072Z" transform="translate(-4.516 -14.568)"/><path class="b" d="M372.163,986.133H361.172a.951.951,0,0,0-.951.951v34.857a.951.951,0,0,0,.951.951h10.991a.951.951,0,0,0,.951-.951V987.084A.95.95,0,0,0,372.163,986.133Zm-.951,1.9v27.79a.9.9,0,0,0-.149-.016h-8.792a.951.951,0,0,0-.149.015V988.034Zm-9.09,32.955v-3.3a.966.966,0,0,0,.149.015h8.792a.91.91,0,0,0,.149-.015v3.3Z" transform="translate(-32.068 -7.627)"/><path class="b" d="M369.761,1042.872h2.826a.951.951,0,0,0,0-1.9h-2.826a.951.951,0,0,0,0,1.9Z" transform="translate(-36.575 -36.401)"/><path class="c" d="M371.183,1004.072a2.355,2.355,0,1,0-2.355-2.355A2.355,2.355,0,0,0,371.183,1004.072Z" transform="translate(-36.584 -14.568)"/><path class="b" d="M341.605,971.6H330.615a.95.95,0,0,0-.951.951V1007.4a.95.95,0,0,0,.951.951h10.991a.95.95,0,0,0,.951-.951V972.548A.95.95,0,0,0,341.605,971.6Zm-.951,1.9v27.789a.967.967,0,0,0-.149-.015h-8.792a.954.954,0,0,0-.149.015V973.5Zm-9.089,32.956v-3.3a.94.94,0,0,0,.149.015h8.792a.952.952,0,0,0,.149-.015v3.3Z" transform="translate(-16.035 0)"/><path class="b" d="M339.2,1028.336h2.827a.951.951,0,1,0,0-1.9H339.2a.951.951,0,1,0,0,1.9Z" transform="translate(-20.541 -28.774)"/><path class="c" d="M340.626,989.536a2.355,2.355,0,1,0-2.356-2.355A2.355,2.355,0,0,0,340.626,989.536Z" transform="translate(-20.55 -6.941)"/></g></svg>