<svg xmlns="http://www.w3.org/2000/svg" width="16" height="18.691" viewBox="0 0 16 18.691"><defs><style>.a{fill:#333;}</style></defs><g transform="translate(-102.642 -403.189)"><path class="a" d="M121.175,435.647h0a4.029,4.029,0,0,0,2.355-.757l2.035,2.059.99-1-2.035-2.058a4.172,4.172,0,0,0-.45-5.312,4.061,4.061,0,0,0-5.79,0,4.176,4.176,0,0,0,0,5.857A4.044,4.044,0,0,0,121.175,435.647Zm-1.9-6.069a2.672,2.672,0,0,1,3.81,0,2.747,2.747,0,0,1,0,3.854,2.661,2.661,0,0,1-1.9.8h0a2.662,2.662,0,0,1-1.9-.8,2.748,2.748,0,0,1,0-3.854Z" transform="translate(-11.03 -18.545)"/><path class="a" d="M105.764,403.189a3.126,3.126,0,0,0-3.122,3.122v12.446a3.126,3.126,0,0,0,3.122,3.122h12.878V403.189Zm11.471,3.791v13.493H105.764a1.717,1.717,0,0,1-1.715-1.715V406.311a1.717,1.717,0,0,1,1.715-1.715h11.471v.977H105.57v1.407Z"/></g></svg>