<svg xmlns="http://www.w3.org/2000/svg" width="19.9" height="21.708" viewBox="0 0 19.9 21.708"><defs><style>.a{fill:#1c7cc2;}</style></defs><g transform="translate(-404.953 -1167.709)"><path class="a" d="M421.659,1185a13.094,13.094,0,0,0,3.193,1.643l-1.469,2.77a9.2,9.2,0,0,1-1.765-.729q-.189-.092-2.654-1.723a10.769,10.769,0,0,1-4.3.835,9.521,9.521,0,0,1-7.134-2.638q-2.581-2.637-2.58-7.408t2.587-7.4a9.369,9.369,0,0,1,7.019-2.644,9.272,9.272,0,0,1,6.966,2.644q2.573,2.644,2.574,7.4a12.591,12.591,0,0,1-.714,4.426A9.169,9.169,0,0,1,421.659,1185Zm-3.207-2.213a5.832,5.832,0,0,0,1.152-2.147,9.916,9.916,0,0,0,.384-2.889,7.283,7.283,0,0,0-1.509-5.03,5.517,5.517,0,0,0-7.9.006,7.265,7.265,0,0,0-1.516,5.023,7.43,7.43,0,0,0,1.516,5.1,4.926,4.926,0,0,0,3.833,1.69,4.749,4.749,0,0,0,1.63-.278,11.607,11.607,0,0,0-2.465-1.22l1.118-2.24A13.624,13.624,0,0,1,418.453,1182.791Z" transform="translate(0)"/></g></svg>