<svg xmlns="http://www.w3.org/2000/svg" width="32.269" height="43.073" viewBox="0 0 32.269 43.073"><defs><style>.a{fill:none;}.b{fill:#999;}.c{fill:#84a4cf;}.d{fill:#85a4cf;}</style></defs><g transform="translate(-116.522 -587.019)"><circle class="a" cx="0.527" cy="0.527" r="0.527" transform="translate(125.712 610.421)"/><path class="a" d="M126.926,633.643h17.261v-4.315a.938.938,0,0,1,.938-.938h4.316V606.626H144v.845a.938.938,0,0,1-.938.938h-9.756a.938.938,0,0,1-.938-.938v-.845h-5.442Zm9.294-20.485h9.845a.938.938,0,1,1,0,1.875H136.22a.938.938,0,0,1,0-1.875Zm0,7.267h9.845a.938.938,0,1,1,0,1.875H136.22a.938.938,0,0,1,0-1.875Zm-4.454-8.732a2.4,2.4,0,1,1-2.4,2.4A2.405,2.405,0,0,1,131.766,611.693Zm0,7.267a2.4,2.4,0,1,1-2.4,2.4A2.405,2.405,0,0,1,131.766,618.96Z" transform="translate(-5.526 -10.415)"/><circle class="a" cx="0.527" cy="0.527" r="0.527" transform="translate(125.712 603.154)"/><path class="a" d="M168.77,658.075l1.026-1.026h-2.052V659.1Z" transform="translate(-27.208 -37.198)"/><path class="a" d="M150.713,592.708a1.689,1.689,0,1,0-3.332.376h3.287A1.686,1.686,0,0,0,150.713,592.708Z" transform="translate(-16.367 -2.125)"/><path class="a" d="M146.976,601.65a.938.938,0,0,1,.938.938v23.64a.929.929,0,0,1-.018.181v0a.961.961,0,0,1-.081.227c-.009.018-.019.036-.029.053a.954.954,0,0,1-.147.2l-5.253,5.253a.946.946,0,0,1-.143.118.928.928,0,0,1-.1.051c-.023.012-.043.026-.067.036a1.08,1.08,0,0,1-.108.032c-.022.006-.044.015-.067.021a1.007,1.007,0,0,1-.168.016H122.587a.938.938,0,0,1-.938-.938V602.588a.938.938,0,0,1,.938-.938h6.379v-.861h-8.444v34.742h28.519V600.789H140.6v.861Z" transform="translate(-2.125 -7.314)"/><path class="b" d="M147.854,596.789h-9.434a.919.919,0,0,1,.053.3v1.578h8.444v34.742H118.4V598.664h8.444v-1.578a.932.932,0,0,1,.053-.3H117.46a.938.938,0,0,0-.938.938v36.617a.938.938,0,0,0,.938.938h30.394a.938.938,0,0,0,.938-.938V597.727A.938.938,0,0,0,147.854,596.789Z" transform="translate(0 -5.19)"/><path class="b" d="M122.926,603.564v28.893a.938.938,0,0,0,.938.938h19.151a1,1,0,0,0,.168-.016c.023-.005.045-.015.068-.021a1.079,1.079,0,0,0,.108-.032c.023-.01.044-.024.067-.036a.941.941,0,0,0,.1-.051.954.954,0,0,0,.143-.118l5.253-5.253a.954.954,0,0,0,.147-.2c.01-.018.02-.035.029-.053a.961.961,0,0,0,.081-.227v0a.927.927,0,0,0,.018-.181v-23.64a.938.938,0,0,0-.938-.938h-6.379V604.5h5.442v21.764H143a.938.938,0,0,0-.938.938v4.315H124.8V604.5h5.442v-1.875h-6.379A.938.938,0,0,0,122.926,603.564Zm23.064,24.577-1.026,1.026-1.026,1.026v-2.052Z" transform="translate(-3.402 -8.29)"/><path class="c" d="M138.533,593.475v3.581a.938.938,0,0,0,.938.938h9.756a.938.938,0,0,0,.938-.938V591.9a.919.919,0,0,0-.053-.3.934.934,0,0,0-.885-.64h-1.334a3.694,3.694,0,0,0,.02-.376,3.564,3.564,0,0,0-7.128,0,3.694,3.694,0,0,0,.02.376h-1.334a.953.953,0,0,0-.938.938Zm4.127-2.892a1.689,1.689,0,1,1,3.332.376h-3.287A1.689,1.689,0,0,1,142.66,590.583Z" transform="translate(-11.692 0)"/><path class="d" d="M145.688,622.435h9.845a.938.938,0,1,0,0-1.875h-9.845a.938.938,0,1,0,0,1.875Z" transform="translate(-14.994 -17.816)"/><path class="d" d="M134.528,622.24a2.4,2.4,0,1,0-2.4-2.4A2.405,2.405,0,0,0,134.528,622.24Zm0-2.93a.527.527,0,1,1-.527.528A.528.528,0,0,1,134.528,619.31Z" transform="translate(-8.288 -16.156)"/><path class="d" d="M145.688,637.935h9.845a.938.938,0,1,0,0-1.875h-9.845a.938.938,0,1,0,0,1.875Z" transform="translate(-14.994 -26.049)"/><path class="d" d="M134.528,637.74a2.4,2.4,0,1,0-2.4-2.4A2.405,2.405,0,0,0,134.528,637.74Zm0-2.93a.527.527,0,1,1-.527.527A.528.528,0,0,1,134.528,634.81Z" transform="translate(-8.288 -24.39)"/></g></svg>