<svg xmlns="http://www.w3.org/2000/svg" width="71.376" height="71.376" viewBox="0 0 71.376 71.376"><defs><style>.a{fill:none;}.b{fill:#3e3a39;}.c{fill:#94c5ff;}</style></defs><path class="a" d="M462.837,1052.2l6.363,4.277v-10.005Z" transform="translate(-459.88 -1020.138)"/><path class="a" d="M549.138,1052.2l-6.363-5.728v10.005Z" transform="translate(-480.719 -1020.138)"/><path class="a" d="M493.685,1023.3h19.849l-9.924-8.934Z" transform="translate(-467.922 -1011.769)"/><path class="a" d="M511.146,1069.019l11.679,16.3a1.109,1.109,0,0,1-1.8,1.292L509.3,1070.258l-13.378,8.992a1.11,1.11,0,0,1-1.238,0l-13.377-8.992-11.717,16.355a1.109,1.109,0,1,1-1.8-1.292l11.678-16.3-17.631-11.851v34.916h66.94v-34.916Z" transform="translate(-459.62 -1022.925)"/><path class="b" d="M502.441,1013.453l9.925,8.934h3.316l-12.5-11.251a1.111,1.111,0,0,0-1.485,0l-12.5,11.251h3.315Z" transform="translate(-466.753 -1010.851)"/><path class="c" d="M471.443,1051.262l26.369,17.723,26.369-17.723v-24.808H471.443v24.808Zm40.394,1.93h-28.05a1.109,1.109,0,1,1,0-2.218h28.05a1.109,1.109,0,1,1,0,2.218Zm0-7.393h-28.05a1.109,1.109,0,0,1,0-2.218h28.05a1.109,1.109,0,0,1,0,2.218Zm0-7.393h-28.05a1.109,1.109,0,1,1,0-2.218h28.05a1.109,1.109,0,1,1,0,2.218Z" transform="translate(-462.124 -1014.919)"/><path class="b" d="M530.026,1050.629a1.108,1.108,0,0,0-.467-.39l-8.664-7.8v2.985l6.363,5.728-6.363,4.277-26.369,17.723-26.369-17.723-6.363-4.277,6.363-5.728v-2.985l-8.662,7.8a1.094,1.094,0,0,0-.654,1.051c0,.013,0,.024,0,.036v38.03a1.109,1.109,0,0,0,1.109,1.109h69.158a1.109,1.109,0,0,0,1.109-1.109v-38.03c0-.012,0-.023,0-.036A1.1,1.1,0,0,0,530.026,1050.629Zm-68.97,37.616v-34.916l17.631,11.851-11.678,16.3a1.109,1.109,0,0,0,1.8,1.292l11.717-16.355,13.377,8.991a1.11,1.11,0,0,0,1.238,0l13.378-8.991,11.717,16.355a1.109,1.109,0,0,0,1.8-1.292l-11.679-16.3L528,1053.329v34.916Z" transform="translate(-458.838 -1019.086)"/><path class="b" d="M515.8,1039.621H487.748a1.109,1.109,0,1,0,0,2.218H515.8a1.109,1.109,0,1,0,0-2.218Z" transform="translate(-466.085 -1018.351)"/><path class="b" d="M515.8,1049.621H487.748a1.109,1.109,0,0,0,0,2.218H515.8a1.109,1.109,0,0,0,0-2.218Z" transform="translate(-466.085 -1020.958)"/><path class="b" d="M515.8,1059.621H487.748a1.109,1.109,0,0,0,0,2.218H515.8a1.109,1.109,0,0,0,0-2.218Z" transform="translate(-466.085 -1023.565)"/></svg>