<svg xmlns="http://www.w3.org/2000/svg" width="340" height="340" viewBox="0 0 340 340"><defs><style>.a{fill:#eee;}.b{fill:none;}.c{fill:#595757;}.d{fill:#699b00;}.e{fill:#3268b2;}</style></defs><g transform="translate(-514 -732)"><circle class="a" cx="170" cy="170" r="170" transform="translate(514 732)"/><g transform="translate(597.105 811.995)"><path class="b" d="M253.2,522.11a30.582,30.582,0,0,0-59.174-10.876,4.929,4.929,0,0,1-.789,2.3A30.6,30.6,0,1,0,253.2,522.11ZM217.619,503.2a4.98,4.98,0,1,1,9.959,0v19.791a4.98,4.98,0,0,1-9.959,0Zm4.98,40.619a5.471,5.471,0,1,1,5.472-5.47A5.471,5.471,0,0,1,222.6,543.821Z" transform="translate(-73.54 -481.545)"/><path class="b" d="M136.851,522.228v77.519a18.413,18.413,0,0,0,18.392,18.394H200.56a4.98,4.98,0,0,1,4.315,2.489l7.634,13.225,7.632-13.225a4.98,4.98,0,0,1,4.313-2.489h45.319a18.415,18.415,0,0,0,18.392-18.394V548.856a40.355,40.355,0,0,1-52.231-45.022H155.243A18.413,18.413,0,0,0,136.851,522.228Z" transform="translate(-126.892 -469.615)"/><path class="c" d="M192.628,503.834a4.929,4.929,0,0,0,.789-2.3C193.128,502.287,192.858,503.051,192.628,503.834Z" transform="translate(-72.928 -471.843)"/><path class="d" d="M293.062,604.643a18.415,18.415,0,0,1-18.392,18.394H229.351a4.98,4.98,0,0,0-4.313,2.489l-7.632,13.225-7.634-13.225a4.981,4.981,0,0,0-4.315-2.489H160.14a18.413,18.413,0,0,1-18.392-18.394V527.124A18.413,18.413,0,0,1,160.14,508.73h80.69a40.2,40.2,0,0,1,2.9-9.957H160.14a28.383,28.383,0,0,0-28.351,28.351v77.519A28.385,28.385,0,0,0,160.14,633h42.443l10.51,18.207a4.979,4.979,0,0,0,8.625,0L232.227,633H274.67a28.385,28.385,0,0,0,28.351-28.353V549a40.451,40.451,0,0,1-9.959,4.751Z" transform="translate(-131.789 -474.512)"/><path class="e" d="M268.06,527.008a40.546,40.546,0,0,0-77.678-16.3,42.441,42.441,0,0,0-3.449,16.3,40.564,40.564,0,0,0,81.127,0Zm-71.166,0a30.468,30.468,0,0,1,1.243-8.574c.23-.783.5-1.547.789-2.3a30.526,30.526,0,1,1-2.032,10.876Z" transform="translate(-78.438 -486.442)"/><path class="e" d="M210,524.669a4.979,4.979,0,0,0,4.98-4.98V499.9a4.98,4.98,0,0,0-9.959,0V519.69A4.979,4.979,0,0,0,210,524.669Z" transform="translate(-60.94 -478.241)"/><path class="e" d="M210.241,512.534a5.471,5.471,0,1,0,5.472,5.472A5.471,5.471,0,0,0,210.241,512.534Z" transform="translate(-61.182 -461.198)"/></g></g></svg>