<svg xmlns="http://www.w3.org/2000/svg" width="50.43" height="37.315" viewBox="0 0 50.43 37.315"><defs><style>.a{fill:#2680eb;stroke:#2680eb;}</style></defs><g transform="translate(3227.232 -6056.258)"><g transform="translate(-7569.042 2489.734)"><path class="a" d="M4378.605,3567.963a6.382,6.382,0,0,0-6.339-.034c-.6.274-14.28,6.535-16.789,7.89h-6.763a6.413,6.413,0,0,0-6.405,6.406v5.854a6.4,6.4,0,0,0,3.215,5.546v1.764a5.929,5.929,0,0,0,11.854.211c4.8,2.278,14.458,6.653,14.965,6.883a6.4,6.4,0,0,0,9.463-5.626V3573.51A6.42,6.42,0,0,0,4378.605,3567.963Zm-22.807,27.425a4.341,4.341,0,0,1-8.681,0v-1.115a6.375,6.375,0,0,0,1.6.21h6.376c.18.094.417.214.707.356Zm24.416,1.469a4.812,4.812,0,0,1-7.154,4.2c-.213-.1-15.546-7.048-17.381-8.07a.805.805,0,0,0-.387-.1h-6.577a4.818,4.818,0,0,1-4.813-4.812v-5.854a4.819,4.819,0,0,1,4.813-4.813h6.969a.793.793,0,0,0,.4-.107c1.829-1.055,16.7-7.86,16.847-7.928a4.816,4.816,0,0,1,7.286,4.134Z"/></g><g transform="translate(-159.276 -223.37)"><g transform="translate(-3022.5 6286.888)"><path class="a" d="M3726.141,3601.5l1.725-1.725a.623.623,0,0,0-.88-.88l-1.725,1.725a.622.622,0,0,0,.88.88Z" transform="translate(-3725.079 -3598.718)"/><path class="a" d="M3726.141,3792.345a.622.622,0,0,0-.88.88l1.725,1.725a.623.623,0,0,0,.88-.88Z" transform="translate(-3725.079 -3772.9)"/><path class="a" d="M3736.059,3704.1h-2.44a.622.622,0,1,0,0,1.245h2.44a.622.622,0,0,0,0-1.245Z" transform="translate(-3732.207 -3693.608)"/></g></g></g></svg>