<svg xmlns="http://www.w3.org/2000/svg" width="83" height="82.689" viewBox="0 0 83 82.689"><defs><style>.a{fill:#8dc21f;}.b{fill:#3e3a39;}.c{fill:#fff;}.d{fill:#94c5ff;}.e{fill:#dcdddd;mix-blend-mode:multiply;isolation:isolate;}.f{fill:#ffd746;}</style></defs><g transform="translate(-86.588 -196.587)"><path class="a" d="M167.155,230.826a15.381,15.381,0,0,0-10.846-14.751,1.609,1.609,0,0,1-1.123-1.669c.024-.29.045-.583.045-.88a10.442,10.442,0,0,0-15.787-8.992,1.606,1.606,0,0,1-1.721-.05,22.6,22.6,0,0,0-9.107-3.6,23.094,23.094,0,0,0-3.657-.3,22.75,22.75,0,0,0-21.786,15.961,1.607,1.607,0,0,1-1.192,1.087,14.486,14.486,0,0,0,3.094,28.639h.6V227.107a1.608,1.608,0,0,1,1.608-1.608h43.175a1.609,1.609,0,0,1,1.608,1.608v19.149A15.457,15.457,0,0,0,167.155,230.826Z" transform="translate(-0.783 -0.783)"/><path class="b" d="M169.588,230.042a18.575,18.575,0,0,0-11.925-17.411A13.658,13.658,0,0,0,137.91,200.5a25.762,25.762,0,0,0-9.567-3.572,26.408,26.408,0,0,0-4.169-.339A25.951,25.951,0,0,0,99.611,213.93a17.7,17.7,0,0,0,4.681,34.777h.6v28.96a1.608,1.608,0,0,0,1.608,1.608h43.175a1.608,1.608,0,0,0,1.608-1.608V248.7A18.684,18.684,0,0,0,169.588,230.042Zm-61.479-2.111h18.365v48.127H108.109Zm21.582,0h18.377v48.127H129.691Zm19.985-3.217H106.5a1.608,1.608,0,0,0-1.608,1.608V245.49h-.6a14.486,14.486,0,0,1-3.094-28.639,1.607,1.607,0,0,0,1.192-1.087A22.75,22.75,0,0,1,124.174,199.8a23.094,23.094,0,0,1,3.657.3,22.6,22.6,0,0,1,9.107,3.6,1.607,1.607,0,0,0,1.721.05,10.442,10.442,0,0,1,15.787,8.992c0,.3-.021.59-.045.88a1.609,1.609,0,0,0,1.123,1.669,15.442,15.442,0,0,1-4.241,30.18V226.323A1.609,1.609,0,0,0,149.676,224.715Z" transform="translate(0 0)"/><path class="c" d="M131.715,235.565H113.35v48.127h18.365Zm-13.939,3.911H127.3a1.608,1.608,0,0,1,0,3.217h-9.522a1.608,1.608,0,1,1,0-3.217Zm0,5.4H127.3a1.608,1.608,0,0,1,0,3.217h-9.522a1.608,1.608,0,1,1,0-3.217Zm-1.608,7a1.608,1.608,0,0,1,1.608-1.608H127.3a1.608,1.608,0,0,1,0,3.217h-9.522A1.608,1.608,0,0,1,116.169,251.877Zm6.369,25.633a5.882,5.882,0,1,1,5.882-5.882A5.89,5.89,0,0,1,122.538,277.509Z" transform="translate(-5.241 -7.633)"/><path class="c" d="M123.734,275.094a4.274,4.274,0,1,0,4.274,4.274A4.279,4.279,0,0,0,123.734,275.094Z" transform="translate(-6.438 -15.375)"/><path class="b" d="M123.342,273.094a5.882,5.882,0,1,0,5.882,5.882A5.89,5.89,0,0,0,123.342,273.094Zm0,10.157a4.274,4.274,0,1,1,4.274-4.274A4.28,4.28,0,0,1,123.342,283.251Z" transform="translate(-6.046 -14.983)"/><path class="d" d="M158.565,283.692V235.565H140.188v48.127Zm-9.188-6.183a5.882,5.882,0,1,1,5.882-5.882A5.89,5.89,0,0,1,149.376,277.509Zm-4.761-38.033h9.522a1.608,1.608,0,0,1,0,3.217h-9.522a1.608,1.608,0,0,1,0-3.217Zm0,5.4h9.522a1.608,1.608,0,0,1,0,3.217h-9.522a1.608,1.608,0,0,1,0-3.217Zm0,5.4h9.522a1.608,1.608,0,0,1,0,3.217h-9.522a1.608,1.608,0,0,1,0-3.217Z" transform="translate(-10.497 -7.633)"/><path class="c" d="M150.573,275.094a4.274,4.274,0,1,0,4.274,4.274A4.279,4.279,0,0,0,150.573,275.094Z" transform="translate(-11.694 -15.375)"/><path class="b" d="M150.181,273.094a5.882,5.882,0,1,0,5.882,5.882A5.89,5.89,0,0,0,150.181,273.094Zm0,10.157a4.274,4.274,0,1,1,4.274-4.274A4.28,4.28,0,0,1,150.181,283.251Z" transform="translate(-11.302 -14.983)"/><path class="c" d="M118.463,243.646h9.522a1.608,1.608,0,1,0,0-3.217h-9.522a1.608,1.608,0,1,0,0,3.217Z" transform="translate(-5.927 -8.586)"/><path class="e" d="M118.463,243.646h9.522a1.608,1.608,0,1,0,0-3.217h-9.522a1.608,1.608,0,1,0,0,3.217Z" transform="translate(-5.927 -8.586)"/><path class="c" d="M118.463,250.356h9.522a1.608,1.608,0,1,0,0-3.217h-9.522a1.608,1.608,0,1,0,0,3.217Z" transform="translate(-5.927 -9.9)"/><path class="e" d="M118.463,250.356h9.522a1.608,1.608,0,1,0,0-3.217h-9.522a1.608,1.608,0,1,0,0,3.217Z" transform="translate(-5.927 -9.9)"/><path class="c" d="M127.985,257.066a1.608,1.608,0,1,0,0-3.217h-9.522a1.608,1.608,0,1,0,0,3.217Z" transform="translate(-5.927 -11.214)"/><path class="e" d="M127.985,257.066a1.608,1.608,0,1,0,0-3.217h-9.522a1.608,1.608,0,1,0,0,3.217Z" transform="translate(-5.927 -11.214)"/><path class="f" d="M145.3,243.646h9.522a1.608,1.608,0,1,0,0-3.217H145.3a1.608,1.608,0,0,0,0,3.217Z" transform="translate(-11.184 -8.586)"/><path class="c" d="M145.3,243.646h9.522a1.608,1.608,0,1,0,0-3.217H145.3a1.608,1.608,0,0,0,0,3.217Z" transform="translate(-11.184 -8.586)"/><path class="f" d="M145.3,250.356h9.522a1.608,1.608,0,1,0,0-3.217H145.3a1.608,1.608,0,0,0,0,3.217Z" transform="translate(-11.184 -9.9)"/><path class="c" d="M145.3,250.356h9.522a1.608,1.608,0,1,0,0-3.217H145.3a1.608,1.608,0,0,0,0,3.217Z" transform="translate(-11.184 -9.9)"/><path class="f" d="M145.3,257.066h9.522a1.608,1.608,0,1,0,0-3.217H145.3a1.608,1.608,0,0,0,0,3.217Z" transform="translate(-11.184 -11.214)"/><path class="c" d="M145.3,257.066h9.522a1.608,1.608,0,1,0,0-3.217H145.3a1.608,1.608,0,0,0,0,3.217Z" transform="translate(-11.184 -11.214)"/></g></svg>