<svg xmlns="http://www.w3.org/2000/svg" width="85.391" height="81.685" viewBox="0 0 85.391 81.685"><defs><style>.a{fill:#efefef;}.b{fill:#fff;}.c{fill:#595757;}.d{fill:#1c7cc2;}</style></defs><path class="a" d="M377.783,1006.237a40.843,40.843,0,1,0-40.843,40.842A40.844,40.844,0,0,0,377.783,1006.237Z" transform="translate(-294.244 -965.394)"/><g transform="translate(0 1.497)"><g transform="translate(0 12.099)"><rect class="b" width="81.686" height="62.889" transform="translate(1.853 1.853)"/><path class="c" d="M377.386,1048.5H295.7a1.853,1.853,0,0,1-1.853-1.852V983.759a1.853,1.853,0,0,1,1.853-1.852h81.686a1.853,1.853,0,0,1,1.853,1.852v62.889A1.853,1.853,0,0,1,377.386,1048.5Zm-79.834-3.7h77.981V985.612H297.552Z" transform="translate(-293.847 -981.907)"/></g><g transform="translate(7.086 19.143)"><g transform="translate(8.108 17.059)"><path class="d" d="M331.187,1024.728a6.774,6.774,0,1,0-6.773-6.775A6.774,6.774,0,0,0,331.187,1024.728Z" transform="translate(-314.441 -1011.181)"/><path class="d" d="M338.1,1030.6H333.98l-4.933,12.23-4.933-12.23H320a7.7,7.7,0,0,0-7.7,7.7v10.589h33.492V1038.3A7.7,7.7,0,0,0,338.1,1030.6Z" transform="translate(-312.301 -1014.612)"/><g transform="translate(39.23 2.816)"><path class="d" d="M375.722,1018.306H361.8a1.853,1.853,0,1,1,0-3.705h13.922a1.853,1.853,0,1,1,0,3.705Z" transform="translate(-359.948 -1014.601)"/><path class="d" d="M375.722,1033.452H361.8a1.852,1.852,0,1,1,0-3.7h13.922a1.852,1.852,0,1,1,0,3.7Z" transform="translate(-359.948 -1017.277)"/><path class="d" d="M375.722,1048.6H361.8a1.852,1.852,0,1,1,0-3.7h13.922a1.852,1.852,0,1,1,0,3.7Z" transform="translate(-359.948 -1019.953)"/></g></g><rect class="d" width="71.219" height="10.292"/></g><g transform="translate(35.286)"><path class="b" d="M350.069,984.9a5.557,5.557,0,0,1-5.558,5.558h0a5.557,5.557,0,0,1-5.558-5.558v-9.88a5.557,5.557,0,0,1,5.558-5.557h0a5.557,5.557,0,0,1,5.558,5.557Z" transform="translate(-337.101 -967.609)"/><path class="c" d="M344.114,991.912a7.418,7.418,0,0,1-7.41-7.41v-9.88a7.41,7.41,0,0,1,14.82,0v9.88A7.419,7.419,0,0,1,344.114,991.912Zm0-21a3.708,3.708,0,0,0-3.705,3.7v9.88a3.705,3.705,0,1,0,7.41,0v-9.88A3.709,3.709,0,0,0,344.114,970.917Z" transform="translate(-336.704 -967.212)"/></g><path class="c" d="M345.872,980.167h-1.441a1.853,1.853,0,1,1,0-3.705h1.441a1.853,1.853,0,1,1,0,3.705Z" transform="translate(-302.456 -968.846)"/><path class="c" d="M345.872,986.917h-1.441a1.853,1.853,0,1,1,0-3.705h1.441a1.853,1.853,0,1,1,0,3.705Z" transform="translate(-302.456 -970.039)"/></g></svg>