<svg xmlns="http://www.w3.org/2000/svg" width="85.92" height="82.606" viewBox="0 0 85.92 82.606"><defs><style>.a,.e{fill:#8dc21f;}.b{fill:#3e3a39;}.c{fill:#fff;}.d{fill:#efefef;}.d,.e,.f,.g{mix-blend-mode:multiply;isolation:isolate;}.f{fill:#dcdddd;}.g,.h{fill:#94c5ff;}</style></defs><g transform="translate(-492.89 -962.001)"><g transform="translate(502.436 962.001)"><path class="a" d="M564.219,963.651H505.3v29.054h58.918a14.527,14.527,0,1,0,0-29.054Z" transform="translate(-503.836 -962.187)"/><path class="b" d="M564.032,993.984H505.115a1.466,1.466,0,0,1-1.465-1.465V963.465A1.465,1.465,0,0,1,505.115,962h58.918a15.992,15.992,0,0,1,0,31.983Zm-57.454-2.929h57.454a13.063,13.063,0,1,0,0-26.126H506.579Z" transform="translate(-503.65 -962.001)"/><g transform="translate(51.753 7.898)"><circle class="c" cx="7.206" cy="7.206" r="7.206" transform="translate(0.888 0.887)"/><path class="b" d="M570.075,987.089A8.093,8.093,0,1,1,578.169,979,8.1,8.1,0,0,1,570.075,987.089Zm0-14.412a6.319,6.319,0,1,0,6.32,6.319A6.327,6.327,0,0,0,570.075,972.678Z" transform="translate(-561.982 -970.903)"/></g><path class="d" d="M514.647,985.91a.886.886,0,0,1-.887-.887V973.314a.887.887,0,0,1,1.774,0v11.708A.887.887,0,0,1,514.647,985.91Z" transform="translate(-504.79 -963.177)"/><path class="d" d="M522.26,985.91a.886.886,0,0,1-.887-.887V973.314a.887.887,0,0,1,1.775,0v11.708A.886.886,0,0,1,522.26,985.91Z" transform="translate(-505.649 -963.177)"/><path class="d" d="M529.875,985.91a.886.886,0,0,1-.887-.887V973.314a.887.887,0,0,1,1.774,0v11.708A.886.886,0,0,1,529.875,985.91Z" transform="translate(-506.508 -963.177)"/><circle class="e" cx="3.453" cy="3.453" r="3.453" transform="translate(56.393 12.539)"/><g transform="translate(0 34.527)"><path class="c" d="M564.219,1002.567H505.3v29.056h58.918a14.528,14.528,0,0,0,0-29.056Z" transform="translate(-503.836 -1001.103)"/><path class="f" d="M512.266,1010.568a21.489,21.489,0,0,0-6.965,1.159v20.8h28.5c0-.139.011-.277.011-.417A21.542,21.542,0,0,0,512.266,1010.568Z" transform="translate(-503.836 -1002.006)"/><g transform="translate(51.753 7.9)"><circle class="c" cx="7.206" cy="7.206" r="7.206" transform="translate(0.888 0.887)"/><path class="b" d="M570.075,1026.006a8.093,8.093,0,1,1,8.094-8.093A8.1,8.1,0,0,1,570.075,1026.006Zm0-14.411a6.318,6.318,0,1,0,6.32,6.318A6.326,6.326,0,0,0,570.075,1011.6Z" transform="translate(-561.982 -1009.821)"/></g><path class="d" d="M514.647,1024.828a.886.886,0,0,1-.887-.887v-11.71a.887.887,0,0,1,1.774,0v11.71A.887.887,0,0,1,514.647,1024.828Z" transform="translate(-504.79 -1002.093)"/><path class="d" d="M522.26,1024.828a.886.886,0,0,1-.887-.887v-11.71a.887.887,0,0,1,1.775,0v11.71A.886.886,0,0,1,522.26,1024.828Z" transform="translate(-505.649 -1002.093)"/><path class="d" d="M529.875,1024.828a.886.886,0,0,1-.887-.887v-11.71a.887.887,0,0,1,1.774,0v11.71A.886.886,0,0,1,529.875,1024.828Z" transform="translate(-506.508 -1002.093)"/><path class="b" d="M564.032,1032.9H505.115a1.466,1.466,0,0,1-1.465-1.465v-29.056a1.465,1.465,0,0,1,1.465-1.464h58.918a15.992,15.992,0,0,1,0,31.985Zm-57.454-2.929h57.454a13.064,13.064,0,0,0,0-26.127H506.579Z" transform="translate(-503.65 -1000.917)"/><circle class="g" cx="3.453" cy="3.453" r="3.453" transform="translate(56.393 12.54)"/></g></g><g transform="translate(492.89 1008.654)"><path class="h" d="M527.565,1032.748a16.513,16.513,0,1,0-16.513,16.512A16.512,16.512,0,0,0,527.565,1032.748Z" transform="translate(-493.076 -1014.771)"/><path class="b" d="M510.867,1050.538a17.977,17.977,0,1,1,17.977-17.977A18,18,0,0,1,510.867,1050.538Zm0-33.025a15.048,15.048,0,1,0,15.048,15.048A15.065,15.065,0,0,0,510.867,1017.514Z" transform="translate(-492.89 -1014.585)"/><g transform="translate(8.233 8.232)"><path class="c" d="M520.883,1031.319h-6.455v-6.455h-4.8v6.455H503.17v4.8h6.455v6.455h4.8v-6.455h6.455Z" transform="translate(-502.283 -1023.977)"/><path class="b" d="M514.315,1043.352h-4.8a.887.887,0,0,1-.887-.887V1036.9h-5.567a.887.887,0,0,1-.887-.887v-4.8a.887.887,0,0,1,.887-.887h5.567v-5.568a.887.887,0,0,1,.887-.887h4.8a.887.887,0,0,1,.887.887v5.568h5.568a.887.887,0,0,1,.887.887v4.8a.888.888,0,0,1-.887.887H515.2v5.567A.886.886,0,0,1,514.315,1043.352Zm-3.916-1.774h3.029v-5.567a.887.887,0,0,1,.887-.887h5.568v-3.029h-5.568a.888.888,0,0,1-.887-.887v-5.568H510.4v5.568a.887.887,0,0,1-.887.887h-5.567v3.029h5.567a.886.886,0,0,1,.887.887Z" transform="translate(-502.17 -1023.864)"/></g></g></g></svg>