<svg xmlns="http://www.w3.org/2000/svg" width="50" height="50" viewBox="0 0 50 50"><defs><style>.a{fill:#98b9e5;}.b{fill:#dfe8f3;}</style></defs><g transform="translate(-492.665 -200.666)"><g transform="translate(492.665 200.666)"><path class="a" d="M1121.629,498.471a25,25,0,1,1,25-25A25.029,25.029,0,0,1,1121.629,498.471Zm0-45.424a20.424,20.424,0,1,0,20.424,20.424A20.447,20.447,0,0,0,1121.629,453.047Z" transform="translate(-1096.629 -448.471)"/><path class="b" d="M1116.264,478.9a1.659,1.659,0,0,1-1.177-.487l-5.272-5.272a1.664,1.664,0,1,1,2.353-2.353l4.1,4.095,8.664-8.664a1.664,1.664,0,0,1,2.354,2.354l-9.842,9.841A1.659,1.659,0,0,1,1116.264,478.9Z" transform="translate(-1092.932 -445.643)"/></g></g></svg>