<?xml version="1.0" encoding="utf-8"?>
<!-- Generator: Adobe Illustrator 27.0.1, SVG Export Plug-In . SVG Version: 6.00 Build 0)  -->
<svg version="1.1" id="레이어_1" xmlns="http://www.w3.org/2000/svg" xmlns:xlink="http://www.w3.org/1999/xlink" x="0px"
	 y="0px" viewBox="0 0 85.4 83.8" style="enable-background:new 0 0 85.4 83.8;" xml:space="preserve">
<style type="text/css">
	.st0{fill:#EFEFEF;}
	.st1{fill:#FFFFFF;}
	.st2{fill:#595757;}
	.st3{fill:#47C9C9;}
</style>
<path class="st0" d="M81.9,60c0-11.9-9.6-21.5-21.5-21.5S38.9,48.2,38.9,60s9.6,21.5,21.5,21.5c0,0,0,0,0,0
	C72.3,81.5,81.9,71.9,81.9,60z"/>
<g transform="translate(6.495 0)">
	<g transform="translate(0 5.047)">
		<path class="st1" d="M1.9,1.9v73.3h53.3c4.7,0,8.5-3.8,8.5-8.5l0,0V1.9H1.9z"/>
		<path class="st2" d="M55.1,77H1.9c-1,0-1.9-0.8-1.9-1.9V1.9C0,0.8,0.8,0,1.9,0c0,0,0,0,0,0h61.8c1,0,1.9,0.8,1.9,1.9l0,0v64.8
			C65.5,72.4,60.9,77,55.1,77z M3.7,73.3h51.4c3.7,0,6.6-3,6.7-6.7v-63H3.7V73.3z"/>
		<path class="st3" d="M63.7,12.1V1.9H1.9v10.3"/>
		<path class="st2" d="M63.7,14c-1,0-1.9-0.8-1.9-1.9V3.7H3.7v8.4c0,1-0.9,1.8-1.9,1.8c-1,0-1.8-0.8-1.8-1.8V1.9C0,0.8,0.8,0,1.9,0
			c0,0,0,0,0,0h61.8c1,0,1.9,0.8,1.9,1.9l0,0v10.3C65.5,13.1,64.7,14,63.7,14C63.7,14,63.7,14,63.7,14z"/>
	</g>
	<g transform="translate(9.72)">
		<path class="st2" d="M1.9,7.9C0.8,7.9,0,7,0,6l0,0V1.9C0,0.8,0.9,0,1.9,0c1,0,1.8,0.8,1.8,1.8V6C3.7,7,2.9,7.9,1.9,7.9
			C1.9,7.9,1.9,7.9,1.9,7.9z"/>
		<path class="st2" d="M4,28.1c0-1,0.8-1.9,1.9-1.9l0,0H40c1,0,1.8,0.9,1.8,1.9c0,1-0.8,1.8-1.8,1.8H5.9C4.8,30,4,29.2,4,28.1
			C4,28.1,4,28.1,4,28.1z"/>
		<path class="st2" d="M44.2,7.9c-1,0-1.9-0.8-1.9-1.9l0,0V1.9c0-1,0.9-1.8,1.9-1.8c1,0,1.8,0.8,1.8,1.8V6C46.1,7,45.2,7.9,44.2,7.9
			C44.2,7.9,44.2,7.9,44.2,7.9z"/>
		<path class="st2" d="M4,39.8c0-1,0.8-1.9,1.9-1.9l0,0H40c1,0,1.8,0.9,1.8,1.9c0,1-0.8,1.8-1.8,1.8H5.9C4.8,41.7,4,40.9,4,39.8
			C4,39.8,4,39.8,4,39.8z"/>
		<path class="st2" d="M4,51.5c0-1,0.8-1.9,1.9-1.9l0,0H30c1,0,1.8,0.9,1.8,1.9c0,1-0.8,1.8-1.8,1.8H5.9C4.8,53.4,4,52.6,4,51.5
			C4,51.5,4,51.5,4,51.5z"/>
	</g>
</g>
<g transform="translate(45.339 13.185)">
	<g transform="translate(22.998)">
		<rect x="5.6" y="24" transform="matrix(0.707 -0.7072 0.7072 0.707 -19.09 14.9741)" class="st1" width="5.9" height="13"/>
		<path class="st2" d="M11.1,39.1c-0.5,0-1-0.2-1.3-0.5l-9.2-9.2c-0.7-0.7-0.7-1.9,0-2.6c0,0,0,0,0,0l4.1-4.1c0.7-0.7,1.9-0.7,2.6,0
			c0,0,0,0,0,0l9.2,9.2c0.7,0.7,0.7,1.9,0,2.6l-4.1,4.2C12,38.9,11.5,39.1,11.1,39.1z M4.5,28l6.6,6.6l1.5-1.5L6,26.5L4.5,28z"/>
	</g>
	<g transform="translate(0 6.424)">
		<path class="st1" d="M2.6,43L1.9,53.8l10.8-0.7l19.1-19.1L21.7,23.9L2.6,43z"/>
		<path class="st2" d="M1.9,55.6c-1,0-1.9-0.8-1.9-1.9c0,0,0-0.1,0-0.1l0.7-10.8c0-0.4,0.2-0.9,0.5-1.2l19.1-19.1
			c0.7-0.7,1.9-0.7,2.6,0c0,0,0,0,0,0l10.1,10.1c0.7,0.7,0.7,1.9,0,2.6L13.9,54.4c-0.3,0.3-0.7,0.5-1.2,0.5L2,55.6
			C1.9,55.6,1.9,55.6,1.9,55.6z M4.4,43.8l-0.5,8l8-0.5l17.3-17.3l-7.4-7.4L4.4,43.8z"/>
		<path class="st2" d="M12.9,53.6c-0.5,0-1-0.2-1.3-0.5l-9-9c-0.7-0.7-0.7-1.9,0-2.6s1.9-0.7,2.6,0l0,0l9,9c0.7,0.7,0.7,1.9,0,2.6
			C13.8,53.4,13.3,53.6,12.9,53.6L12.9,53.6z"/>
		<path class="st2" d="M8.5,49c-1,0-1.9-0.8-1.9-1.9c0-0.5,0.2-1,0.5-1.3l17.5-17.5c0.7-0.7,1.9-0.7,2.6,0c0.7,0.7,0.7,1.9,0,2.6
			c0,0,0,0,0,0L9.8,48.4C9.5,48.8,9,49,8.5,49z"/>
	</g>
	<g transform="translate(18.309 2.164)">
		<rect x="6.6" y="23.8" transform="matrix(0.7071 -0.7071 0.7071 0.7071 -19.61 16.2313)" class="st1" width="6.4" height="16.1"/>
		<path class="st2" d="M13.2,41.6c-0.5,0-1-0.2-1.3-0.5L0.5,29.7c-0.7-0.7-0.7-1.9,0-2.6l4.5-4.5c0.7-0.7,1.9-0.7,2.6,0L19,33.9
			c0.7,0.7,0.7,1.9,0,2.6c0,0,0,0,0,0L14.5,41C14.2,41.4,13.7,41.6,13.2,41.6z M4.5,28.4l8.7,8.7l1.9-1.9l-8.7-8.7L4.5,28.4z"/>
	</g>
	<path class="st2" d="M1.9,60.2l5.7-0.4l-5.3-5.3L1.9,60.2z"/>
</g>
</svg>
