<svg xmlns="http://www.w3.org/2000/svg" width="76.264" height="65.301" viewBox="0 0 76.264 65.301"><defs><style>.a{fill:#f5f5f5;stroke:#000;stroke-miterlimit:10;stroke-width:2px;}.b{fill:#94c5ff;}</style></defs><g transform="translate(-396 -634.699)"><g transform="translate(-340.951 -39.988)"><path class="a" d="M785.128,735.456H761.365l4.172-14.706h15.418Z" transform="translate(1.835 3.533)"/><path class="a" d="M6.092,0h62.08a6.092,6.092,0,0,1,6.092,6.092V44.551a6.092,6.092,0,0,1-6.092,6.092H6.094A6.094,6.094,0,0,1,0,44.549V6.092A6.092,6.092,0,0,1,6.092,0Z" transform="translate(737.951 675.688)"/><rect class="a" width="74.264" height="37.504" transform="translate(737.951 682.257)"/></g><g transform="translate(264.389 984.616)"><path class="b" d="M187.5-320.17c-1.258.015-2.518.027-3.775-.021-.507-.019-1.376.279-1.349-.572.025-.783.878-.529,1.4-.557.875-.047,1.754-.016,2.631-.02,2.218-.013,2.258-.055,2.17-2.245,0-.038-.006-.076,0-.114.055-.909-.335-1.322-1.28-1.285-1.142.045-2.29.044-3.431-.016-.538-.028-1.478.34-1.474-.546,0-.775.9-.446,1.419-.479.8-.051,1.6-.013,2.4-.013,2.541,0,2.639-.125,2.443-2.64-.059-.754-.379-1.108-1.136-1.106-2.784.007-5.568.012-8.352,0-.9,0-1.18.428-1.161,1.284.041,1.83.013,3.661.01,5.492s.04,3.663-.016,5.492c-.03,1,.34,1.359,1.328,1.34,2.249-.044,4.5-.012,6.751-.012,2.779,0,2.757,0,2.609-2.817C188.642-319.831,188.305-320.179,187.5-320.17Z" transform="translate(-18.968 -0.376)"/><path class="b" d="M156.6-320.1c-1.1.025-2.211.011-3.316,0-1.215-.011-1.293-.146-.649-1.217,1.452-2.417,2.922-4.823,4.376-7.239.21-.349.613-.708.414-1.125-.215-.45-.747-.253-1.141-.258-1.715-.02-3.431-.009-5.146-.008-1.334,0-2.669-.023-4,0-2.737.057-2.519-.586-2.529,2.705,0,.7.327.965.964.97,1.144.009,2.287,0,3.43.019,1.1.015,1.177.149.605,1.1-1.479,2.446-2.982,4.876-4.461,7.322-.73,1.208-.627,1.413.77,1.423,3.126.023,6.251.013,9.377.012,2.469,0,2.661-.238,2.4-2.7C157.617-319.8,157.32-320.112,156.6-320.1Z" transform="translate(0 -0.269)"/><path class="b" d="M218.824-328.419c.013-.51.163-1.216-.481-1.391-.825-.224-1.851-.493-2.493.216a47.5,47.5,0,0,0-2.915,3.812c-.334.454-.157.709.388.709.572,0,1.143-.016,1.715-.029.444-.01.725.114.376.579-1.337,1.783-2.692,3.552-4.039,5.327l-.217-.136c.428-.874.852-1.75,1.287-2.62.316-.633.129-.925-.577-.916-.648.008-1.3,0-1.945-.009-1.29-.011-1.315-.034-.808-1.176q1.089-2.456,2.218-4.894c.3-.65.228-1.014-.589-1-1.182.018-2.364.014-3.546,0-.763-.006-1.087.337-1.08,1.116.025,2.593-.057,5.189.034,7.778a4.622,4.622,0,0,0,3.072,4.421,8.853,8.853,0,0,0,6.048.146,4.635,4.635,0,0,0,3.376-3.944C219.057-323.081,218.755-325.755,218.824-328.419Z" transform="translate(-34.939 -0.224)"/><path class="b" d="M245.881-324.759c-.706-.286-1.43-.532-2.125-.842-.34-.152-.728-.376-.585-.855.136-.455.566-.457.948-.469a3.865,3.865,0,0,1,1.549.362c2.061.824,2.06.826,2.424-1.38a.971.971,0,0,1,.016-.113,1.257,1.257,0,0,0-.94-1.746,8.409,8.409,0,0,0-3.431-.63,6.434,6.434,0,0,0-3.36.649,3.973,3.973,0,0,0-2.442,3.812,3.617,3.617,0,0,0,2.59,3.414c.88.366,1.774.7,2.648,1.078.309.134.648.342.546.768a.831.831,0,0,1-.78.576,4.619,4.619,0,0,1-2.44-.467c-2.334-.945-2.335-.943-2.564,1.65a.663.663,0,0,1-.009.114,1.153,1.153,0,0,0,.83,1.5,10.244,10.244,0,0,0,6.6.545,4.269,4.269,0,0,0,3.456-3.658C248.967-322.708,248.217-323.813,245.881-324.759Z" transform="translate(-52.985)"/></g></g></svg>