<svg xmlns="http://www.w3.org/2000/svg" width="30.29" height="26.06" viewBox="0 0 30.29 26.06"><defs><style>.a{fill:#fff;}.b{fill:#555;}.c{fill:#1c7cc2;}</style></defs><g transform="translate(-243.377 -961.135)"><g transform="translate(243.377 961.135)"><path class="a" d="M413.041,1350.427h-8.707a9.36,9.36,0,0,0-2.5,18.38.716.716,0,0,1,.453.377c1.527,3.14,3.6,4.06,4.688,4.329v-3.651a.716.716,0,0,1,.716-.716h5.349a9.359,9.359,0,1,0,0-18.719Z" transform="translate(-393.542 -1348.995)"/><path class="b" d="M409.972,1345.927h-8.707a10.791,10.791,0,0,0-3.189,21.1c2.528,4.9,6.382,4.96,6.548,4.96a.716.716,0,0,0,.716-.716v-3.762h4.633a10.791,10.791,0,1,0,0-21.582Zm0,20.151h-5.349a.716.716,0,0,0-.716.716v3.651c-1.084-.27-3.161-1.189-4.688-4.329a.716.716,0,0,0-.453-.377,9.36,9.36,0,0,1,2.5-18.38h8.707a9.36,9.36,0,1,1,0,18.719Z" transform="translate(-390.474 -1345.927)"/></g><g transform="translate(253.444 966.972)"><path class="c" d="M427.826,1371.569h-3.461l-.481,1.629h-3.113l3.708-9.865H427.8l3.707,9.865h-3.192Zm-.632-2.133-1.089-3.547-1.078,3.547Z" transform="translate(-420.771 -1363.332)"/></g></g></svg>