<svg xmlns="http://www.w3.org/2000/svg" width="37" height="35.285" viewBox="0 0 37 35.285"><defs><style>.a{fill:#fff;}.b{fill:#595757;}.c{fill:#8dc21f;}.d{fill:#ffa666;}.e{fill:#86ade2;}</style></defs><g transform="translate(-481.891 -796.677)"><g transform="translate(481.891 796.677)"><g transform="translate(0 0)"><rect class="a" width="34.983" height="30.552" transform="translate(1.009 1.008)"/><path class="b" d="M517.883,844.716H482.9a1.009,1.009,0,0,1-1.009-1.009V813.156a1.008,1.008,0,0,1,1.009-1.009h34.983a1.009,1.009,0,0,1,1.009,1.009v30.552A1.009,1.009,0,0,1,517.883,844.716ZM483.908,842.7h32.965V814.164H483.908Z" transform="translate(-481.891 -812.147)"/></g><g transform="translate(0 0)"><path class="c" d="M484.141,820.726V814.4h34.983v6.33" transform="translate(-483.132 -813.388)"/><path class="b" d="M517.883,820.494a1.009,1.009,0,0,1-1.009-1.009v-5.321H483.908v5.321a1.009,1.009,0,0,1-2.017,0v-6.33a1.008,1.008,0,0,1,1.009-1.009h34.983a1.009,1.009,0,0,1,1.009,1.009v6.33A1.009,1.009,0,0,1,517.883,820.494Z" transform="translate(-481.891 -812.147)"/></g><g transform="translate(4.041 3.514)"><path class="b" d="M493.015,821.041a1.055,1.055,0,1,0-1.055,1.054A1.054,1.054,0,0,0,493.015,821.041Z" transform="translate(-490.905 -819.986)"/><path class="b" d="M501.545,821.041a1.055,1.055,0,1,0-1.055,1.054A1.055,1.055,0,0,0,501.545,821.041Z" transform="translate(-495.611 -819.986)"/><path class="b" d="M510.076,821.041a1.055,1.055,0,1,0-1.055,1.054A1.055,1.055,0,0,0,510.076,821.041Z" transform="translate(-500.318 -819.986)"/></g></g><g transform="translate(488.735 808.176)"><line class="d" x2="21.294" transform="translate(1.009 1.009)"/><path class="b" d="M519.461,839.814H498.167a1.009,1.009,0,0,1,0-2.017h21.294a1.009,1.009,0,1,1,0,2.017Z" transform="translate(-497.158 -837.797)"/></g><g transform="translate(490.851 812.883)"><path class="c" d="M521.19,859.078a8.531,8.531,0,1,0-8.531,8.531A8.531,8.531,0,0,0,521.19,859.078Z" transform="translate(-503.119 -849.538)"/><path class="b" d="M511.417,867.376a9.54,9.54,0,1,1,9.54-9.54A9.55,9.55,0,0,1,511.417,867.376Zm0-17.062a7.522,7.522,0,1,0,7.523,7.522A7.531,7.531,0,0,0,511.417,850.314Z" transform="translate(-501.878 -848.297)"/></g><g transform="translate(495.085 819.582)"><path class="e" d="M513.573,867.908,516.661,871l5.5-5.505" transform="translate(-512.564 -864.483)"/><path class="b" d="M515.42,870.764a1.009,1.009,0,0,1-.713-.3l-3.088-3.088a1.009,1.009,0,0,1,1.426-1.426l2.375,2.375,4.792-4.792a1.009,1.009,0,0,1,1.426,1.426l-5.5,5.505A1.009,1.009,0,0,1,515.42,870.764Z" transform="translate(-511.323 -863.242)"/></g></g></svg>