<svg xmlns="http://www.w3.org/2000/svg" width="69.357" height="71.376" viewBox="0 0 69.357 71.376"><defs><style>.a{fill:none;}.b{fill:#3e3a39;}.c{fill:#94c5ff;}</style></defs><path class="a" d="M327.179,513.209a7.92,7.92,0,1,0,7.92,7.92h-7.92Z" transform="translate(-291.865 -486.33)"/><path class="a" d="M359.63,507.372h8.329l-4.164-4.164-4.165-4.165Z" transform="translate(-302.388 -482.637)"/><path class="a" d="M302.268,490.253h29.684v-10.4H285.2v54.319H301.16V491.362A1.108,1.108,0,0,1,302.268,490.253Z" transform="translate(-282.987 -477.634)"/><path class="a" d="M345.527,509.037a1.109,1.109,0,0,1-1.109-1.109V496.921H309.785v54.321h46.749v-42.2Zm-30.955,7.846a10.149,10.149,0,0,1,10.137-10.138v-4.307a14.445,14.445,0,0,1,14.446,14.445h-4.308a10.137,10.137,0,1,1-20.274,0Zm35.246,28.626h-21.2a1.109,1.109,0,1,1,0-2.218h21.2a1.109,1.109,0,1,1,0,2.218Zm0-6.437h-28.4a1.109,1.109,0,0,1,0-2.218h28.4a1.109,1.109,0,1,1,0,2.218Zm0-6.437H335.81a1.109,1.109,0,1,1,0-2.218h14.009a1.109,1.109,0,1,1,0,2.218Z" transform="translate(-289.395 -482.084)"/><path class="b" d="M351.541,502.483v0a1.084,1.084,0,0,0-.1-.268c-.01-.021-.021-.043-.034-.064a1.087,1.087,0,0,0-.174-.234L339.121,489.8a1.087,1.087,0,0,0-.234-.173c-.021-.013-.043-.024-.065-.035a1.129,1.129,0,0,0-.265-.095h-.01a1.1,1.1,0,0,0-.21-.021h-4.949v-11.51a1.108,1.108,0,0,0-1.109-1.109H283.314a1.108,1.108,0,0,0-1.109,1.109V534.5a1.108,1.108,0,0,0,1.109,1.109h17.063v11.512a1.109,1.109,0,0,0,1.109,1.109h48.967a1.109,1.109,0,0,0,1.109-1.109V502.7A1.144,1.144,0,0,0,351.541,502.483Zm-3.765-.9h-8.328v-8.33l4.165,4.165Zm-63.352,31.8V479.07h46.748v10.4H301.486a1.108,1.108,0,0,0-1.109,1.109v42.809ZM302.6,546.01V491.689h34.633V502.7a1.109,1.109,0,0,0,1.109,1.109h11.006v42.2Z" transform="translate(-282.205 -476.852)"/><path class="b" d="M336.534,520.347h-2.218a7.919,7.919,0,1,1-7.92-7.92v-2.218a10.138,10.138,0,1,0,10.138,10.138Z" transform="translate(-291.083 -485.548)"/><path class="c" d="M329.971,518.828h14.446a14.445,14.445,0,0,0-14.446-14.445v14.445Z" transform="translate(-294.657 -484.029)"/><path class="c" d="M358.6,542.229H344.6a1.109,1.109,0,1,0,0,2.218H358.6a1.109,1.109,0,1,0,0-2.218Z" transform="translate(-298.18 -493.895)"/><path class="c" d="M353.531,550.935h-28.4a1.109,1.109,0,0,0,0,2.218h28.4a1.109,1.109,0,1,0,0-2.218Z" transform="translate(-293.107 -496.164)"/><path class="c" d="M356.067,559.641h-21.2a1.109,1.109,0,1,0,0,2.218h21.2a1.109,1.109,0,1,0,0-2.218Z" transform="translate(-295.643 -498.434)"/></svg>