<svg xmlns="http://www.w3.org/2000/svg" width="83" height="63.865" viewBox="0 0 83 63.865"><defs><style>.a{fill:none;stroke:#494949;stroke-linecap:round;stroke-linejoin:round;stroke-width:3px;}</style></defs><g transform="translate(-134.371 -513.813)"><rect class="a" width="22.084" height="60.865" transform="translate(164.837 515.313)"/><rect class="a" width="22.124" height="35.838" transform="translate(135.871 540.34)"/><line class="a" x2="6.13" transform="translate(143.376 546.626)"/><line class="a" x2="6.13" transform="translate(172.138 521.443)"/><path class="a" d="M149.035,543.607a2.593,2.593,0,1,1-2.594-2.594A2.594,2.594,0,0,1,149.035,543.607Z" transform="translate(0 11.909)"/><g transform="translate(193.747 540.34)"><rect class="a" width="22.124" height="35.838"/><line class="a" x2="6.13" transform="translate(7.997 6.366)"/><path class="a" d="M193.722,543.607a2.594,2.594,0,1,1-2.594-2.594A2.594,2.594,0,0,1,193.722,543.607Z" transform="translate(-180.066 -529.931)"/></g><path class="a" d="M171.08,528.517a2.593,2.593,0,1,1-2.594-2.594A2.593,2.593,0,0,1,171.08,528.517Z" transform="translate(6.719 2.439)"/></g></svg>