<?xml version="1.0" encoding="utf-8"?>
<!-- Generator: Adobe Illustrator 27.0.0, SVG Export Plug-In . SVG Version: 6.00 Build 0)  -->
<svg version="1.1" id="레이어_1" xmlns="http://www.w3.org/2000/svg" xmlns:xlink="http://www.w3.org/1999/xlink" x="0px"
	 y="0px" viewBox="0 0 85.4 79.3" style="enable-background:new 0 0 85.4 79.3;" xml:space="preserve">
<style type="text/css">
	.st0{fill:#EFEFEF;}
	.st1{fill:#595757;}
	.st2{fill:#FFFFFF;}
	.st3{fill:none;}
	.st4{fill:#BD24D3;}
</style>
<path class="st0" d="M67.5,38.5c0-13.7-11.1-24.8-24.8-24.8c-13.7,0-24.8,11.1-24.8,24.8S29,63.4,42.7,63.4S67.5,52.3,67.5,38.5
	L67.5,38.5z"/>
<g transform="translate(0 0)">
	<g transform="translate(10.71)">
		<path class="st1" d="M32,74.5c-1,0-1.9-0.8-1.9-1.8c0-1,0.8-1.9,1.8-1.9c0,0,0.1,0,0.1,0c15.6,0,28.3-12.7,28.3-28.3V32
			C60.3,16.4,47.6,3.7,32,3.7C16.4,3.7,3.7,16.3,3.7,32c0,0,0,0,0,0v10.5c0,1-0.8,1.9-1.8,1.9c-1,0-1.9-0.8-1.9-1.8c0,0,0-0.1,0-0.1
			V32C0,14.3,14.3,0,32,0s32,14.3,32,32c0,0,0,0,0,0v10.5C64,60.1,49.6,74.4,32,74.5z"/>
		<g transform="translate(25.468 66.292)">
			<ellipse class="st2" cx="6.5" cy="6.5" rx="4.7" ry="4.7"/>
			<path class="st1" d="M6.5,13C2.9,13,0,10.1,0,6.5S2.9,0,6.5,0S13,2.9,13,6.5C13,10.1,10.1,13,6.5,13z M6.5,3.7
				C5,3.7,3.7,5,3.7,6.5S5,9.3,6.5,9.3c1.6,0,2.8-1.3,2.8-2.8l0,0C9.3,5,8.1,3.7,6.5,3.7z"/>
		</g>
	</g>
	<g transform="translate(0 24.287)">
		<path class="st2" d="M12.4,1.9C6.6,1.9,1.9,6.6,1.9,12.4v6c0,5.8,4.7,10.5,10.5,10.5h2.7v-27H12.4z"/>
		<path class="st1" d="M15.1,30.8h-2.7C5.6,30.7,0,25.2,0,18.4v-6C0,5.6,5.6,0,12.4,0h2.7c1,0,1.9,0.8,1.9,1.9v27
			C17,29.9,16.1,30.8,15.1,30.8C15.1,30.8,15.1,30.8,15.1,30.8z M12.4,3.7c-4.8,0-8.7,3.9-8.7,8.7v6c0,4.8,3.9,8.7,8.7,8.7h0.9V3.7
			L12.4,3.7z"/>
		<g transform="translate(7.735 7.671)">
			<line class="st3" x1="1.9" y1="1.9" x2="1.9" y2="13.6"/>
			<path class="st4" d="M1.9,15.4c-1,0-1.9-0.8-1.9-1.9l0,0V1.9C0,0.8,0.8,0,1.8,0c1,0,1.9,0.8,1.9,1.8c0,0,0,0.1,0,0.1v11.7
				C3.7,14.6,2.9,15.4,1.9,15.4z"/>
		</g>
		<g transform="translate(68.429)">
			<path class="st2" d="M4.6,28.9c5.8,0,10.5-4.7,10.5-10.5c0,0,0,0,0,0v-6c0-5.8-4.7-10.5-10.5-10.5c0,0,0,0,0,0H1.9v27L4.6,28.9z"
				/>
			<path class="st1" d="M4.6,30.8H1.9c-1,0-1.9-0.8-1.9-1.9v-27C0,0.8,0.8,0,1.9,0h2.7C11.4,0,17,5.6,17,12.4v6
				C17,25.2,11.4,30.7,4.6,30.8z M3.7,27h0.9c4.8,0,8.7-3.9,8.7-8.7v-6c0-4.8-3.9-8.7-8.7-8.7H3.7V27z"/>
			<g transform="translate(5.521 7.669)">
				<line class="st3" x1="1.9" y1="13.6" x2="1.9" y2="1.9"/>
				<path class="st4" d="M1.9,15.4c-1,0-1.9-0.8-1.9-1.9l0,0V1.9C0,0.8,0.8,0,1.8,0c1,0,1.9,0.8,1.9,1.8c0,0,0,0.1,0,0.1v11.7
					C3.7,14.6,2.9,15.4,1.9,15.4z"/>
			</g>
		</g>
	</g>
</g>
</svg>
