<svg xmlns="http://www.w3.org/2000/svg" width="78" height="66.731" viewBox="0 0 78 66.731"><defs><style>.a{fill:#fff;}.b{fill:none;}.c{fill:#3e3a39;}.d{fill:#94c5ff;}</style></defs><rect class="a" width="18.537" height="3.137" transform="translate(11.765 29.238)"/><path class="b" d="M346.437,667.406a2.584,2.584,0,0,0-2.581-2.581H286.42a2.584,2.584,0,0,0-2.581,2.581v2.631h62.6Z" transform="translate(-281.415 -662.401)"/><path class="b" d="M346.437,708.026V681.6h-62.6v26.425a2.584,2.584,0,0,0,2.581,2.581h57.437A2.584,2.584,0,0,0,346.437,708.026Zm-48.213-2.506h-6.256a1.212,1.212,0,1,1,0-2.424h6.256a1.212,1.212,0,1,1,0,2.424Zm13.361,0h-6.257a1.212,1.212,0,1,1,0-2.424h6.257a1.212,1.212,0,1,1,0,2.424Zm2.555-6.309a1.212,1.212,0,0,1-1.212,1.212H291.968a1.212,1.212,0,0,1-1.212-1.212v-5.561a1.211,1.211,0,0,1,1.212-1.212h20.961a1.211,1.211,0,0,1,1.212,1.212Zm10.806,6.309h-6.256a1.212,1.212,0,0,1,0-2.424h6.256a1.212,1.212,0,1,1,0,2.424Zm13.361,0h-6.256a1.212,1.212,0,1,1,0-2.424h6.256a1.212,1.212,0,1,1,0,2.424Z" transform="translate(-281.415 -665.624)"/><path class="b" d="M356.137,689.074l-5.93-.884v21.1a5.011,5.011,0,0,1-5,5.005H291.694l-.815,5.466a2.579,2.579,0,0,0,2.172,2.932l56.809,8.473A2.58,2.58,0,0,0,352.793,729l5.516-36.989a2.58,2.58,0,0,0-2.172-2.933Z" transform="translate(-282.762 -666.889)"/><path class="c" d="M357.855,683.584a4.969,4.969,0,0,0-3.283-1.971l-6.287-.937V666.83a5.01,5.01,0,0,0-5-5.005H285.843a5.01,5.01,0,0,0-5,5.005v37.4a5.01,5.01,0,0,0,5,5.005h1.478l-.762,5.108a5,5,0,0,0,4.212,5.687l56.808,8.473a5.1,5.1,0,0,0,.749.056,5.006,5.006,0,0,0,4.939-4.266l5.516-36.991A4.971,4.971,0,0,0,357.855,683.584Zm-74.592,20.643v-37.4a2.584,2.584,0,0,1,2.58-2.581H343.28a2.584,2.584,0,0,1,2.581,2.581v37.4a2.584,2.584,0,0,1-2.581,2.581H285.843A2.584,2.584,0,0,1,283.263,704.227Zm73.123-17.285-5.517,36.989a2.58,2.58,0,0,1-2.933,2.172l-56.809-8.473a2.578,2.578,0,0,1-2.172-2.932l.815-5.466H343.28a5.01,5.01,0,0,0,5-5.005v-21.1l5.93.884a2.58,2.58,0,0,1,2.172,2.933Z" transform="translate(-280.839 -661.825)"/><path class="c" d="M299.869,708.206h-6.256a1.212,1.212,0,0,0,0,2.424h6.256a1.212,1.212,0,0,0,0-2.424Z" transform="translate(-283.06 -670.734)"/><path class="c" d="M316.406,708.206H310.15a1.212,1.212,0,0,0,0,2.424h6.257a1.212,1.212,0,0,0,0-2.424Z" transform="translate(-286.236 -670.734)"/><path class="c" d="M332.945,708.206h-6.256a1.212,1.212,0,1,0,0,2.424h6.256a1.212,1.212,0,1,0,0-2.424Z" transform="translate(-289.413 -670.734)"/><path class="c" d="M349.482,708.206h-6.256a1.212,1.212,0,0,0,0,2.424h6.256a1.212,1.212,0,0,0,0-2.424Z" transform="translate(-292.589 -670.734)"/><rect class="d" width="62.598" height="8.341" transform="translate(2.424 7.636)"/><path class="c" d="M314.574,695.014H293.613a1.211,1.211,0,0,0-1.212,1.212v5.561A1.212,1.212,0,0,0,293.613,703h20.961a1.212,1.212,0,0,0,1.212-1.212v-5.561A1.211,1.211,0,0,0,314.574,695.014Zm-1.212,5.561H294.825v-3.137h18.537Z" transform="translate(-283.06 -668.2)"/></svg>