<svg xmlns="http://www.w3.org/2000/svg" width="54" height="60" viewBox="0 0 54 60"><defs><style>.a{fill:#ccc;}.b{fill:#f5f5f5;}.c{fill:#999;}.d{fill:#fff;}</style></defs><g transform="translate(-781.972 -742.615)"><g transform="translate(781.972 742.615)"><g transform="translate(0)"><path class="a" d="M834.442,802.615H795.336a1.561,1.561,0,0,1-1.083-.432l-11.832-11.408a1.45,1.45,0,0,1-.448-1.044V744.091a1.5,1.5,0,0,1,1.531-1.476h50.937a1.5,1.5,0,0,1,1.531,1.476v57.048A1.5,1.5,0,0,1,834.442,802.615Zm-38.471-2.952h36.94v-54.1H785.035v43.552Z" transform="translate(-781.973 -742.615)"/></g><g transform="translate(0 45.071)"><path class="b" d="M796.083,814.43h-11.86l11.86,11.86Z" transform="translate(-782.688 -812.895)"/><path class="a" d="M795.368,827.109a1.536,1.536,0,0,1-1.086-.449L782.422,814.8a1.534,1.534,0,0,1,1.085-2.62h11.859a1.535,1.535,0,0,1,1.535,1.535v11.86a1.533,1.533,0,0,1-1.534,1.535Zm-8.156-11.86,6.621,6.621v-6.621Z" transform="translate(-781.972 -812.18)"/></g></g><g transform="translate(797.382 751.264)"><path class="c" d="M824.153,759.984a4.688,4.688,0,1,0-4.688,4.688A4.688,4.688,0,0,0,824.153,759.984Z" transform="translate(-807.874 -755.296)"/><path class="c" d="M822.51,772.534H809.984a5.328,5.328,0,0,0-5.328,5.327v5.748h23.181v-5.748A5.327,5.327,0,0,0,822.51,772.534Z" transform="translate(-804.656 -760.777)"/></g><g transform="translate(796.184 778.982)"><line class="d" x2="22.508" transform="translate(1.535 1.534)"/><path class="c" d="M826.942,801.23H804.435a1.535,1.535,0,0,1,0-3.069h22.508a1.535,1.535,0,0,1,0,3.069Z" transform="translate(-802.9 -798.161)"/></g><g transform="translate(801.692 786.512)"><line class="d" x2="11.492" transform="translate(1.534 1.534)"/><path class="c" d="M824,812.73H812.511a1.535,1.535,0,0,1,0-3.069H824a1.535,1.535,0,0,1,0,3.069Z" transform="translate(-810.976 -809.661)"/></g></g></svg>