<svg xmlns="http://www.w3.org/2000/svg" width="85.391" height="79.327" viewBox="0 0 85.391 79.327"><defs><style>.a{fill:#efefef;}.b{fill:#595757;}.c{fill:#fff;}.d{fill:#6eb6ff;}.e{fill:#d67622;}</style></defs><path class="a" d="M365.212,656.308a24.838,24.838,0,1,0-24.838,24.838A24.838,24.838,0,0,0,365.212,656.308Z" transform="translate(-297.679 -617.767)"/><g transform="translate(0 0)"><g transform="translate(10.71)"><path class="b" d="M338.841,689.294a1.853,1.853,0,1,1,0-3.705,28.312,28.312,0,0,0,28.279-28.28v-10.5a28.28,28.28,0,1,0-56.56,0v10.5a1.853,1.853,0,1,1-3.705,0v-10.5a31.985,31.985,0,1,1,63.97,0v10.5A32.021,32.021,0,0,1,338.841,689.294Z" transform="translate(-306.855 -614.826)"/><g transform="translate(25.468 66.292)"><ellipse class="c" cx="4.665" cy="4.665" rx="4.665" ry="4.665" transform="translate(1.853 1.852)"/><path class="b" d="M344.305,708.377a6.518,6.518,0,1,1,6.518-6.518A6.525,6.525,0,0,1,344.305,708.377Zm0-9.33a2.813,2.813,0,1,0,2.813,2.813A2.815,2.815,0,0,0,344.305,699.047Z" transform="translate(-337.787 -695.342)"/></g></g><g transform="translate(0 24.287)"><path class="c" d="M306.637,646.574a10.54,10.54,0,0,0-10.54,10.54v5.969a10.54,10.54,0,0,0,10.54,10.54h2.716V646.574Z" transform="translate(-294.244 -644.721)"/><path class="b" d="M308.956,675.077H306.24a12.406,12.406,0,0,1-12.393-12.392v-5.969a12.406,12.406,0,0,1,12.393-12.392h2.716a1.853,1.853,0,0,1,1.853,1.852v27.048A1.853,1.853,0,0,1,308.956,675.077Zm-2.716-27.048a8.7,8.7,0,0,0-8.688,8.687v5.969a8.7,8.7,0,0,0,8.688,8.687h.864V648.029Z" transform="translate(-293.847 -644.324)"/><g transform="translate(7.735 7.671)"><line class="d" y2="11.708" transform="translate(1.852 1.852)"/><path class="e" d="M305.095,669.054a1.853,1.853,0,0,1-1.853-1.853V655.494a1.853,1.853,0,1,1,3.705,0V667.2A1.853,1.853,0,0,1,305.095,669.054Z" transform="translate(-303.242 -653.641)"/></g><g transform="translate(68.429)"><path class="c" d="M381.924,673.622a10.54,10.54,0,0,0,10.541-10.54v-5.969a10.54,10.54,0,0,0-10.541-10.54h-2.715v27.048Z" transform="translate(-377.357 -644.721)"/><path class="b" d="M381.527,675.077h-2.715a1.853,1.853,0,0,1-1.853-1.852V646.176a1.853,1.853,0,0,1,1.853-1.852h2.715a12.407,12.407,0,0,1,12.394,12.392v5.969A12.407,12.407,0,0,1,381.527,675.077Zm-.863-3.705h.863a8.7,8.7,0,0,0,8.689-8.687v-5.969a8.7,8.7,0,0,0-8.689-8.687h-.863Z" transform="translate(-376.959 -644.324)"/><g transform="translate(5.521 7.669)"><line class="d" y1="11.708" transform="translate(1.853 1.852)"/><path class="e" d="M385.518,669.052a1.853,1.853,0,0,1-1.853-1.853V655.492a1.853,1.853,0,1,1,3.705,0V667.2A1.852,1.852,0,0,1,385.518,669.052Z" transform="translate(-383.665 -653.639)"/></g></g></g><g transform="translate(27.428 23.215)"><g transform="translate(0 0)"><path class="c" d="M356.24,645.271H329.41V672.1h9.941l3.474,7.754L346.3,672.1h9.94Z" transform="translate(-327.557 -643.419)"/><path class="e" d="M342.428,681.31a1.852,1.852,0,0,1-1.691-1.1l-2.984-6.659h-8.741a1.852,1.852,0,0,1-1.853-1.853V644.875a1.852,1.852,0,0,1,1.853-1.853h26.83a1.853,1.853,0,0,1,1.853,1.853V671.7a1.853,1.853,0,0,1-1.853,1.853H347.1l-2.984,6.659A1.852,1.852,0,0,1,342.428,681.31Zm-11.563-11.459h8.089a1.851,1.851,0,0,1,1.69,1.1l1.784,3.98,1.783-3.98a1.852,1.852,0,0,1,1.69-1.1h8.089V646.727H330.865Z" transform="translate(-327.16 -643.022)"/></g><path class="e" d="M331.728,671.321a1.853,1.853,0,0,1-1.309-3.162l24.594-24.594a1.852,1.852,0,0,1,2.619,2.619l-24.594,24.594A1.845,1.845,0,0,1,331.728,671.321Z" transform="translate(-327.64 -643.022)"/><path class="e" d="M353.606,671.321a1.845,1.845,0,0,1-1.31-.543L327.7,646.184a1.852,1.852,0,0,1,2.619-2.619l24.595,24.594a1.853,1.853,0,0,1-1.31,3.162Z" transform="translate(-327.16 -643.022)"/></g></g></svg>