<svg xmlns="http://www.w3.org/2000/svg" width="41.442" height="38.812" viewBox="0 0 41.442 38.812"><defs><style>.a{fill:#efefef;}.b{fill:#85a4cf;}.c{fill:#999;}</style></defs><g transform="translate(-668.514 -963.369)"><path class="a" d="M711.233,987.681a18.288,18.288,0,0,0-11.758-17.014,17.734,17.734,0,0,0-6.424-1.167,18.181,18.181,0,1,0,18.182,18.181Z" transform="translate(-3.816 -3.681)"/><g transform="translate(668.514 963.369)"><rect class="b" width="4.39" height="4.39" transform="translate(0.899 0.899)"/><path class="b" d="M673.8,969.557h-4.39a.9.9,0,0,1-.9-.9v-4.39a.9.9,0,0,1,.9-.9h4.39a.9.9,0,0,1,.9.9v4.39A.9.9,0,0,1,673.8,969.557Zm-3.491-1.8H672.9v-2.592h-2.592Z" transform="translate(-668.514 -963.369)"/><path class="b" d="M671.4,974.65a.9.9,0,1,1,0-1.8,2.7,2.7,0,0,0,2.7-2.7v-4.512a.9.9,0,0,1,1.8,0v4.512A4.5,4.5,0,0,1,671.4,974.65Z" transform="translate(-669.705 -964.193)"/><g transform="translate(7.927)"><rect class="b" width="4.39" height="4.39" transform="translate(0.899 0.899)"/><path class="b" d="M693.64,969.557h-4.39a.9.9,0,0,1-.9-.9v-4.39a.9.9,0,0,1,.9-.9h4.39a.9.9,0,0,1,.9.9v4.39A.9.9,0,0,1,693.64,969.557Zm-3.491-1.8h2.592v-2.592h-2.592Z" transform="translate(-688.351 -963.369)"/><path class="b" d="M691.233,974.65a.9.9,0,0,1,0-1.8,2.7,2.7,0,0,0,2.7-2.7v-4.512a.9.9,0,0,1,1.8,0v4.512A4.5,4.5,0,0,1,691.233,974.65Z" transform="translate(-689.542 -964.193)"/></g><g transform="translate(27.328 23.558)"><g transform="translate(7.926)"><g transform="translate(0 4.268)"><rect class="b" width="4.39" height="4.39" transform="translate(0.899 0.899)"/><path class="b" d="M762.029,1039.194h-4.39a.9.9,0,0,1-.9-.9v-4.39a.9.9,0,0,1,.9-.9h4.39a.9.9,0,0,1,.9.9v4.39A.9.9,0,0,1,762.029,1039.194Zm-3.491-1.8h2.592V1034.8h-2.592Z" transform="translate(-756.74 -1033.006)"/></g><path class="b" d="M757.639,1032.232a.9.9,0,0,1-.9-.9v-4.513a4.5,4.5,0,0,1,4.5-4.5.9.9,0,0,1,0,1.8,2.7,2.7,0,0,0-2.7,2.7v4.513A.9.9,0,0,1,757.639,1032.232Z" transform="translate(-756.74 -1022.324)"/></g><g transform="translate(0 4.268)"><rect class="b" width="4.39" height="4.39" transform="translate(0.899 0.899)"/><path class="b" d="M742.193,1039.194H737.8a.9.9,0,0,1-.9-.9v-4.39a.9.9,0,0,1,.9-.9h4.39a.9.9,0,0,1,.9.9v4.39A.9.9,0,0,1,742.193,1039.194Zm-3.491-1.8h2.592V1034.8H738.7Z" transform="translate(-736.904 -1033.006)"/></g><path class="b" d="M737.8,1032.232a.9.9,0,0,1-.9-.9v-4.513a4.5,4.5,0,0,1,4.5-4.5.9.9,0,0,1,0,1.8,2.7,2.7,0,0,0-2.7,2.7v4.513A.9.9,0,0,1,737.8,1032.232Z" transform="translate(-736.904 -1022.324)"/></g><path class="c" d="M721.91,976.626h-9.391a.9.9,0,0,1,0-1.8h9.391a.9.9,0,1,1,0,1.8Z" transform="translate(-694.395 -970.249)"/><path class="c" d="M734.939,988.126h-22.42a.9.9,0,0,1,0-1.8h22.42a.9.9,0,0,1,0,1.8Z" transform="translate(-694.395 -977.154)"/><path class="c" d="M734.939,999.626h-22.42a.9.9,0,0,1,0-1.8h22.42a.9.9,0,0,1,0,1.8Z" transform="translate(-694.395 -984.059)"/><path class="c" d="M729.7,1011.126H712.519a.9.9,0,1,1,0-1.8H729.7a.9.9,0,1,1,0,1.8Z" transform="translate(-694.395 -990.963)"/></g></g></svg>