<svg xmlns="http://www.w3.org/2000/svg" width="63.417" height="78.981" viewBox="0 0 63.417 78.981"><defs><style>.a{fill:none;}.b{fill:#3e3a39;}.c{fill:#94c5ff;}</style></defs><g transform="translate(0 0)"><path class="a" d="M309.25,1016.515a2.664,2.664,0,0,0-5.328,0v2.233h5.328Z" transform="translate(-292.82 -1011.398)"/><path class="a" d="M344.51,1082.208v-59.372H309.782v4.393a5.118,5.118,0,1,1-10.237,0,1.227,1.227,0,1,1,2.454,0,2.664,2.664,0,1,0,5.328,0v-4.393H293.352v59.372Zm-9.837-6.166h-31.5a1.227,1.227,0,0,1,0-2.454h31.5a1.227,1.227,0,0,1,0,2.454Zm0-8.385h-31.5a1.227,1.227,0,0,1,0-2.454h31.5a1.227,1.227,0,0,1,0,2.454Zm0-8.386h-31.5a1.227,1.227,0,1,1,0-2.454h31.5a1.227,1.227,0,1,1,0,2.454Zm-11.862-19.225h11.862a1.227,1.227,0,0,1,0,2.454H322.811a1.227,1.227,0,0,1,0-2.454Zm0,8.385h11.862a1.227,1.227,0,1,1,0,2.454H322.811a1.227,1.227,0,1,1,0-2.454Zm-21.27-11.453h15.953v15.953H301.54Z" transform="translate(-290.898 -1013.032)"/><path class="a" d="M348.6,1085.07a1.227,1.227,0,0,1-1.227,1.227H302.336v4.9h51.159V1031.82h-4.9Z" transform="translate(-292.532 -1014.666)"/><path class="b" d="M352.542,1025.552h-6.123v-6.123a1.227,1.227,0,0,0-1.227-1.227H309.236v-2.233a5.118,5.118,0,0,0-10.237,0v2.233h-7.42a1.227,1.227,0,0,0-1.227,1.227v61.827a1.227,1.227,0,0,0,1.227,1.227H297.7v6.123a1.228,1.228,0,0,0,1.227,1.227h53.613a1.228,1.228,0,0,0,1.227-1.227v-61.828A1.227,1.227,0,0,0,352.542,1025.552Zm-51.088-9.582a2.664,2.664,0,0,1,5.328,0v2.233h-5.328Zm-8.647,4.687h13.975v4.393a2.664,2.664,0,1,1-5.328,0,1.227,1.227,0,1,0-2.454,0,5.118,5.118,0,1,0,10.237,0v-4.393h34.728v59.372H292.806Zm58.509,66.723H300.156v-4.9h45.035a1.227,1.227,0,0,0,1.227-1.227v-53.25h4.9Z" transform="translate(-290.352 -1010.852)"/><rect class="c" width="15.953" height="15.953" transform="translate(10.642 23.946)"/><path class="b" d="M336.585,1084.873h-31.5a1.227,1.227,0,1,0,0,2.454h31.5a1.227,1.227,0,1,0,0-2.454Z" transform="translate(-292.809 -1024.317)"/><path class="b" d="M336.585,1074.623h-31.5a1.227,1.227,0,0,0,0,2.454h31.5a1.227,1.227,0,0,0,0-2.454Z" transform="translate(-292.809 -1022.452)"/><path class="b" d="M336.585,1064.373h-31.5a1.227,1.227,0,1,0,0,2.454h31.5a1.227,1.227,0,1,0,0-2.454Z" transform="translate(-292.809 -1020.588)"/><path class="b" d="M329.088,1056.577h11.862a1.227,1.227,0,1,0,0-2.454H329.088a1.227,1.227,0,1,0,0,2.454Z" transform="translate(-297.175 -1018.723)"/><path class="b" d="M329.088,1046.328h11.862a1.227,1.227,0,0,0,0-2.454H329.088a1.227,1.227,0,0,0,0,2.454Z" transform="translate(-297.175 -1016.859)"/></g></svg>