<svg xmlns="http://www.w3.org/2000/svg" width="40.127" height="30.545" viewBox="0 0 40.127 30.545"><defs><style>.a{fill:none;}.b{fill:#999;}.c{fill:#85a4cf;}</style></defs><path class="a" d="M727.321,1007.243l-4.1-2.45a1.362,1.362,0,0,0-2.06,1.149l-.071,4.775v0a1.361,1.361,0,0,0,2.108,1.16l4.088-2.279a1.363,1.363,0,0,0,.035-2.359Z" transform="translate(-703.959 -994.977)"/><path class="a" d="M723.111,988.348a1.784,1.784,0,0,0-1.782-1.782h-28.85a1.784,1.784,0,0,0-1.782,1.782v20.775h32.415ZM706.9,1005.443a7.27,7.27,0,1,1,7.269-7.27A7.27,7.27,0,0,1,706.9,1005.443Z" transform="translate(-686.84 -984.819)"/><path class="a" d="M685.867,1043.177a1.784,1.784,0,0,0,1.782,1.781h33.068a1.783,1.783,0,0,0,1.782-1.781v-.966H685.867Z" transform="translate(-684.12 -1016.16)"/><path class="b" d="M721.12,1006.87h-1.235V986.095a3.533,3.533,0,0,0-3.529-3.529H687.506a3.533,3.533,0,0,0-3.529,3.529v20.775h-1.236a.873.873,0,0,0-.874.873v1.839a3.533,3.533,0,0,0,3.529,3.528h33.068a3.533,3.533,0,0,0,3.529-3.528v-1.839A.873.873,0,0,0,721.12,1006.87Zm-35.4-20.775a1.784,1.784,0,0,1,1.782-1.782h28.851a1.784,1.784,0,0,1,1.782,1.782v20.775H685.723Zm34.524,23.488a1.783,1.783,0,0,1-1.782,1.781H685.4a1.784,1.784,0,0,1-1.782-1.781v-.966h36.633Z" transform="translate(-681.867 -982.566)"/><path class="c" d="M718.43,996.494a7.27,7.27,0,1,0,7.269,7.27A7.27,7.27,0,0,0,718.43,996.494Zm3.263,8.542-4.088,2.279a1.361,1.361,0,0,1-2.108-1.16v0l.071-4.775a1.362,1.362,0,0,1,2.06-1.149l4.1,2.45a1.363,1.363,0,0,1-.035,2.359Z" transform="translate(-698.366 -990.411)"/></svg>