<svg xmlns="http://www.w3.org/2000/svg" width="73.832" height="83.099" viewBox="0 0 73.832 83.099"><defs><style>.a{fill:#94c5ff;}.b{fill:#3e3a39;}.c{fill:#fff;}.d{fill:#8dc21f;}.e{fill:#ffff5d;}</style></defs><g transform="translate(-687.764 -225.829)"><g transform="translate(687.764 225.829)"><g transform="translate(0 4.72)"><g transform="translate(0 5.736)"><path class="a" d="M5.792,0H64.986a5.793,5.793,0,0,1,5.793,5.793V54.91A5.792,5.792,0,0,1,64.987,60.7H5.793A5.793,5.793,0,0,1,0,54.909V5.792A5.792,5.792,0,0,1,5.792,0Z" transform="translate(1.526 1.527)"/><path class="b" d="M755.648,303.284H693.712a5.954,5.954,0,0,1-5.948-5.947V245.476a5.954,5.954,0,0,1,5.948-5.947h61.937a5.954,5.954,0,0,1,5.948,5.947v51.861A5.954,5.954,0,0,1,755.648,303.284Zm-61.937-60.7a2.9,2.9,0,0,0-2.895,2.894v51.861a2.9,2.9,0,0,0,2.895,2.894h61.937a2.9,2.9,0,0,0,2.895-2.894V245.476a2.9,2.9,0,0,0-2.895-2.894Z" transform="translate(-687.764 -239.529)"/></g><g transform="translate(0 14.176)"><path class="c" d="M689.764,252.588v42.106a4.421,4.421,0,0,0,4.421,4.42h61.937a4.421,4.421,0,0,0,4.421-4.42V252.588Z" transform="translate(-688.238 -251.062)"/><path class="b" d="M755.648,300.167H693.712a5.954,5.954,0,0,1-5.948-5.947V252.114a1.526,1.526,0,0,1,1.526-1.526H760.07a1.526,1.526,0,0,1,1.526,1.526V294.22A5.954,5.954,0,0,1,755.648,300.167Zm-64.832-46.526V294.22a2.9,2.9,0,0,0,2.895,2.894h61.937a2.9,2.9,0,0,0,2.895-2.894V253.641Z" transform="translate(-687.764 -250.588)"/></g><path class="d" d="M760.543,252.239v-13.8a4.42,4.42,0,0,0-4.421-4.421H694.185a4.421,4.421,0,0,0-4.421,4.421v13.8" transform="translate(-688.238 -232.487)"/><path class="b" d="M760.07,253.292a1.527,1.527,0,0,1-1.526-1.526v-13.8a2.9,2.9,0,0,0-2.895-2.895H693.712a2.9,2.9,0,0,0-2.895,2.895v13.8a1.526,1.526,0,1,1-3.053,0v-13.8a5.954,5.954,0,0,1,5.948-5.948h61.937a5.954,5.954,0,0,1,5.948,5.948v13.8A1.527,1.527,0,0,1,760.07,253.292Z" transform="translate(-687.764 -232.013)"/></g><g transform="translate(14.301)"><path class="c" d="M713.563,236.1a2.531,2.531,0,0,1-2.53,2.531h0A2.531,2.531,0,0,1,708.5,236.1V230.36a2.531,2.531,0,0,1,2.531-2.531h0a2.531,2.531,0,0,1,2.53,2.531Z" transform="translate(-706.976 -226.303)"/><path class="b" d="M710.559,239.68a4.062,4.062,0,0,1-4.057-4.057v-5.736a4.057,4.057,0,1,1,8.114,0v5.736A4.061,4.061,0,0,1,710.559,239.68Zm0-10.8a1.006,1.006,0,0,0-1,1v5.736a1,1,0,1,0,2.008,0v-5.736A1,1,0,0,0,710.559,228.882Z" transform="translate(-706.502 -225.829)"/><g transform="translate(37.117)"><path class="c" d="M762.2,236.1a2.531,2.531,0,0,1-2.532,2.531h0a2.53,2.53,0,0,1-2.529-2.531V230.36a2.53,2.53,0,0,1,2.529-2.531h0a2.531,2.531,0,0,1,2.532,2.531Z" transform="translate(-755.609 -226.303)"/><path class="b" d="M759.191,239.68a4.061,4.061,0,0,1-4.056-4.057v-5.736a4.057,4.057,0,1,1,8.114,0v5.736A4.062,4.062,0,0,1,759.191,239.68Zm0-10.8a1,1,0,0,0-1,1v5.736a1,1,0,1,0,2.008,0v-5.736A1.006,1.006,0,0,0,759.191,228.882Z" transform="translate(-755.135 -225.829)"/></g></g></g><g transform="translate(695.591 255.732)"><g transform="translate(0)"><rect class="c" width="10.177" height="6.332" transform="translate(0.764 0.763)"/><path class="b" d="M708.959,272.869H698.782a.764.764,0,0,1-.763-.763v-6.332a.763.763,0,0,1,.763-.763h10.177a.763.763,0,0,1,.763.763v6.332A.763.763,0,0,1,708.959,272.869Zm-9.414-1.526H708.2v-4.806h-8.651Z" transform="translate(-698.019 -265.01)"/></g><g transform="translate(15.492)"><rect class="c" width="10.176" height="6.332" transform="translate(0.763 0.763)"/><path class="b" d="M729.258,272.869H719.081a.763.763,0,0,1-.763-.763v-6.332a.763.763,0,0,1,.763-.763h10.177a.763.763,0,0,1,.763.763v6.332A.763.763,0,0,1,729.258,272.869Zm-9.413-1.526h8.65v-4.806h-8.65Z" transform="translate(-718.318 -265.01)"/></g><g transform="translate(30.984)"><rect class="c" width="10.177" height="6.332" transform="translate(0.763 0.763)"/><path class="b" d="M749.557,272.869H739.379a.763.763,0,0,1-.763-.763v-6.332a.763.763,0,0,1,.763-.763h10.177a.763.763,0,0,1,.763.763v6.332A.763.763,0,0,1,749.557,272.869Zm-9.414-1.526h8.651v-4.806h-8.651Z" transform="translate(-738.616 -265.01)"/></g><g transform="translate(46.475)"><rect class="c" width="10.176" height="6.332" transform="translate(0.763 0.763)"/><path class="b" d="M769.854,272.869H759.677a.763.763,0,0,1-.763-.763v-6.332a.763.763,0,0,1,.763-.763h10.176a.763.763,0,0,1,.763.763v6.332A.763.763,0,0,1,769.854,272.869Zm-9.413-1.526h8.65v-4.806h-8.65Z" transform="translate(-758.914 -265.01)"/></g></g><g transform="translate(695.591 267.265)"><g transform="translate(0)"><rect class="c" width="10.177" height="6.332" transform="translate(0.764 0.763)"/><path class="b" d="M708.959,287.981H698.782a.763.763,0,0,1-.763-.763v-6.332a.764.764,0,0,1,.763-.763h10.177a.763.763,0,0,1,.763.763v6.332A.763.763,0,0,1,708.959,287.981Zm-9.414-1.526H708.2v-4.806h-8.651Z" transform="translate(-698.019 -280.122)"/></g><g transform="translate(15.492)"><rect class="c" width="10.176" height="6.332" transform="translate(0.763 0.763)"/><path class="b" d="M729.258,287.981H719.081a.763.763,0,0,1-.763-.763v-6.332a.763.763,0,0,1,.763-.763h10.177a.763.763,0,0,1,.763.763v6.332A.763.763,0,0,1,729.258,287.981Zm-9.413-1.526h8.65v-4.806h-8.65Z" transform="translate(-718.318 -280.122)"/></g><g transform="translate(30.984)"><rect class="c" width="10.177" height="6.332" transform="translate(0.763 0.763)"/><path class="b" d="M749.557,287.981H739.379a.763.763,0,0,1-.763-.763v-6.332a.763.763,0,0,1,.763-.763h10.177a.763.763,0,0,1,.763.763v6.332A.763.763,0,0,1,749.557,287.981Zm-9.414-1.526h8.651v-4.806h-8.651Z" transform="translate(-738.616 -280.122)"/></g><g transform="translate(46.475)"><rect class="c" width="10.176" height="6.332" transform="translate(0.763 0.763)"/><path class="b" d="M769.854,287.981H759.677a.763.763,0,0,1-.763-.763v-6.332a.763.763,0,0,1,.763-.763h10.176a.763.763,0,0,1,.763.763v6.332A.763.763,0,0,1,769.854,287.981Zm-9.413-1.526h8.65v-4.806h-8.65Z" transform="translate(-758.914 -280.122)"/></g></g><g transform="translate(695.591 278.799)"><g transform="translate(0)"><rect class="c" width="10.177" height="6.332" transform="translate(0.764 0.764)"/><path class="b" d="M708.959,303.093H698.782a.763.763,0,0,1-.763-.763V296a.763.763,0,0,1,.763-.763h10.177a.763.763,0,0,1,.763.763v6.332A.763.763,0,0,1,708.959,303.093Zm-9.414-1.526H708.2V296.76h-8.651Z" transform="translate(-698.019 -295.234)"/></g><g transform="translate(15.492)"><rect class="c" width="10.176" height="6.332" transform="translate(0.763 0.764)"/><path class="b" d="M729.258,303.093H719.081a.763.763,0,0,1-.763-.763V296a.763.763,0,0,1,.763-.763h10.177a.763.763,0,0,1,.763.763v6.332A.763.763,0,0,1,729.258,303.093Zm-9.413-1.526h8.65V296.76h-8.65Z" transform="translate(-718.318 -295.234)"/></g><g transform="translate(30.984)"><rect class="c" width="10.177" height="6.332" transform="translate(0.763 0.764)"/><path class="b" d="M749.557,303.093H739.379a.763.763,0,0,1-.763-.763V296a.763.763,0,0,1,.763-.763h10.177a.763.763,0,0,1,.763.763v6.332A.763.763,0,0,1,749.557,303.093Zm-9.414-1.526h8.651V296.76h-8.651Z" transform="translate(-738.616 -295.234)"/></g><g transform="translate(46.475)"><rect class="c" width="10.176" height="6.332" transform="translate(0.763 0.764)"/><path class="b" d="M769.854,303.093H759.677a.763.763,0,0,1-.763-.763V296a.763.763,0,0,1,.763-.763h10.176a.763.763,0,0,1,.763.763v6.332A.763.763,0,0,1,769.854,303.093Zm-9.413-1.526h8.65V296.76h-8.65Z" transform="translate(-758.914 -295.234)"/></g></g><g transform="translate(708.992 262.047)"><g transform="translate(0)"><path class="a" d="M761.407,297.2a21.914,21.914,0,1,0-21.914,21.915A21.915,21.915,0,0,0,761.407,297.2Z" transform="translate(-716.053 -273.758)"/><path class="b" d="M739.02,320.165a23.441,23.441,0,1,1,23.44-23.442A23.468,23.468,0,0,1,739.02,320.165Zm0-43.828a20.388,20.388,0,1,0,20.387,20.387A20.41,20.41,0,0,0,739.02,276.337Z" transform="translate(-715.579 -273.284)"/></g><g transform="translate(5.353 5.354)"><path class="c" d="M758.242,298.621a17.324,17.324,0,1,0-17.324,17.325A17.323,17.323,0,0,0,758.242,298.621Z" transform="translate(-722.83 -280.536)"/><path class="b" d="M740.681,316.473a18.087,18.087,0,1,1,18.087-18.089A18.109,18.109,0,0,1,740.681,316.473Zm0-34.648a16.561,16.561,0,1,0,16.561,16.559A16.579,16.579,0,0,0,740.681,281.825Z" transform="translate(-722.593 -280.299)"/></g><path class="b" d="M746.056,301.317a.762.762,0,0,1-.763-.763v-9.5a.763.763,0,0,1,1.526,0v9.5A.763.763,0,0,1,746.056,301.317Z" transform="translate(-722.615 -277.312)"/><path class="b" d="M755.365,313.832a.761.761,0,0,1-.54-.224L746,304.781a.763.763,0,1,1,1.079-1.079l8.829,8.828a.763.763,0,0,1-.54,1.3Z" transform="translate(-722.729 -280.434)"/><path class="a" d="M734.206,304.523a.763.763,0,1,1,0-1.526h9.312a.763.763,0,0,1,0,1.526Z" transform="translate(-719.809 -280.32)"/><g transform="translate(20.128 20.129)"><path class="e" d="M748.052,303.206a2.55,2.55,0,1,0-2.55,2.55A2.549,2.549,0,0,0,748.052,303.206Z" transform="translate(-742.189 -299.895)"/><path class="b" d="M745.265,306.282a3.312,3.312,0,1,1,3.313-3.313A3.316,3.316,0,0,1,745.265,306.282Zm0-5.1a1.786,1.786,0,1,0,1.786,1.784A1.788,1.788,0,0,0,745.265,301.184Z" transform="translate(-741.952 -299.658)"/></g><g transform="translate(7.94 7.94)"><g transform="translate(0 14.973)"><path class="b" d="M727.038,303.833a.527.527,0,1,0-.527.53A.526.526,0,0,0,727.038,303.833Z" transform="translate(-725.983 -303.307)"/><path class="b" d="M766.275,303.833a.527.527,0,1,0-.527.53A.526.526,0,0,0,766.275,303.833Z" transform="translate(-735.274 -303.307)"/></g><g transform="translate(14.973)"><path class="b" d="M746.129,284.742a.527.527,0,1,0-.527-.527A.526.526,0,0,0,746.129,284.742Z" transform="translate(-745.602 -283.688)"/><path class="b" d="M746.129,323.982a.528.528,0,1,0-.527-.529A.528.528,0,0,0,746.129,323.982Z" transform="translate(-745.602 -292.98)"/></g></g><g transform="translate(9.946 9.946)"><g transform="translate(0 5.481)"><path class="b" d="M729.595,313.379a.528.528,0,1,0-.192.72A.528.528,0,0,0,729.595,313.379Z" transform="translate(-728.611 -298.142)"/><path class="b" d="M763.576,293.761a.527.527,0,1,0-.192.72A.525.525,0,0,0,763.576,293.761Z" transform="translate(-736.658 -293.496)"/></g><g transform="translate(5.48)"><path class="b" d="M736.583,287.3a.528.528,0,1,0-.721-.194A.529.529,0,0,0,736.583,287.3Z" transform="translate(-735.792 -286.315)"/><path class="b" d="M756.2,321.281a.527.527,0,1,0-.72-.193A.525.525,0,0,0,756.2,321.281Z" transform="translate(-740.437 -294.362)"/></g></g><g transform="translate(9.946 9.946)"><g transform="translate(0 5.481)"><path class="b" d="M762.663,313.379a.527.527,0,1,1,.192.72A.528.528,0,0,1,762.663,313.379Z" transform="translate(-736.658 -298.142)"/><path class="b" d="M728.681,293.761a.527.527,0,1,1,.193.72A.527.527,0,0,1,728.681,293.761Z" transform="translate(-728.611 -293.496)"/></g><g transform="translate(5.48)"><path class="b" d="M755.675,287.3a.528.528,0,1,1,.72-.194A.528.528,0,0,1,755.675,287.3Z" transform="translate(-740.437 -286.315)"/><path class="b" d="M736.055,321.281a.528.528,0,1,1,.721-.193A.527.527,0,0,1,736.055,321.281Z" transform="translate(-735.792 -294.362)"/></g></g></g></g></svg>