<svg xmlns="http://www.w3.org/2000/svg" width="75.816" height="71.651" viewBox="0 0 75.816 71.651"><defs><style>.a{fill:#fff;}.b{fill:#3e3a39;}.c{fill:#94c5ff;}.d{fill:#8dc21f;}</style></defs><g transform="translate(-681.693 -569.119)"><g transform="translate(681.693 569.119)"><rect class="a" width="57.388" height="68.865" transform="translate(1.393 1.393)"/><path class="b" d="M740.473,640.77H683.086a1.393,1.393,0,0,1-1.393-1.393V570.512a1.393,1.393,0,0,1,1.393-1.393h57.388a1.393,1.393,0,0,1,1.393,1.393v68.866A1.393,1.393,0,0,1,740.473,640.77Zm-56-2.785h54.6V571.9h-54.6Z" transform="translate(-681.693 -569.119)"/><g transform="translate(10.629 9.497)"><rect class="a" width="12.64" height="12.638" transform="translate(0.696 0.696)"/><path class="b" d="M710.294,596.789H697.654a.7.7,0,0,1-.7-.7V583.454a.7.7,0,0,1,.7-.7h12.639a.7.7,0,0,1,.7.7v12.638A.7.7,0,0,1,710.294,596.789ZM698.351,595.4H709.6V584.151H698.351Z" transform="translate(-696.958 -582.758)"/><g transform="translate(18.262 2.66)"><line class="a" x2="18.565" transform="translate(1.392 1.393)"/><path class="b" d="M743.143,589.363H724.578a1.393,1.393,0,1,1,0-2.785h18.565a1.393,1.393,0,0,1,0,2.785Z" transform="translate(-723.185 -586.578)"/><g transform="translate(0 5.924)"><line class="a" x2="18.565" transform="translate(1.392 1.393)"/><path class="b" d="M743.143,597.871H724.578a1.393,1.393,0,0,1,0-2.785h18.565a1.393,1.393,0,0,1,0,2.785Z" transform="translate(-723.185 -595.086)"/></g></g></g><g transform="translate(10.629 28.038)"><rect class="a" width="12.64" height="12.638" transform="translate(0.696 0.696)"/><path class="b" d="M710.294,623.416H697.654a.7.7,0,0,1-.7-.7V610.081a.7.7,0,0,1,.7-.7h12.639a.7.7,0,0,1,.7.7v12.638A.7.7,0,0,1,710.294,623.416Zm-11.943-1.393H709.6V610.778H698.351Z" transform="translate(-696.958 -609.385)"/><g transform="translate(18.262 2.66)"><line class="a" x2="18.565" transform="translate(1.392 1.393)"/><path class="b" d="M743.143,615.99H724.578a1.393,1.393,0,1,1,0-2.785h18.565a1.393,1.393,0,0,1,0,2.785Z" transform="translate(-723.185 -613.205)"/><g transform="translate(0 5.924)"><line class="a" x2="18.565" transform="translate(1.392 1.393)"/><path class="b" d="M743.143,624.5H724.578a1.393,1.393,0,1,1,0-2.785h18.565a1.393,1.393,0,0,1,0,2.785Z" transform="translate(-723.185 -621.713)"/></g></g></g></g><g transform="translate(713.457 596.719)"><g transform="translate(21.658 21.654)"><path class="c" d="M778.858,654.68a3.974,3.974,0,0,1,0,5.621h0a3.975,3.975,0,0,1-5.622,0l-11.66-11.659a3.976,3.976,0,0,1,0-5.623h0a3.975,3.975,0,0,1,5.622,0Z" transform="translate(-759.021 -640.462)"/><path class="b" d="M775.44,662.251a5.331,5.331,0,0,1-3.8-1.573l-11.66-11.659a5.368,5.368,0,1,1,7.591-7.592l11.66,11.66a5.368,5.368,0,0,1-3.8,9.163Zm-11.66-19.612a2.583,2.583,0,0,0-1.826,4.41l11.66,11.659a2.644,2.644,0,0,0,3.653,0,2.582,2.582,0,0,0,0-3.651L765.606,643.4A2.565,2.565,0,0,0,763.781,642.639Z" transform="translate(-758.415 -639.854)"/></g><g transform="translate(0 0)"><path class="c" d="M758.58,615.777a17.145,17.145,0,1,0,0,24.245A17.147,17.147,0,0,0,758.58,615.777Z" transform="translate(-727.918 -609.363)"/><path class="b" d="M745.849,645.829a18.536,18.536,0,1,1,13.108-5.429A18.419,18.419,0,0,1,745.849,645.829Zm0-34.288a15.751,15.751,0,1,0,11.139,4.613A15.651,15.651,0,0,0,745.849,611.541Z" transform="translate(-727.311 -608.756)"/></g><g transform="translate(4.708 4.708)"><path class="a" d="M757.491,620.364a13.132,13.132,0,1,0,0,18.572A13.131,13.131,0,0,0,757.491,620.364Z" transform="translate(-734.377 -615.821)"/><path class="b" d="M747.9,643.174a13.828,13.828,0,1,1,9.778-4.05A13.735,13.735,0,0,1,747.9,643.174Zm0-26.263a12.435,12.435,0,1,0,8.793,3.642A12.355,12.355,0,0,0,747.9,616.911Z" transform="translate(-734.073 -615.518)"/></g></g><path class="d" d="M705.8,593.292a1.388,1.388,0,0,1-.984-.408l-3.532-3.53a1.392,1.392,0,1,1,1.969-1.969l2.547,2.546,8.065-8.065a1.392,1.392,0,0,1,1.969,1.969l-9.049,9.049A1.386,1.386,0,0,1,705.8,593.292Z" transform="translate(-5.824 -3.747)"/><path class="d" d="M705.8,620.237a1.39,1.39,0,0,1-.984-.407L701.28,616.3a1.392,1.392,0,1,1,1.969-1.969l2.547,2.547,8.065-8.065a1.392,1.392,0,0,1,1.969,1.969l-9.049,9.05A1.388,1.388,0,0,1,705.8,620.237Z" transform="translate(-5.824 -11.93)"/></g></svg>