<?xml version="1.0" encoding="utf-8"?>
<!-- Generator: Adobe Illustrator 25.0.1, SVG Export Plug-In . SVG Version: 6.00 Build 0)  -->
<svg version="1.1" id="레이어_1" xmlns="http://www.w3.org/2000/svg" xmlns:xlink="http://www.w3.org/1999/xlink" x="0px"
	 y="0px" viewBox="0 0 18 18.8" style="enable-background:new 0 0 18 18.8;" xml:space="preserve">
<style type="text/css">
	.st0{fill:none;stroke:#333333;stroke-width:1.5;stroke-linecap:round;stroke-linejoin:round;}
</style>
<g transform="translate(-281.467 -1105.94)">
	<path class="st0" d="M297,1120c2.8-3.6,2.1-8.8-1.5-11.6c-3.6-2.8-8.8-2.1-11.6,1.5c-2.8,3.6-2.1,8.8,1.5,11.6
		c2.6,2,6.2,2.3,9.1,0.6l3.5,1.8L297,1120z"/>
	<path class="st0" d="M292.2,1112.2c-0.7,0.1-1.3,0.6-1.5,1.3l0,0l0,0c-0.3-0.7-0.8-1.2-1.5-1.3c-1-0.1-1.9,0.5-2,1.5
		c0,0.1,0,0.2,0,0.4c0,1.3,1,3.3,3.5,4.5l0.1,0l0.1,0c2.5-1.2,3.5-3.2,3.5-4.5c0.1-1-0.7-1.8-1.7-1.9
		C292.4,1112.2,292.3,1112.2,292.2,1112.2z"/>
</g>
</svg>
