<svg xmlns="http://www.w3.org/2000/svg" width="54" height="60" viewBox="0 0 54 60"><defs><style>.a{fill:#ccc;}.b{fill:#999;}</style></defs><g transform="translate(-827.411 -435.144)"><g transform="translate(827.411 435.144)"><path class="a" d="M879.941,495.144h-51.06a1.482,1.482,0,0,1-1.47-1.492V436.636a1.482,1.482,0,0,1,1.47-1.492h51.06a1.482,1.482,0,0,1,1.47,1.492v57.015A1.482,1.482,0,0,1,879.941,495.144Zm-49.59-2.985h48.12V438.129h-48.12Z" transform="translate(-827.411 -435.144)"/></g><g transform="translate(837.074 444.223)"><path class="b" d="M848.434,456.945c-1,.211-3.716-3.285-4.415-3.776-1.436-1.394.787-3.62,2.183-2.183l2.233,2.233,4.606-4.606c1.394-1.436,3.62.787,2.182,2.183C854.544,451.234,849.343,457.308,848.434,456.945Z" transform="translate(-843.554 -448.149)"/><path class="b" d="M884.7,455.406H867.6a1.543,1.543,0,1,1,0-3.087h17.1A1.544,1.544,0,0,1,884.7,455.406Z" transform="translate(-850.622 -449.459)"/></g><g transform="translate(837.074 460.046)"><path class="b" d="M848.434,481.7c-1,.212-3.716-3.284-4.415-3.775-1.436-1.394.787-3.62,2.183-2.183l2.233,2.232,4.606-4.606c1.394-1.436,3.62.787,2.182,2.183C854.544,475.985,849.343,482.059,848.434,481.7Z" transform="translate(-843.554 -472.901)"/><path class="b" d="M884.7,480.158H867.6a1.543,1.543,0,1,1,0-3.087h17.1A1.544,1.544,0,0,1,884.7,480.158Z" transform="translate(-850.622 -474.211)"/></g><g transform="translate(837.074 476.37)"><path class="b" d="M848.434,506.449c-1,.211-3.716-3.284-4.415-3.776-1.436-1.394.787-3.619,2.183-2.182l2.233,2.232,4.606-4.606c1.394-1.436,3.62.787,2.182,2.182C854.544,500.737,849.343,506.811,848.434,506.449Z" transform="translate(-843.554 -497.653)"/><path class="b" d="M884.7,504.91H867.6a1.543,1.543,0,1,1,0-3.087h17.1A1.544,1.544,0,0,1,884.7,504.91Z" transform="translate(-850.622 -498.963)"/></g></g></svg>