<svg xmlns="http://www.w3.org/2000/svg" width="16.549" height="19" viewBox="0 0 16.549 19"><defs><style>.a{fill:#fff;stroke:#a2a2a2;stroke-linecap:round;stroke-linejoin:round;stroke-width:1.5px;}</style></defs><g transform="translate(-616.702 -1104.946)"><path class="a" d="M632.2,1139.188c-.44-3.132-4.341-5.055-4.945-5.33s-.352-2.611-.352-2.611l-1.928-1.62-1.929,1.62s.253,2.337-.352,2.611-4.506,2.2-4.945,5.33-.275,3.516-.275,3.516h15S632.642,1142.32,632.2,1139.188Z" transform="translate(0 -19.509)"/><path class="a" d="M636.806,1110.476a5.088,5.088,0,0,1-3.6,4.981,1.191,1.191,0,0,1-.98,0,5.2,5.2,0,0,1-3.6-4.981c0-2.64,1.833-4.78,4.093-4.78S636.806,1107.836,636.806,1110.476Z" transform="translate(-7.735)"/></g></svg>