<svg xmlns="http://www.w3.org/2000/svg" width="85.391" height="83.819" viewBox="0 0 85.391 83.819"><defs><style>.a{fill:#fff;}.b{fill:#595757;}.c{fill:#efefef;}.d{fill:#699b00;}</style></defs><g transform="translate(0 27.774)"><path class="a" d="M108.764,648.082v52.34h61.8v-52.34Z" transform="translate(-106.911 -646.229)"/><path class="b" d="M170.165,701.877h-61.8a1.852,1.852,0,0,1-1.853-1.853v-52.34a1.853,1.853,0,0,1,1.853-1.853h61.8a1.853,1.853,0,0,1,1.853,1.853v52.34A1.852,1.852,0,0,1,170.165,701.877Zm-59.946-3.705h58.093V649.537H110.219Z" transform="translate(-106.514 -645.832)"/></g><path class="c" d="M163.186,673.951a21.508,21.508,0,1,0-21.508,21.507A21.508,21.508,0,0,0,163.186,673.951Z" transform="translate(-108.927 -619.225)"/><g transform="translate(6.495 0)"><g transform="translate(0 5.047)"><path class="a" d="M116.653,620.478v52.34h53.295a8.5,8.5,0,0,0,8.5-8.5V620.478Z" transform="translate(-114.8 -618.625)"/><path class="b" d="M169.55,674.273H116.256a1.853,1.853,0,0,1-1.853-1.852v-52.34a1.853,1.853,0,0,1,1.853-1.853h61.8a1.853,1.853,0,0,1,1.853,1.853v43.837A10.368,10.368,0,0,1,169.55,674.273Zm-51.442-3.705H169.55a6.659,6.659,0,0,0,6.651-6.651V621.933H118.108Z" transform="translate(-114.403 -618.228)"/><path class="d" d="M178.451,630.738v-10.26h-61.8v10.26" transform="translate(-114.8 -618.626)"/><path class="b" d="M178.054,632.193a1.853,1.853,0,0,1-1.853-1.852v-8.408H118.108v8.408a1.853,1.853,0,0,1-3.705,0v-10.26a1.853,1.853,0,0,1,1.853-1.853h61.8a1.853,1.853,0,0,1,1.853,1.853v10.26A1.853,1.853,0,0,1,178.054,632.193Z" transform="translate(-114.403 -618.228)"/></g><g transform="translate(9.72)"><path class="b" d="M128.062,619.955a1.853,1.853,0,0,1-1.853-1.853v-4.152a1.853,1.853,0,0,1,3.705,0V618.1A1.853,1.853,0,0,1,128.062,619.955Z" transform="translate(-126.209 -612.098)"/><path class="b" d="M153.785,619.955a1.853,1.853,0,0,1-1.853-1.853v-4.152a1.853,1.853,0,0,1,3.705,0V618.1A1.853,1.853,0,0,1,153.785,619.955Z" transform="translate(-130.753 -612.098)"/><path class="b" d="M179.507,619.955a1.853,1.853,0,0,1-1.853-1.853v-4.152a1.853,1.853,0,0,1,3.705,0V618.1A1.853,1.853,0,0,1,179.507,619.955Z" transform="translate(-135.297 -612.098)"/></g></g><g transform="translate(19.227 24.695)"><path class="b" d="M134.833,652.025a4.966,4.966,0,1,1,4.966-4.966A4.972,4.972,0,0,1,134.833,652.025Zm0-6.228a1.261,1.261,0,1,0,1.261,1.262A1.263,1.263,0,0,0,134.833,645.8Z" transform="translate(-129.866 -642.092)"/><path class="b" d="M153.116,652.025a4.966,4.966,0,1,1,4.966-4.966A4.972,4.972,0,0,1,153.116,652.025Zm0-6.228a1.261,1.261,0,1,0,1.261,1.262A1.263,1.263,0,0,0,153.116,645.8Z" transform="translate(-133.096 -642.092)"/><path class="b" d="M171.4,652.025a4.966,4.966,0,1,1,4.967-4.966A4.972,4.972,0,0,1,171.4,652.025Zm0-6.228a1.261,1.261,0,1,0,1.262,1.262A1.263,1.263,0,0,0,171.4,645.8Z" transform="translate(-136.326 -642.092)"/><g transform="translate(0 14.326)"><path class="b" d="M134.833,669.426a4.967,4.967,0,1,1,4.966-4.968A4.973,4.973,0,0,1,134.833,669.426Zm0-6.229a1.262,1.262,0,1,0,1.261,1.261A1.263,1.263,0,0,0,134.833,663.2Z" transform="translate(-129.866 -659.492)"/><path class="b" d="M153.116,669.426a4.967,4.967,0,1,1,4.966-4.968A4.973,4.973,0,0,1,153.116,669.426Zm0-6.229a1.262,1.262,0,1,0,1.261,1.261A1.263,1.263,0,0,0,153.116,663.2Z" transform="translate(-133.096 -659.492)"/></g></g><g transform="translate(45.339 13.185)"><g transform="translate(22.998)"><rect class="a" width="5.868" height="13.01" transform="translate(1.852 6.002) rotate(-45.008)"/><path class="b" d="M200.566,645.165a1.852,1.852,0,0,1-1.31-.543l-9.2-9.2a1.851,1.851,0,0,1,0-2.619l4.148-4.149a1.853,1.853,0,0,1,2.621,0l9.2,9.2a1.853,1.853,0,0,1,0,2.62l-4.15,4.15A1.852,1.852,0,0,1,200.566,645.165Zm-6.579-11.052,6.579,6.58,1.53-1.531-6.58-6.578Z" transform="translate(-189.514 -628.112)"/></g><g transform="translate(0 6.424)"><path class="a" d="M164.554,657.3l-.723,10.784,10.784-.722,19.139-19.139-10.061-10.06Z" transform="translate(-161.978 -636.311)"/><path class="b" d="M163.433,669.541a1.853,1.853,0,0,1-1.848-1.977l.723-10.783a1.852,1.852,0,0,1,.539-1.186l19.139-19.138a1.851,1.851,0,0,1,2.619,0l10.061,10.06a1.853,1.853,0,0,1,0,2.62l-19.139,19.139a1.851,1.851,0,0,1-1.186.539l-10.785.722C163.516,669.539,163.475,669.541,163.433,669.541Zm2.525-11.819-.535,7.977,7.976-.534,17.337-17.337-7.441-7.44Z" transform="translate(-161.581 -635.914)"/><path class="b" d="M174.862,671.616a1.847,1.847,0,0,1-1.31-.543l-9.019-9.018a1.852,1.852,0,1,1,2.62-2.619l9.019,9.018a1.853,1.853,0,0,1-1.31,3.162Z" transform="translate(-162.007 -639.973)"/><path class="b" d="M171.539,664.1a1.852,1.852,0,0,1-1.31-3.162l17.5-17.5a1.852,1.852,0,1,1,2.619,2.619l-17.5,17.5A1.844,1.844,0,0,1,171.539,664.1Z" transform="translate(-163.013 -637.148)"/></g><g transform="translate(18.309 2.164)"><rect class="a" width="6.377" height="16.071" transform="translate(1.853 6.361) rotate(-44.997)"/><path class="b" d="M197.034,650.319a1.845,1.845,0,0,1-1.31-.543l-11.364-11.364a1.853,1.853,0,0,1,0-2.62l4.509-4.509a1.854,1.854,0,0,1,2.62,0l11.364,11.365a1.852,1.852,0,0,1,0,2.62l-4.509,4.509A1.845,1.845,0,0,1,197.034,650.319ZM188.29,637.1l8.744,8.745,1.89-1.89-8.744-8.745Z" transform="translate(-183.818 -630.74)"/></g><path class="b" d="M163.831,673.28l5.713-.383-5.33-5.329Z" transform="translate(-161.978 -635.082)"/></g><path class="b" d="M113.879,660.594h-4.688a1.853,1.853,0,0,1,0-3.705h4.688a1.853,1.853,0,0,1,0,3.705Z" transform="translate(-106.66 -620.011)"/></svg>