<svg xmlns="http://www.w3.org/2000/svg" width="36.07" height="37.807" viewBox="0 0 36.07 37.807"><defs><style>.a{fill:none;}.b{fill:#999;}.c{fill:#85a4cf;}</style></defs><path class="a" d="M694.245,404a.981.981,0,1,0,0,1.96h23.273V404Z" transform="translate(-689.416 -400.184)"/><path class="b" d="M713.726,401.327v-5.774a.823.823,0,0,0-.823-.823H688.6a4.628,4.628,0,0,0-4.622,4.622v25.375a4.628,4.628,0,0,0,4.622,4.623h15.332a.823.823,0,0,0,0-1.646H688.6a2.98,2.98,0,0,1-2.976-2.977V399.352a2.98,2.98,0,0,1,2.976-2.976H712.08v.522H688.806a2.657,2.657,0,0,0-2.666,2.462.911.911,0,0,0-.008.116v.095a.876.876,0,0,0,.008.119,2.692,2.692,0,0,0,2.665,2.46H712.08v8.812h1.646Zm-24.92-.823a.981.981,0,1,1,0-1.96H712.08v1.96Z" transform="translate(-683.977 -394.73)"/><path class="b" d="M693.863,415.477v21.958a.823.823,0,1,0,1.646,0V415.477a.823.823,0,1,0-1.646,0Z" transform="translate(-689.795 -406.455)"/><path class="c" d="M746.372,446.626a.822.822,0,0,0-.76-.508h-3.458V435a.823.823,0,0,0-.823-.823H733.92a.823.823,0,0,0-.823.823v11.12H729.64a.823.823,0,0,0-.582,1.4l7.986,7.986a.823.823,0,0,0,1.164,0l7.986-7.986A.822.822,0,0,0,746.372,446.626Z" transform="translate(-710.365 -417.943)"/></svg>