<?xml version="1.0" encoding="utf-8"?>
<!-- Generator: Adobe Illustrator 25.2.0, SVG Export Plug-In . SVG Version: 6.00 Build 0)  -->
<svg version="1.1" id="레이어_1" xmlns="http://www.w3.org/2000/svg" xmlns:xlink="http://www.w3.org/1999/xlink" x="0px"
	 y="0px" viewBox="0 0 329 713" style="enable-background:new 0 0 329 713;" xml:space="preserve">
<style type="text/css">
	.st0{fill:#F8F8F8;}
	.st1{fill:none;stroke:#707070;stroke-dasharray:4;}
	.st2{fill:none;stroke:#707070;}
	.st3{fill:#FFFFFF;}
	.st4{fill:none;stroke:#1C7CC2;}
	.st5{fill:#555555;}
	.st6{font-family:'NanumSquareR';}
	.st7{font-size:16px;}
	.st8{fill:url(#SVGID_1_);}
	.st9{fill:#8DC21F;}
	.st10{fill:url(#SVGID_2_);}
	.st11{fill:#647078;}
	.st12{fill:none;stroke:#35434D;}
	.st13{font-size:13px;}
	.st14{fill:#1C7CC2;}
	.st15{fill:none;stroke:#136CAC;}
	.st16{fill:#707070;}
	.st17{font-size:15px;}
	.st18{fill:#333333;}
	.st19{fill:#CADBE6;}
	.st20{font-size:14px;}
	.st21{fill:#3CA658;}
	.st22{fill:none;stroke:#309149;}
	.st23{fill:#EF8F30;}
	.st24{fill:none;stroke:#EF7D08;}
	.st25{fill:#1F222D;}
	.st26{fill:none;stroke:#1B1D27;}
	.st27{fill:#D2D2D2;}
	.st28{font-size:11px;}
</style>
<g transform="translate(-21 -168)">
	<g transform="translate(80 320)">
		<rect class="st0" width="216" height="380"/>
		<rect x="0.5" y="0.5" class="st1" width="215" height="379"/>
	</g>
	<line class="st2" x1="188.5" y1="282.5" x2="188.5" y2="373.5"/>
	<line class="st2" x1="166.5" y1="581.5" x2="166.5" y2="818.5"/>
	<line class="st2" x1="210.5" y1="589.5" x2="210.5" y2="827.5"/>
	<g transform="translate(128 168)">
		<circle class="st3" cx="60" cy="60" r="60"/>
		<circle class="st4" cx="60" cy="60" r="59.5"/>
	</g>
	<text transform="matrix(1 0 0 1 164.088 250)" class="st5 st6 st7">제주TP</text>
	<g transform="translate(162.633 199.51)">
		<g transform="translate(0)">
			
				<linearGradient id="SVGID_1_" gradientUnits="userSpaceOnUse" x1="-890.6628" y1="858.351" x2="-890.6628" y2="857.448" gradientTransform="matrix(17.484 0 0 -25.95 15596.7861 22276.4688)">
				<stop  offset="0" style="stop-color:#009FE8"/>
				<stop  offset="1" style="stop-color:#1D2087"/>
			</linearGradient>
			<path class="st8" d="M30.9,0.8h-1.5v1.5h1.5V0.8z M31.7,0v1.5h1.5V0H31.7z M28.6,1.5h-1.5V3h1.5V1.5z M26.7,1.9h-1.5v1.5h1.5V1.9
				z M24.9,5.2h1.5V3.7H25V2.2h-1.5v1.5h1.4L24.9,5.2z M28.1,6.4h1.5V5h-1.5V6.4z M30.3,6.1h1.5V4.6h-1.5V6.1z M27.9,8.2h1.5V6.8
				h-1.5V8.2z M29.6,8.1h1.5V6.6h-1.5V8.1z M30.6,2.9h-1.5v1.5h1.5V2.9z M26.7,4.9h1.5V3.4h-1.5V4.9z M26.3,6.7h1.5V5.3h-1.5V6.7z
				 M31.2,4h1.5V2.5h-1.5V4z M26.2,5.4h-1.5V4h-1.5V2.5h-7.5v5.8h4.5V26h6V8.3h1.5V6.9h-1.5L26.2,5.4z"/>
			<path class="st9" d="M0,20h3.9C6.3,20,7,19.4,7,17.4V2.5h6.1v13.9c0,9-3.4,9.5-13.1,9.5L0,20L0,20z"/>
			
				<linearGradient id="SVGID_2_" gradientUnits="userSpaceOnUse" x1="-889.7559" y1="857.6855" x2="-889.7559" y2="856.6855" gradientTransform="matrix(17.1421 0 0 -23.4329 15294.0459 20100.4297)">
				<stop  offset="0" style="stop-color:#009FE8"/>
				<stop  offset="1" style="stop-color:#1D2087"/>
			</linearGradient>
			<path class="st10" d="M42,2.5h-8.8V26h6.1v-6.4h2.6c5.3,0,8.4-3.5,8.4-8.7c0.1-4.5-3.5-8.2-8-8.3C42.3,2.5,42.1,2.5,42,2.5z
				 M39.4,13.8V8.2h2.3c1.4,0,2.5,1.1,2.6,2.4c0,0.1,0,0.1,0,0.2C44.2,13.4,42.8,13.8,39.4,13.8L39.4,13.8z"/>
		</g>
	</g>
	<g transform="translate(21 173)">
		<rect class="st11" width="88" height="110"/>
		<rect x="0.5" y="0.5" class="st12" width="87" height="109"/>
	</g>
	<text transform="matrix(1 0 0 1 38.048 206)" class="st3 st6 st7">중기부 /</text>
	<text transform="matrix(1 0 0 1 35.88 226)" class="st3 st6 st7">제주도청</text>
	<text transform="matrix(1 0 0 1 42.796 246)" class="st3 st6 st13">(통합DB</text>
	<text transform="matrix(1 0 0 1 51.135 266)" class="st3 st6 st13">관리)</text>
	<g transform="translate(103 394)">
		<circle class="st14" cx="85" cy="85" r="85"/>
		<circle class="st15" cx="85" cy="85" r="84.5"/>
	</g>
	<path class="st16" d="M188.5,378l-6.5-10h13L188.5,378z"/>
	<path class="st16" d="M80.5,637L74,627h13L80.5,637z"/>
	<path class="st16" d="M166.5,827l-6.5-10h13L166.5,827z"/>
	<path class="st16" d="M210.5,582l6.5,10h-13L210.5,582z"/>
	<path class="st16" d="M295.5,637l-6.5-10h13L295.5,637z"/>
	<line class="st1" x1="126.5" y1="227.5" x2="109.5" y2="227.5"/>
	<g transform="translate(138 308)">
		<path class="st3" d="M15,0h70c8.3,0,15,6.7,15,15l0,0c0,8.3-6.7,15-15,15H15C6.7,30,0,23.3,0,15l0,0C0,6.7,6.7,0,15,0z"/>
		<path class="st4" d="M15,0.5h70C93,0.5,99.5,7,99.5,15l0,0c0,8-6.5,14.5-14.5,14.5H15C7,29.5,0.5,23,0.5,15l0,0
			C0.5,7,7,0.5,15,0.5z"/>
	</g>
	<g transform="translate(88 768)">
		<path class="st3" d="M15,0h70c8.3,0,15,6.7,15,15l0,0c0,8.3-6.7,15-15,15H15C6.7,30,0,23.3,0,15l0,0C0,6.7,6.7,0,15,0z"/>
		<path class="st2" d="M15,0.5h70C93,0.5,99.5,7,99.5,15l0,0c0,8-6.5,14.5-14.5,14.5H15C7,29.5,0.5,23,0.5,15l0,0
			C0.5,7,7,0.5,15,0.5z"/>
	</g>
	<g transform="translate(196 768)">
		<path class="st3" d="M15,0h70c8.3,0,15,6.7,15,15l0,0c0,8.3-6.7,15-15,15H15C6.7,30,0,23.3,0,15l0,0C0,6.7,6.7,0,15,0z"/>
		<path class="st2" d="M15,0.5h70C93,0.5,99.5,7,99.5,15l0,0c0,8-6.5,14.5-14.5,14.5H15C7,29.5,0.5,23,0.5,15l0,0
			C0.5,7,7,0.5,15,0.5z"/>
	</g>
	<text transform="matrix(1 0 0 1 153 328)" class="st14 st6 st17">관리 / 운영</text>
	<text transform="matrix(1 0 0 1 113 788)" class="st18 st6 st17">DB 제공</text>
	<text transform="matrix(1 0 0 1 218 788)" class="st18 st6 st17">정보활용</text>
	<g transform="translate(142 437)">
		<path class="st3" d="M11.2,0.4h7v13.5c0.1,2.2-0.2,4.3-0.7,6.5c-0.5,1.5-1.5,2.8-2.8,3.8c-1.6,1.1-3.4,1.6-5.3,1.5
			c-1.8,0.1-3.7-0.3-5.3-1c-1.3-0.7-2.3-1.7-2.9-3c-0.7-1.5-1.2-3.2-1.2-4.8l6.7-1c0,0.8,0.1,1.6,0.3,2.4c0.1,0.5,0.4,0.9,0.8,1.3
			c0.3,0.2,0.7,0.3,1.1,0.3c0.7,0,1.4-0.3,1.7-1c0.4-1,0.6-2.1,0.5-3.2L11.2,0.4z"/>
		<path class="st3" d="M22.9,0.4h18.8v5.3H29.9v3.9h10.9v5.1H29.9v4.9H42v5.6H22.9V0.4z"/>
		<path class="st3" d="M60.6,0.4h7v14.8c0,1.4-0.2,2.8-0.6,4.1c-0.4,1.3-1.1,2.4-2,3.4c-0.8,0.9-1.7,1.6-2.8,2.1
			c-1.6,0.6-3.2,0.9-4.9,0.8c-1.2,0-2.4-0.1-3.6-0.3c-1.1-0.1-2.3-0.5-3.3-1c-0.9-0.6-1.8-1.3-2.4-2.1c-0.7-0.8-1.2-1.8-1.5-2.9
			c-0.4-1.4-0.6-2.8-0.6-4.2V0.4h7v15.1c-0.1,1.1,0.3,2.3,1,3.2c1.6,1.5,4.1,1.5,5.7,0c0.7-0.9,1.1-2,1-3.2L60.6,0.4z"/>
		<path class="st3" d="M71,17l6.7-0.5c0.1,1,0.4,1.9,0.9,2.7c0.7,1,1.9,1.6,3.1,1.5c0.8,0.1,1.7-0.2,2.3-0.8
			c0.5-0.5,0.8-1.1,0.8-1.8c0-0.7-0.3-1.3-0.8-1.7c-1.1-0.7-2.3-1.2-3.6-1.4c-3.1-0.8-5.3-1.8-6.6-3c-1.3-1.2-2-3-2-4.8
			c0-2.7,1.6-5.2,4.1-6.3c1.8-0.7,3.7-1.1,5.6-1c2.9,0,5.1,0.6,6.6,1.8c1.6,1.4,2.6,3.5,2.7,5.6l-6.6,0.4c-0.1-0.9-0.5-1.8-1.1-2.4
			c-0.7-0.5-1.5-0.8-2.3-0.8c-0.7,0-1.3,0.2-1.8,0.6c-0.4,0.3-0.6,0.8-0.6,1.4c0,0.4,0.2,0.8,0.5,1.1c0.7,0.5,1.5,0.8,2.4,0.9
			c2.3,0.5,4.5,1.2,6.6,2.2c1.2,0.6,2.2,1.6,2.9,2.7c0.6,1.1,0.9,2.4,0.9,3.7c0,1.5-0.4,3.1-1.2,4.4c-0.8,1.3-2,2.4-3.4,3.1
			c-1.7,0.7-3.6,1.1-5.5,1c-3.9,0-6.5-0.8-8-2.4C72,21.5,71.1,19.3,71,17z"/>
	</g>
	<text transform="matrix(1 0 0 1 174.35 488)" class="st3 st6 st17">제주</text>
	<text transform="matrix(1 0 0 1 126.575 510)" class="st3 st6 st17">연구장비활용서비스</text>
	<path class="st19" d="M142.7,391.4l-10.6-35.2l-8.1,9c0,0-2.3-1.8-5.8-4.9c-13.6-11.8-46.2-42.2-42.6-60.5c0,0-26.7,25.9,37.1,78.6
		l-6.6,8.5L142.7,391.4z"/>
	<text transform="matrix(1 0 0 1 30 327)" class="st18 st6 st20">ZEUS,</text>
	<text transform="matrix(1 0 0 1 30 347)" class="st18 st6 st20">E-Tube</text>
	<text transform="matrix(1 0 0 1 30 367)" class="st18 st6 st20">연계</text>
	<g transform="translate(26 637)">
		<circle class="st21" cx="55" cy="55" r="55"/>
		<circle class="st22" cx="55" cy="55" r="54.5"/>
	</g>
	<g transform="translate(240 637)">
		<circle class="st23" cx="55" cy="55" r="55"/>
		<circle class="st24" cx="55" cy="55" r="54.5"/>
	</g>
	<text transform="matrix(1 0 0 1 32 476)" class="st5 st6 st13">실무자</text>
	<text transform="matrix(1 0 0 1 32 494)" class="st5 st6 st13">협의회</text>
	<text transform="matrix(1 0 0 1 307 476)" class="st5 st6 st13">실무자</text>
	<text transform="matrix(1 0 0 1 307 494)" class="st5 st6 st13">협의회</text>
	<text transform="matrix(1 0 0 1 215 729)" class="st5 st6 st13">정보</text>
	<text transform="matrix(1 0 0 1 215 747)" class="st5 st6 st13">교류</text>
	<text transform="matrix(1 0 0 1 51.88 688)" class="st3 st6 st7">지역혁신</text>
	<text transform="matrix(1 0 0 1 66.44 710)" class="st3 st6 st7">기관</text>
	<text transform="matrix(1 0 0 1 280.4399 688)" class="st3 st6 st7">대학</text>
	<text transform="matrix(1 0 0 1 273.16 710)" class="st3 st6 st7">연구소</text>
	<g transform="translate(59 837)">
		<path class="st25" d="M22,0h216c12.2,0,22,9.8,22,22l0,0c0,12.2-9.8,22-22,22H22C9.8,44,0,34.2,0,22l0,0C0,9.8,9.8,0,22,0z"/>
		<path class="st26" d="M22,0.5h216c11.9,0,21.5,9.6,21.5,21.5l0,0c0,11.9-9.6,21.5-21.5,21.5H22C10.1,43.5,0.5,33.9,0.5,22l0,0
			C0.5,10.1,10.1,0.5,22,0.5z"/>
	</g>
	<text transform="matrix(1 0 0 1 104.92 866)" class="st3 st6 st7">지역내 연구장비 활용기업</text>
	<g transform="translate(100.453 622.599) rotate(-60)">
		
			<rect x="11" y="16.2" transform="matrix(-1 2.729302e-06 -2.729302e-06 -1 76.0364 37.7692)" class="st27" width="54" height="5.4"/>
		<path class="st27" d="M1.1,18.9l9.9-7.2l0,14.4L1.1,18.9z"/>
	</g>
	<g transform="translate(157.178 581.657) rotate(120)">
		<rect x="6.7" y="21.5" class="st27" width="54" height="5.4"/>
		<path class="st27" d="M-3.2,24.2L6.7,17l0,14.4L-3.2,24.2z"/>
	</g>
	<g transform="translate(204.453 574.256)">
		<g transform="translate(49.253 62.543) rotate(-120)">
			
				<rect x="34.2" y="-19.8" transform="matrix(-2.341061e-06 -1 1 -2.341061e-06 29.7031 44.103)" class="st27" width="5.4" height="54"/>
			<path class="st27" d="M0,7.2L9.9,0l0,14.4L0,7.2z"/>
		</g>
		<g transform="translate(39.472 -8.799) rotate(60)">
			
				<rect x="34.2" y="-19.8" transform="matrix(2.341061e-06 1 -1 2.341061e-06 44.1029 -29.703)" class="st27" width="5.4" height="54"/>
			<path class="st27" d="M0,7.2L9.9,0l0,14.4L0,7.2z"/>
		</g>
	</g>
	<text transform="matrix(1 0 0 1 95 565)" class="st5 st6 st28">장비</text>
	<text transform="matrix(1 0 0 1 95 580)" class="st5 st6 st28">등록 /</text>
	<text transform="matrix(1 0 0 1 95 595)" class="st5 st6 st28">관리</text>
	<text transform="matrix(1 0 0 1 260 565)" class="st5 st6 st28">장비</text>
	<text transform="matrix(1 0 0 1 260 580)" class="st5 st6 st28">등록 /</text>
	<text transform="matrix(1 0 0 1 260 595)" class="st5 st6 st28">관리</text>
	<text transform="matrix(1 0 0 1 137 623)" class="st5 st6 st28">활용</text>
	<text transform="matrix(1 0 0 1 137 638)" class="st5 st6 st28">현황</text>
	<text transform="matrix(1 0 0 1 220 623)" class="st5 st6 st28">활용</text>
	<text transform="matrix(1 0 0 1 220 638)" class="st5 st6 st28">현황</text>
</g>
</svg>
