<svg xmlns="http://www.w3.org/2000/svg" xmlns:xlink="http://www.w3.org/1999/xlink" width="1020" height="714" viewBox="0 0 1020 714"><defs><style>.a,.f,.g,.h,.l,.o,.p{fill:#fff;}.a,.l,.y{font-size:20px;}.a{font-family:SourceHanSansKR-Regular, Source Han Sans KR;}.b{fill:#f8f8f8;}.b,.n,.p,.w{stroke:#707070;}.b,.w{stroke-dasharray:4;}.c,.q{fill:#1c7cc2;}.c{stroke:#136cac;}.d{fill:#3ca658;stroke:#309149;}.e{fill:#ef8f30;stroke:#ef7d08;}.aa,.ab,.g{font-size:18px;}.aa,.g,.h,.i,.l,.q,.r,.s,.y{font-family:NanumSquareR, NanumSquare;}.h{font-size:22px;}.i,.r,.y{fill:#555;}.i{font-size:15px;}.aa,.i,.q,.r,.s{letter-spacing:0.02em;}.j{fill:#1f222d;stroke:#1b1d27;}.k{fill:#647078;stroke:#35434d;}.m{fill:#707070;}.ad,.n,.w{fill:none;}.o{stroke:#1c7cc2;}.q,.s{font-size:17px;}.r{font-size:16px;}.aa,.s{fill:#333;}.t{fill:url(#a);}.u{fill:#8dc21f;}.v{fill:url(#b);}.x{fill:#d2d2d2;}.z{fill:#cadbe6;}.ac{stroke:none;}</style><linearGradient id="a" x1="0.5" y1="0.087" x2="0.5" y2="0.99" gradientUnits="objectBoundingBox"><stop offset="0" stop-color="#009fe8"/><stop offset="1" stop-color="#1d2087"/></linearGradient><linearGradient id="b" x1="0.5" y1="-0.005" x2="0.5" y2="0.995" xlink:href="#a"/></defs><g transform="translate(-173 -539)"><text class="a" transform="translate(261 1191)"><tspan x="-36.8" y="0">지역혁신</tspan><tspan x="-18.4" y="28">기관</tspan></text><g class="b" transform="translate(253 749)"><rect class="ac" width="860" height="370"/><rect class="ad" x="0.5" y="0.5" width="859" height="369"/></g><g class="c" transform="translate(563 819)"><circle class="ac" cx="120" cy="120" r="120"/><circle class="ad" cx="120" cy="120" r="119.5"/></g><g class="d" transform="translate(173 859)"><circle class="ac" cx="80" cy="80" r="80"/><circle class="ad" cx="80" cy="80" r="79.5"/></g><g class="e" transform="translate(1033 859)"><circle class="ac" cx="80" cy="80" r="80"/><circle class="ad" cx="80" cy="80" r="79.5"/></g><g transform="translate(-36.44 742.195)"><path class="f" d="M678.579,148.276h8.227V164.05a26.937,26.937,0,0,1-.807,7.56A8.578,8.578,0,0,1,682.756,176a10.235,10.235,0,0,1-6.243,1.8,13.374,13.374,0,0,1-6.234-1.188,8.179,8.179,0,0,1-3.416-3.476,14.033,14.033,0,0,1-1.423-5.655l7.847-1.168a10.622,10.622,0,0,0,.309,2.852,3.089,3.089,0,0,0,.978,1.5,2.1,2.1,0,0,0,1.341.377,2.165,2.165,0,0,0,2.021-1.118,8.044,8.044,0,0,0,.643-3.769Z" transform="translate(0 0)"/><path class="f" d="M692.261,148.276h22v6.2H700.487V159.1h12.776v5.926H700.487v5.728h14.171v6.58h-22.4Z" transform="translate(0 0)"/><path class="f" d="M736.367,148.276h8.191v17.3a15.815,15.815,0,0,1-.734,4.859,10.671,10.671,0,0,1-2.3,4,9.152,9.152,0,0,1-3.289,2.4,15.275,15.275,0,0,1-5.744.969,33.035,33.035,0,0,1-4.231-.3,10.366,10.366,0,0,1-3.833-1.177,9.827,9.827,0,0,1-2.818-2.5,9.469,9.469,0,0,1-1.749-3.346,18.851,18.851,0,0,1-.76-4.907v-17.3h8.19v17.71a5.339,5.339,0,0,0,1.2,3.71,4.857,4.857,0,0,0,6.669.02,5.322,5.322,0,0,0,1.205-3.73Z" transform="translate(0 0)"/><path class="f" d="M748.562,167.712l7.811-.534a6.891,6.891,0,0,0,1.033,3.166,4.2,4.2,0,0,0,3.624,1.761,3.787,3.787,0,0,0,2.709-.9,2.791,2.791,0,0,0,.951-2.088,2.76,2.76,0,0,0-.905-2.018q-.906-.89-4.2-1.683-5.4-1.324-7.7-3.521a7.379,7.379,0,0,1-2.319-5.6,8.021,8.021,0,0,1,4.756-7.351,15.428,15.428,0,0,1,6.534-1.137q5.091,0,7.764,2.067t3.18,6.581l-7.737.494a4.7,4.7,0,0,0-1.3-2.849,3.926,3.926,0,0,0-2.727-.89,3.1,3.1,0,0,0-2.157.663,2.105,2.105,0,0,0-.725,1.612,1.669,1.669,0,0,0,.6,1.248,6.394,6.394,0,0,0,2.755,1.068,32.434,32.434,0,0,1,7.711,2.563,8.375,8.375,0,0,1,3.388,3.215,8.73,8.73,0,0,1,1.06,4.294,9.817,9.817,0,0,1-1.413,5.145,9.078,9.078,0,0,1-3.95,3.572,14.784,14.784,0,0,1-6.4,1.217q-6.777,0-9.386-2.849A11.736,11.736,0,0,1,748.562,167.712Z" transform="translate(0)"/></g><text class="g" transform="translate(683 953)"><tspan x="-51.39" y="0">제주 공동활용</tspan><tspan x="-92.34" y="28">연구시설장비 통합플랫폼</tspan></text><text class="h" transform="translate(253 935)"><tspan x="-40.04" y="0">지역혁신</tspan><tspan x="-20.02" y="28">기관</tspan></text><text class="h" transform="translate(1113 935)"><tspan x="-20.02" y="0">대학</tspan><tspan x="-30.03" y="28">연구소</tspan></text><text class="i" transform="translate(400 887)"><tspan x="0" y="0">장비등록 / 관리</tspan></text><text class="i" transform="translate(869 887)"><tspan x="0" y="0">장비등록 / 관리</tspan></text><text class="i" transform="translate(413 984)"><tspan x="0" y="0">활용현황</tspan></text><text class="i" transform="translate(882 984)"><tspan x="0" y="0">활용현황</tspan></text><g class="j" transform="translate(483 1193)"><rect class="ac" width="400" height="60" rx="30"/><rect class="ad" x="0.5" y="0.5" width="399" height="59" rx="29.5"/></g><g class="k" transform="translate(257 583)"><rect class="ac" width="260" height="80"/><rect class="ad" x="0.5" y="0.5" width="259" height="79"/></g><text class="l" transform="translate(683 1232)"><tspan x="-105.1" y="0">지역내 연구장비 활용기업</tspan></text><path class="m" d="M7.5,0,15,12H0Z" transform="translate(261 859) rotate(180)"/><path class="m" d="M7.5,0,15,12H0Z" transform="translate(691 805) rotate(180)"/><path class="m" d="M7.5,0,15,12H0Z" transform="translate(627 1172) rotate(180)"/><path class="m" d="M7.5,0,15,12H0Z" transform="translate(752 1068.5)"/><path class="m" d="M7.5,0,15,12H0Z" transform="translate(1120 859) rotate(180)"/><line class="n" y2="90" transform="translate(683.5 703.5)"/><line class="n" y2="92" transform="translate(619.5 1068.5)"/><line class="n" y2="92" transform="translate(759.5 1172) rotate(180)"/><g class="o" transform="translate(625 734)"><rect class="ac" width="120" height="30" rx="15"/><rect class="ad" x="0.5" y="0.5" width="119" height="29" rx="14.5"/></g><g class="p" transform="translate(565 1104)"><rect class="ac" width="110" height="30" rx="15"/><rect class="ad" x="0.5" y="0.5" width="109" height="29" rx="14.5"/></g><g class="p" transform="translate(814 1134) rotate(180)"><rect class="ac" width="110" height="30" rx="15"/><rect class="ad" x="0.5" y="0.5" width="109" height="29" rx="14.5"/></g><text class="q" transform="translate(646 754)"><tspan x="0" y="0">관리 / 운영</tspan></text><text class="r" transform="translate(363 736)"><tspan x="0" y="0">실무자협의회</tspan></text><text class="r" transform="translate(913 736)"><tspan x="0" y="0">실무자협의회</tspan></text><text class="r" transform="translate(943 1145)"><tspan x="0" y="0">정보교류</tspan></text><text class="s" transform="translate(591 1124)"><tspan x="0" y="0">DB 제공</tspan></text><text class="s" transform="translate(728 1124)"><tspan x="0" y="0">정보활용</tspan></text><g class="o" transform="translate(598 539)"><circle class="ac" cx="85" cy="85" r="85"/><circle class="ad" cx="85" cy="85" r="84.5"/></g><g transform="translate(646.89 587.974)"><g transform="translate(0)"><path class="t" d="M229,74.559h-2.138v2.077H229Zm1.125-1.109v2.077h2.142V73.45ZM225.673,75.6h-2.14v2.075h2.14Zm-2.681.525h-2.14V78.2h2.14ZM220.4,80.817h2.138V78.739h-2.018V76.662h-2.136v2.075H220.4Zm4.6,1.831h2.14V80.571h-2.14Zm3.084-.535h2.14V80.036h-2.14Zm-3.372,3.067h2.136V83.1h-2.136Zm2.467-.2h2.136V82.9h-2.136Zm1.4-7.43h-2.142v2.075h2.142Zm-5.594,2.862h2.136V78.328h-2.136Zm-.582,2.654h2.142V80.984h-2.142Zm7.091-3.9h2.14V77.079H229.5Zm-7.209,2.032h-2.14V79.111h-2.14V77.034H207.32v8.307h6.446v25.133h8.525V85.343h2.138V83.268h-2.138Z" transform="translate(-184.921 -73.45)"/><path class="u" d="M93.452,116.861h5.5c3.523,0,4.481-.856,4.481-3.73V91.93H112.2v19.793c0,12.894-4.884,13.6-18.746,13.6v-8.46Z" transform="translate(-93.45 -88.295)"/><path class="v" d="M346.947,91.76H334.43v33.425h8.759v-9.149h3.653c7.557,0,12.038-5.036,12.038-12.387A11.635,11.635,0,0,0,346.947,91.76Zm-3.755,16.1V99.921h3.25a3.584,3.584,0,0,1,3.678,3.726C350.119,107.235,348.125,107.827,343.191,107.864Z" transform="translate(-287.027 -88.158)"/></g></g><line class="w" x1="81" transform="translate(517.5 623.5)"/><g transform="translate(-15 4)"><rect class="x" width="140" height="10" transform="translate(397 897)"/><path class="x" d="M14,0,28,20H0Z" transform="translate(377 916) rotate(-90)"/></g><g transform="translate(454 4)"><rect class="x" width="140" height="10" transform="translate(397 897)"/><path class="x" d="M14,0,28,20H0Z" transform="translate(377 916) rotate(-90)"/></g><g transform="translate(909 1851) rotate(180)"><rect class="x" width="140" height="10" transform="translate(397 897)"/><path class="x" d="M14,0,28,20H0Z" transform="translate(377 916) rotate(-90)"/></g><g transform="translate(1378 1851) rotate(180)"><rect class="x" width="140" height="10" transform="translate(397 897)"/><path class="x" d="M14,0,28,20H0Z" transform="translate(377 916) rotate(-90)"/></g><text class="y" transform="translate(683 657)"><tspan x="-29.89" y="0">제주TP</tspan></text><path class="z" d="M413.393,247.712,377.95,289.117l21.348.516s.122,3.905,0,10.234c-.489,24.254-4.646,84.111-33.4,96.289,0,0,65.341,5.066,64.225-106.3l18.944-.594Z" transform="matrix(-0.643, 0.766, -0.766, -0.643, 1040.281, 654.827)"/><text class="aa" transform="translate(417 704)"><tspan x="0" y="0">ZEUS, E-Tube 연계</tspan></text><text class="l" transform="translate(387 617)"><tspan x="-72.59" y="0">중기부 / 제주도청</tspan><tspan class="ab"><tspan x="-49.941" y="26">(통합DB관리)</tspan></tspan></text></g></svg>