<svg xmlns="http://www.w3.org/2000/svg" width="120" height="110" viewBox="0 0 120 110"><defs><style>.a{fill:#1c7cc2;}.b{fill:#e8e8e8;}.c{fill:#699b00;}</style></defs><g transform="translate(-346.633 -206.72)"><g transform="translate(346.633 222.525)"><g transform="translate(4.632)"><path class="a" d="M383.481,254.323a15.9,15.9,0,1,1,15.9-15.9A15.916,15.916,0,0,1,383.481,254.323Zm0-28.3a12.4,12.4,0,1,0,12.4,12.4A12.413,12.413,0,0,0,383.481,226.025Z" transform="translate(-351.265 -222.525)"/><path class="a" d="M353.015,306.716a1.75,1.75,0,0,1-1.75-1.75v-26.7a22.393,22.393,0,0,1,22.368-22.369h19.693A22.4,22.4,0,0,1,415.7,278.263v23.871a1.75,1.75,0,0,1-3.5,0V278.263a18.891,18.891,0,0,0-18.871-18.869H373.633a18.889,18.889,0,0,0-18.868,18.869v26.7A1.751,1.751,0,0,1,353.015,306.716Z" transform="translate(-351.265 -221.085)"/><g transform="translate(15.784 56.327)"><path class="a" d="M368.8,298.218a1.751,1.751,0,0,1-1.75-1.75V279.5a1.75,1.75,0,0,1,3.5,0v16.97A1.751,1.751,0,0,1,368.8,298.218Z" transform="translate(-367.049 -277.748)"/></g><path class="a" d="M382.6,315.005H361.2a9.945,9.945,0,0,1-9.933-9.934,1.75,1.75,0,0,1,3.5,0,6.44,6.44,0,0,0,6.433,6.434h21.4a6.433,6.433,0,1,0,0-12.866H368.438a1.75,1.75,0,0,1,0-3.5H382.6a9.933,9.933,0,1,1,0,19.866Z" transform="translate(-351.265 -221.085)"/><g transform="translate(38.557 48.888)"><path class="b" d="M440.339,313.53H395.006l15.11-41.808H455.45Z" transform="translate(-387.708 -269.973)"/><path class="c" d="M440.339,315.28H388.458a1.749,1.749,0,0,1-1.646-2.345l15.11-41.807a1.751,1.751,0,0,1,1.646-1.155H455.45a1.749,1.749,0,0,1,1.646,2.344l-15.111,41.808A1.751,1.751,0,0,1,440.339,315.28Zm-49.388-3.5h48.16l13.846-38.307H404.8Z" transform="translate(-386.708 -269.973)"/><path class="c" d="M426.039,300.488a5.638,5.638,0,0,1-2.371-.514,6.113,6.113,0,0,1-3.3-4.2,8.64,8.64,0,0,1,.624-5.614,7.831,7.831,0,0,1,6.824-4.863,5.632,5.632,0,0,1,2.372.515c3.272,1.505,4.473,5.907,2.677,9.812A7.828,7.828,0,0,1,426.039,300.488Zm1.774-11.69a4.484,4.484,0,0,0-3.645,2.826,5.206,5.206,0,0,0-.4,3.324,2.671,2.671,0,0,0,1.365,1.846c1.479.682,3.607-.579,4.552-2.632.972-2.115.532-4.483-.961-5.17A2.159,2.159,0,0,0,427.813,288.8Z" transform="translate(-386.708 -269.973)"/></g></g><path class="c" d="M389.2,315.28H348.383a1.75,1.75,0,1,1,0-3.5H389.2a1.75,1.75,0,0,1,0,3.5Z" transform="translate(-346.633 -221.085)"/></g><g transform="translate(412.142 206.72)"><path class="b" d="M461.769,227.984a19.515,19.515,0,0,0-19.515-19.514H430.293a19.5,19.5,0,0,0-.926,38.983l6.906,14.453,6.906-14.453A19.5,19.5,0,0,0,461.769,227.984Z" transform="translate(-409.028 -206.72)"/><path class="c" d="M436.273,263.656a1.751,1.751,0,0,1-1.579-.995l-6.467-13.535a21.253,21.253,0,0,1,2.066-42.406h11.961a21.253,21.253,0,0,1,2.066,42.406l-6.467,13.535A1.751,1.751,0,0,1,436.273,263.656Zm-5.98-53.436a17.752,17.752,0,0,0-.843,35.485,1.749,1.749,0,0,1,1.5.994l5.327,11.148L441.6,246.7a1.749,1.749,0,0,1,1.5-.994,17.752,17.752,0,0,0-.843-35.485Z" transform="translate(-409.028 -206.72)"/></g></g></svg>