<?xml version="1.0" encoding="utf-8"?>
<!-- Generator: Adobe Illustrator 25.2.0, SVG Export Plug-In . SVG Version: 6.00 Build 0)  -->
<svg version="1.1" id="레이어_1" xmlns="http://www.w3.org/2000/svg" xmlns:xlink="http://www.w3.org/1999/xlink" x="0px"
	 y="0px" viewBox="0 0 1020 714" style="enable-background:new 0 0 1020 714;" xml:space="preserve">
<style type="text/css">
	.st0{fill:#FFFFFF;}
	.st1{font-family:'SourceHanSansKR-Regular-KSCpc-EUC-H';}
	.st2{font-size:20px;}
	.st3{fill:#F8F8F8;}
	.st4{fill:none;stroke:#707070;stroke-dasharray:4;}
	.st5{fill:#1C7CC2;}
	.st6{fill:none;stroke:#136CAC;}
	.st7{fill:#3CA658;}
	.st8{fill:none;stroke:#309149;}
	.st9{fill:#EF8F30;}
	.st10{fill:none;stroke:#EF7D08;}
	.st11{font-family:'NanumSquareR';}
	.st12{font-size:18px;}
	.st13{font-size:22px;}
	.st14{fill:#555555;}
	.st15{font-size:15px;}
	.st16{fill:#1F222D;}
	.st17{fill:none;stroke:#1B1D27;}
	.st18{fill:#647078;}
	.st19{fill:none;stroke:#35434D;}
	.st20{fill:#707070;}
	.st21{fill:none;stroke:#707070;}
	.st22{fill:none;stroke:#1C7CC2;}
	.st23{font-size:17px;}
	.st24{font-size:16px;}
	.st25{fill:#333333;}
	.st26{fill:url(#SVGID_1_);}
	.st27{fill:#8DC21F;}
	.st28{fill:url(#SVGID_2_);}
	.st29{fill:#D2D2D2;}
	.st30{fill:#CADBE6;}
</style>
<g transform="translate(-173 -539)">
	<text transform="matrix(1 0 0 1 224.2 1191)" class="st0 st1 st2">지역혁신</text>
	<text transform="matrix(1 0 0 1 242.6 1219)" class="st0 st1 st2">기관</text>
	<g transform="translate(253 749)">
		<rect class="st3" width="860" height="370"/>
		<rect x="0.5" y="0.5" class="st4" width="859" height="369"/>
	</g>
	<g transform="translate(563 819)">
		<circle class="st5" cx="120" cy="120" r="120"/>
		<circle class="st6" cx="120" cy="120" r="119.5"/>
	</g>
	<g transform="translate(173 859)">
		<circle class="st7" cx="80" cy="80" r="80"/>
		<circle class="st8" cx="80" cy="80" r="79.5"/>
	</g>
	<g transform="translate(1033 859)">
		<circle class="st9" cx="80" cy="80" r="80"/>
		<circle class="st10" cx="80" cy="80" r="79.5"/>
	</g>
	<g transform="translate(-36.44 742.195)">
		<path class="st0" d="M678.6,148.3h8.2v15.8c0.1,2.5-0.2,5.1-0.8,7.6c-0.6,1.8-1.7,3.3-3.2,4.4c-1.8,1.3-4,1.9-6.2,1.8
			c-2.1,0.1-4.3-0.3-6.2-1.2c-1.5-0.8-2.7-2-3.4-3.5c-0.9-1.8-1.3-3.7-1.4-5.7l7.8-1.2c0,1,0.1,1.9,0.3,2.9c0.2,0.6,0.5,1.1,1,1.5
			c0.4,0.3,0.9,0.4,1.3,0.4c0.8,0,1.6-0.4,2-1.1c0.5-1.2,0.7-2.5,0.6-3.8L678.6,148.3z"/>
		<path class="st0" d="M692.3,148.3h22v6.2h-13.8v4.6h12.8v5.9h-12.8v5.7h14.2v6.6h-22.4L692.3,148.3z"/>
		<path class="st0" d="M736.4,148.3h8.2v17.3c0,1.6-0.2,3.3-0.7,4.9c-0.5,1.5-1.3,2.9-2.3,4c-0.9,1-2,1.9-3.3,2.4
			c-1.8,0.7-3.8,1-5.7,1c-1.4,0-2.8-0.1-4.2-0.3c-1.3-0.1-2.6-0.5-3.8-1.2c-1.1-0.6-2-1.5-2.8-2.5c-0.8-1-1.4-2.1-1.7-3.3
			c-0.5-1.6-0.7-3.2-0.8-4.9v-17.3h8.2V166c-0.1,1.3,0.3,2.7,1.2,3.7c1.9,1.8,4.8,1.8,6.7,0c0.9-1,1.3-2.4,1.2-3.7L736.4,148.3z"/>
		<path class="st0" d="M748.6,167.7l7.8-0.5c0.1,1.1,0.4,2.2,1,3.2c0.8,1.2,2.2,1.8,3.6,1.8c1,0.1,2-0.3,2.7-0.9
			c0.6-0.5,0.9-1.3,1-2.1c0-0.8-0.3-1.5-0.9-2c-0.6-0.6-2-1.2-4.2-1.7c-3.6-0.9-6.2-2.1-7.7-3.5c-1.5-1.4-2.4-3.5-2.3-5.6
			c0-3.2,1.9-6.1,4.8-7.4c2.1-0.8,4.3-1.2,6.5-1.1c3.4,0,6,0.7,7.8,2.1s2.8,3.6,3.2,6.6l-7.7,0.5c-0.1-1.1-0.6-2.1-1.3-2.8
			c-0.8-0.6-1.7-0.9-2.7-0.9c-0.8-0.1-1.5,0.2-2.2,0.7c-0.5,0.4-0.7,1-0.7,1.6c0,0.5,0.2,0.9,0.6,1.2c0.8,0.6,1.8,0.9,2.8,1.1
			c2.7,0.5,5.3,1.4,7.7,2.6c1.4,0.7,2.6,1.8,3.4,3.2c0.7,1.3,1.1,2.8,1.1,4.3c0,1.8-0.5,3.6-1.4,5.1c-0.9,1.6-2.3,2.8-4,3.6
			c-2,0.9-4.2,1.3-6.4,1.2c-4.5,0-7.6-0.9-9.4-2.8C749.7,173,748.7,170.4,748.6,167.7z"/>
	</g>
	<text transform="matrix(1 0 0 1 631.61 953)" class="st0 st11 st12">제주 공동활용</text>
	<text transform="matrix(1 0 0 1 590.66 981)" class="st0 st11 st12">연구시설장비 통합플랫폼</text>
	<text transform="matrix(1 0 0 1 212.96 935)" class="st0 st11 st13">지역혁신</text>
	<text transform="matrix(1 0 0 1 232.98 963)" class="st0 st11 st13">기관</text>
	<text transform="matrix(1 0 0 1 1092.98 935)" class="st0 st11 st13">대학</text>
	<text transform="matrix(1 0 0 1 1082.97 963)" class="st0 st11 st13">연구소</text>
	<text transform="matrix(1 0 0 1 400 887)" class="st14 st11 st15">장비등록 / 관리</text>
	<text transform="matrix(1 0 0 1 869 887)" class="st14 st11 st15">장비등록 / 관리</text>
	<text transform="matrix(1 0 0 1 413 984)" class="st14 st11 st15">활용현황</text>
	<text transform="matrix(1 0 0 1 882 984)" class="st14 st11 st15">활용현황</text>
	<g transform="translate(483 1193)">
		<path class="st16" d="M30,0h340c16.6,0,30,13.4,30,30l0,0c0,16.6-13.4,30-30,30H30C13.4,60,0,46.6,0,30l0,0C0,13.4,13.4,0,30,0z"
			/>
		<path class="st17" d="M30,0.5h340c16.3,0,29.5,13.2,29.5,29.5l0,0c0,16.3-13.2,29.5-29.5,29.5H30C13.7,59.5,0.5,46.3,0.5,30l0,0
			C0.5,13.7,13.7,0.5,30,0.5z"/>
	</g>
	<g transform="translate(257 583)">
		<rect class="st18" width="260" height="80"/>
		<rect x="0.5" y="0.5" class="st19" width="259" height="79"/>
	</g>
	<text transform="matrix(1 0 0 1 577.9 1232)" class="st0 st11 st2">지역내 연구장비 활용기업</text>
	<path class="st20" d="M253.5,859l-7.5-12h15L253.5,859z"/>
	<path class="st20" d="M683.5,805l-7.5-12h15L683.5,805z"/>
	<path class="st20" d="M619.5,1172l-7.5-12h15L619.5,1172z"/>
	<path class="st20" d="M759.5,1068.5l7.5,12h-15L759.5,1068.5z"/>
	<path class="st20" d="M1112.5,859l-7.5-12h15L1112.5,859z"/>
	<line class="st21" x1="683.5" y1="703.5" x2="683.5" y2="793.5"/>
	<line class="st21" x1="619.5" y1="1068.5" x2="619.5" y2="1160.5"/>
	<line class="st21" x1="759.5" y1="1172" x2="759.5" y2="1080"/>
	<g transform="translate(625 734)">
		<path class="st0" d="M15,0h90c8.3,0,15,6.7,15,15l0,0c0,8.3-6.7,15-15,15H15C6.7,30,0,23.3,0,15l0,0C0,6.7,6.7,0,15,0z"/>
		<path class="st22" d="M15,0.5h90c8,0,14.5,6.5,14.5,14.5l0,0c0,8-6.5,14.5-14.5,14.5H15C7,29.5,0.5,23,0.5,15l0,0
			C0.5,7,7,0.5,15,0.5z"/>
	</g>
	<g transform="translate(565 1104)">
		<path class="st0" d="M15,0h80c8.3,0,15,6.7,15,15l0,0c0,8.3-6.7,15-15,15H15C6.7,30,0,23.3,0,15l0,0C0,6.7,6.7,0,15,0z"/>
		<path class="st21" d="M15,0.5h80c8,0,14.5,6.5,14.5,14.5l0,0c0,8-6.5,14.5-14.5,14.5H15C7,29.5,0.5,23,0.5,15l0,0
			C0.5,7,7,0.5,15,0.5z"/>
	</g>
	<g transform="translate(814 1134) rotate(180)">
		<path class="st0" d="M15,0h80c8.3,0,15,6.7,15,15l0,0c0,8.3-6.7,15-15,15H15C6.7,30,0,23.3,0,15l0,0C0,6.7,6.7,0,15,0z"/>
		<path class="st21" d="M15,0.5h80c8,0,14.5,6.5,14.5,14.5l0,0c0,8-6.5,14.5-14.5,14.5H15C7,29.5,0.5,23,0.5,15l0,0
			C0.5,7,7,0.5,15,0.5z"/>
	</g>
	<text transform="matrix(1 0 0 1 646 754)" class="st5 st11 st23">관리 / 운영</text>
	<text transform="matrix(1 0 0 1 363 736)" class="st14 st11 st24">실무자협의회</text>
	<text transform="matrix(1 0 0 1 913 736)" class="st14 st11 st24">실무자협의회</text>
	<text transform="matrix(1 0 0 1 943 1145)" class="st14 st11 st24">정보교류</text>
	<text transform="matrix(1 0 0 1 591 1124)" class="st25 st11 st23">DB 제공</text>
	<text transform="matrix(1 0 0 1 728 1124)" class="st25 st11 st23">정보활용</text>
	<g transform="translate(598 539)">
		<circle class="st0" cx="85" cy="85" r="85"/>
		<circle class="st22" cx="85" cy="85" r="84.5"/>
	</g>
	<g transform="translate(646.89 587.974)">
		<g transform="translate(0)">
			
				<linearGradient id="SVGID_1_" gradientUnits="userSpaceOnUse" x1="-904.3918" y1="844.0233" x2="-904.3918" y2="843.1203" gradientTransform="matrix(24.947 0 0 -37.024 22596.7285 31252.3398)">
				<stop  offset="0" style="stop-color:#009FE8"/>
				<stop  offset="1" style="stop-color:#1D2087"/>
			</linearGradient>
			<path class="st26" d="M44.1,1.1h-2.1v2.1h2.1V1.1z M45.2,0v2.1h2.1V0H45.2z M40.8,2.2h-2.1v2.1h2.1V2.2z M38.1,2.7h-2.1v2.1h2.1
				V2.7z M35.5,7.4h2.1V5.3h-2V3.2h-2.1v2.1h2V7.4z M40.1,9.2h2.1V7.1h-2.1V9.2z M43.2,8.7h2.1V6.6h-2.1V8.7z M39.8,11.7h2.1V9.7
				h-2.1V11.7z M42.3,11.5h2.1V9.5h-2.1V11.5z M43.7,4.1h-2.1v2.1h2.1V4.1z M38.1,7h2.1V4.9h-2.1V7z M37.5,9.6h2.1V7.5h-2.1V9.6z
				 M44.6,5.7h2.1V3.6h-2.1L44.6,5.7z M37.4,7.7h-2.1V5.7h-2.1V3.6H22.4v8.3h6.4V37h8.5V11.9h2.1V9.8h-2.1L37.4,7.7z"/>
			<path class="st27" d="M0,28.6h5.5c3.5,0,4.5-0.9,4.5-3.7V3.6h8.8v19.8C18.8,36.3,13.9,37,0,37L0,28.6L0,28.6z"/>
			
				<linearGradient id="SVGID_2_" gradientUnits="userSpaceOnUse" x1="-904.0282" y1="843.5866" x2="-904.0282" y2="842.5866" gradientTransform="matrix(24.4529 0 0 -33.4289 22165.75 28203.5918)">
				<stop  offset="0" style="stop-color:#009FE8"/>
				<stop  offset="1" style="stop-color:#1D2087"/>
			</linearGradient>
			<path class="st28" d="M59.9,3.6H47.4V37h8.8v-9.1h3.7c7.6,0,12-5,12-12.4c0.1-6.4-5-11.7-11.4-11.9C60.3,3.6,60.1,3.6,59.9,3.6z
				 M56.2,19.7v-7.9h3.2c2-0.1,3.6,1.5,3.7,3.5c0,0.1,0,0.2,0,0.2C63.1,19.1,61.1,19.7,56.2,19.7L56.2,19.7z"/>
		</g>
	</g>
	<line class="st4" x1="598.5" y1="623.5" x2="517.5" y2="623.5"/>
	<g transform="translate(-15 4)">
		<rect x="387" y="897" class="st29" width="140" height="10"/>
		<path class="st29" d="M527,916v-28l20,14L527,916z"/>
	</g>
	<g transform="translate(454 4)">
		<rect x="397" y="897" class="st29" width="140" height="10"/>
		<path class="st29" d="M377,902l20-14v28L377,902z"/>
	</g>
	<g transform="translate(909 1851) rotate(180)">
		<rect x="387" y="897" class="st29" width="140" height="10"/>
		<path class="st29" d="M527,916v-28l20,14L527,916z"/>
	</g>
	<g transform="translate(1378 1851) rotate(180)">
		<rect x="397" y="897" class="st29" width="140" height="10"/>
		<path class="st29" d="M377,902l20-14v28L377,902z"/>
	</g>
	<text transform="matrix(1 0 0 1 653.11 657)" class="st14 st11 st2">제주TP</text>
	<path class="st30" d="M584.7,812.2l-8.9-53.8l-14.1,16c0,0-3.1-2.4-7.8-6.6c-18.3-16-61.4-57.6-52.3-87.5c0,0-45.9,46.8,40.1,117.5
		L530,812.8L584.7,812.2z"/>
	<text transform="matrix(1 0 0 1 417 704)" class="st25 st11 st12">ZEUS, E-Tube 연계</text>
	<text transform="matrix(1 0 0 1 314.41 617)" class="st0 st11 st2">중기부 / 제주도청</text>
	<text transform="matrix(1 0 0 1 337.059 643)" class="st0 st11 st12">(통합DB관리)</text>
</g>
</svg>
