<svg xmlns="http://www.w3.org/2000/svg" xmlns:xlink="http://www.w3.org/1999/xlink" width="329" height="713" viewBox="0 0 329 713"><defs><style>.a{fill:#f8f8f8;}.a,.b,.m,.n{stroke:#707070;}.a,.m{stroke-dasharray:4;}.ab,.b,.m{fill:none;}.c,.i,.n,.q,.r{fill:#fff;}.c{stroke:#1c7cc2;}.d,.w,.z{fill:#555;}.d,.i{font-size:16px;}.d,.i,.o,.p,.r,.t,.w,.z{font-family:NanumSquareR, NanumSquare;}.e{fill:url(#a);}.f{fill:#8dc21f;}.g{fill:url(#b);}.h{fill:#647078;stroke:#35434d;}.j,.w{font-size:13px;}.k,.o{fill:#1c7cc2;}.k{stroke:#136cac;}.l{fill:#707070;}.o,.p,.r{font-size:15px;}.o,.p,.t,.w,.z{letter-spacing:0.02em;}.p,.t{fill:#333;}.s{fill:#cadbe6;}.t{font-size:14px;}.u{fill:#3ca658;stroke:#309149;}.v{fill:#ef8f30;stroke:#ef7d08;}.x{fill:#1f222d;stroke:#1b1d27;}.y{fill:#d2d2d2;}.z{font-size:11px;}.aa{stroke:none;}</style><linearGradient id="a" x1="0.5" y1="0.087" x2="0.5" y2="0.99" gradientUnits="objectBoundingBox"><stop offset="0" stop-color="#009fe8"/><stop offset="1" stop-color="#1d2087"/></linearGradient><linearGradient id="b" x1="0.5" y1="-0.005" x2="0.5" y2="0.995" xlink:href="#a"/></defs><g transform="translate(-21 -168)"><g class="a" transform="translate(80 320)"><rect class="aa" width="216" height="380"/><rect class="ab" x="0.5" y="0.5" width="215" height="379"/></g><line class="b" y2="91" transform="translate(188.5 282.5)"/><line class="b" y2="237" transform="translate(166.5 581.5)"/><line class="b" y2="238" transform="translate(210.5 589.5)"/><g class="c" transform="translate(128 168)"><circle class="aa" cx="60" cy="60" r="60"/><circle class="ab" cx="60" cy="60" r="59.5"/></g><text class="d" transform="translate(188 250)"><tspan x="-23.912" y="0">제주TP</tspan></text><g transform="translate(162.633 199.51)"><g transform="translate(0)"><path class="e" d="M222.515,74.228h-1.5v1.456h1.5Zm.789-.778v1.456h1.5V73.45Zm-3.119,1.51h-1.5v1.455h1.5Zm-1.879.368h-1.5v1.455h1.5Zm-1.815,3.286h1.5V77.158h-1.415V75.7h-1.5v1.455h1.413Zm3.227,1.284h1.5V78.441h-1.5Zm2.162-.375h1.5V78.066h-1.5Zm-2.363,2.15h1.5V80.217h-1.5Zm1.729-.143h1.5V80.073h-1.5Zm.982-5.208h-1.5v1.455h1.5Zm-3.922,2.006h1.5V76.87h-1.5Zm-.408,1.86h1.5V78.731h-1.5Zm4.971-2.737h1.5V75.994h-1.5Zm-5.054,1.424h-1.5V77.418h-1.5V75.962H207.32v5.823h4.519V99.4h5.976V81.787h1.5V80.332h-1.5Z" transform="translate(-191.619 -73.45)"/><path class="f" d="M93.451,109.406h3.855c2.47,0,3.141-.6,3.141-2.614V91.93h6.143V105.8c0,9.038-3.424,9.532-13.141,9.532v-5.93Z" transform="translate(-93.45 -89.382)"/><path class="g" d="M343.2,91.76H334.43v23.43h6.14v-6.413h2.561c5.3,0,8.439-3.53,8.439-8.683A8.156,8.156,0,0,0,343.2,91.76Zm-2.632,11.289V97.481h2.278a2.512,2.512,0,0,1,2.578,2.612C345.428,102.608,344.03,103.023,340.571,103.049Z" transform="translate(-301.202 -89.235)"/></g></g><g class="h" transform="translate(21 173)"><rect class="aa" width="88" height="110"/><rect class="ab" x="0.5" y="0.5" width="87" height="109"/></g><text class="i" transform="translate(65 206)"><tspan x="-26.952" y="0">중기부 /</tspan><tspan x="-29.12" y="20">제주도청</tspan><tspan class="j"><tspan x="-22.204" y="40">(통합DB</tspan><tspan x="-13.865" y="60">관리)</tspan></tspan></text><g class="k" transform="translate(103 394)"><circle class="aa" cx="85" cy="85" r="85"/><circle class="ab" cx="85" cy="85" r="84.5"/></g><path class="l" d="M6.5,0,13,10H0Z" transform="translate(195 378) rotate(180)"/><path class="l" d="M6.5,0,13,10H0Z" transform="translate(87 637) rotate(180)"/><path class="l" d="M6.5,0,13,10H0Z" transform="translate(173 827) rotate(180)"/><path class="l" d="M6.5,0,13,10H0Z" transform="translate(204 582)"/><path class="l" d="M6.5,0,13,10H0Z" transform="translate(302 637) rotate(180)"/><line class="m" x1="17" transform="translate(109.5 227.5)"/><g class="c" transform="translate(138 308)"><rect class="aa" width="100" height="30" rx="15"/><rect class="ab" x="0.5" y="0.5" width="99" height="29" rx="14.5"/></g><g class="n" transform="translate(88 768)"><rect class="aa" width="100" height="30" rx="15"/><rect class="ab" x="0.5" y="0.5" width="99" height="29" rx="14.5"/></g><g class="n" transform="translate(196 768)"><rect class="aa" width="100" height="30" rx="15"/><rect class="ab" x="0.5" y="0.5" width="99" height="29" rx="14.5"/></g><text class="o" transform="translate(153 328)"><tspan x="0" y="0">관리 / 운영</tspan></text><text class="p" transform="translate(113 788)"><tspan x="0" y="0">DB 제공</tspan></text><text class="p" transform="translate(218 788)"><tspan x="0" y="0">정보활용</tspan></text><g transform="translate(142 437)"><path class="q" d="M676.663,148.276h7.027V161.75a23.007,23.007,0,0,1-.689,6.458,7.327,7.327,0,0,1-2.77,3.753A8.742,8.742,0,0,1,674.9,173.5a11.424,11.424,0,0,1-5.325-1.014,6.987,6.987,0,0,1-2.918-2.969,11.987,11.987,0,0,1-1.215-4.83l6.7-1a9.07,9.07,0,0,0,.264,2.436,2.638,2.638,0,0,0,.835,1.285,1.791,1.791,0,0,0,1.145.322,1.85,1.85,0,0,0,1.726-.955,6.871,6.871,0,0,0,.549-3.219Z" transform="translate(-665.44 -147.874)"/><path class="q" d="M692.261,148.276h18.791v5.3H699.287v3.945H710.2v5.062H699.287v4.893h12.1V173.1H692.261Z" transform="translate(-669.351 -147.874)"/><path class="q" d="M733.849,148.276h7v14.776a13.508,13.508,0,0,1-.627,4.15,9.115,9.115,0,0,1-1.966,3.414,7.817,7.817,0,0,1-2.809,2.054,13.047,13.047,0,0,1-4.906.828,28.217,28.217,0,0,1-3.614-.254,8.855,8.855,0,0,1-3.274-1.006,8.394,8.394,0,0,1-2.407-2.138,8.089,8.089,0,0,1-1.494-2.858,16.1,16.1,0,0,1-.649-4.191V148.276h7V163.4a4.561,4.561,0,0,0,1.029,3.169,4.148,4.148,0,0,0,5.7.017,4.546,4.546,0,0,0,1.029-3.186Z" transform="translate(-673.265 -147.874)"/><path class="q" d="M748.562,164.809l6.672-.456a5.886,5.886,0,0,0,.882,2.7,3.586,3.586,0,0,0,3.1,1.5,3.234,3.234,0,0,0,2.314-.769,2.384,2.384,0,0,0,.812-1.784,2.358,2.358,0,0,0-.773-1.724,8.542,8.542,0,0,0-3.591-1.437q-4.614-1.131-6.579-3.008a6.3,6.3,0,0,1-1.981-4.785,6.852,6.852,0,0,1,4.062-6.279,13.178,13.178,0,0,1,5.581-.972q4.349,0,6.632,1.766a7.841,7.841,0,0,1,2.716,5.621l-6.609.422a4.016,4.016,0,0,0-1.107-2.434,3.354,3.354,0,0,0-2.329-.76,2.649,2.649,0,0,0-1.842.566,1.8,1.8,0,0,0-.619,1.377,1.426,1.426,0,0,0,.511,1.066,5.461,5.461,0,0,0,2.353.913,27.7,27.7,0,0,1,6.586,2.189,7.154,7.154,0,0,1,2.894,2.746,7.457,7.457,0,0,1,.905,3.668,8.385,8.385,0,0,1-1.207,4.395,7.754,7.754,0,0,1-3.374,3.051,12.628,12.628,0,0,1-5.465,1.04q-5.789,0-8.017-2.434A10.024,10.024,0,0,1,748.562,164.809Z" transform="translate(-677.562 -147.805)"/></g><text class="r" transform="translate(188 488)"><tspan x="-13.65" y="0">제주</tspan><tspan x="-61.425" y="22">연구장비활용서비스</tspan></text><path class="s" d="M392.814,247.712l-20.087,30.747,12.1.383s.069,2.9,0,7.6c-.277,18.011-2.633,62.459-18.93,71.5,0,0,37.032,3.762,36.4-78.938l10.736-.441Z" transform="matrix(-0.643, 0.766, -0.766, -0.643, 585.061, 249.736)"/><text class="t" transform="translate(30 327)"><tspan x="0" y="0">ZEUS,</tspan><tspan x="0" y="20">E-Tube</tspan><tspan x="0" y="40">연계</tspan></text><g class="u" transform="translate(26 637)"><circle class="aa" cx="55" cy="55" r="55"/><circle class="ab" cx="55" cy="55" r="54.5"/></g><g class="v" transform="translate(240 637)"><circle class="aa" cx="55" cy="55" r="55"/><circle class="ab" cx="55" cy="55" r="54.5"/></g><text class="w" transform="translate(32 476)"><tspan x="0" y="0">실무자</tspan><tspan x="0" y="18">협의회</tspan></text><text class="w" transform="translate(307 476)"><tspan x="0" y="0">실무자</tspan><tspan x="0" y="18">협의회</tspan></text><text class="w" transform="translate(215 729)"><tspan x="0" y="0">정보</tspan><tspan x="0" y="18">교류</tspan></text><text class="i" transform="translate(81 688)"><tspan x="-29.12" y="0">지역혁신</tspan><tspan x="-14.56" y="22">기관</tspan></text><text class="i" transform="translate(295 688)"><tspan x="-14.56" y="0">대학</tspan><tspan x="-21.84" y="22">연구소</tspan></text><g class="x" transform="translate(59 837)"><rect class="aa" width="260" height="44" rx="22"/><rect class="ab" x="0.5" y="0.5" width="259" height="43" rx="21.5"/></g><text class="i" transform="translate(189 866)"><tspan x="-84.08" y="0">지역내 연구장비 활용기업</tspan></text><g transform="translate(100.453 622.599) rotate(-60)"><rect class="y" width="54.004" height="5.4" transform="translate(9.901 4.5)"/><path class="y" d="M7.2,0l7.2,9.9H0Z" transform="translate(0 14.401) rotate(-90)"/></g><g transform="translate(157.178 581.657) rotate(120)"><rect class="y" width="54.004" height="5.4" transform="translate(9.901 4.5)"/><path class="y" d="M7.2,0l7.2,9.9H0Z" transform="translate(0 14.401) rotate(-90)"/></g><g transform="translate(204.453 574.256)"><g transform="translate(49.253 62.543) rotate(-120)"><rect class="y" width="54.004" height="5.4" transform="translate(9.901 4.5)"/><path class="y" d="M7.2,0l7.2,9.9H0Z" transform="translate(0 14.401) rotate(-90)"/></g><g transform="translate(39.472 -8.799) rotate(60)"><rect class="y" width="54.004" height="5.4" transform="translate(9.901 4.5)"/><path class="y" d="M7.2,0l7.2,9.9H0Z" transform="translate(0 14.401) rotate(-90)"/></g></g><text class="z" transform="translate(95 565)"><tspan x="0" y="0">장비</tspan><tspan x="0" y="15">등록 /</tspan><tspan x="0" y="30">관리</tspan></text><text class="z" transform="translate(260 565)"><tspan x="0" y="0">장비</tspan><tspan x="0" y="15">등록 /</tspan><tspan x="0" y="30">관리</tspan></text><text class="z" transform="translate(137 623)"><tspan x="0" y="0">활용</tspan><tspan x="0" y="15">현황</tspan></text><text class="z" transform="translate(220 623)"><tspan x="0" y="0">활용</tspan><tspan x="0" y="15">현황</tspan></text></g></svg>