<svg xmlns="http://www.w3.org/2000/svg" width="153.4" height="30" viewBox="0 0 153.4 30"><defs><style>.a{fill:#002b51;}.b{fill:#da0021;}.c{fill:#454444;}</style></defs><g transform="translate(-44.088 -7.603)"><g transform="translate(44.088 7.603)"><path class="a" d="M67.34,21.919a5.442,5.442,0,0,0-7.724,1.614,5.444,5.444,0,0,1-9.826-1.488h0c-.006-.02-.009-.037-.015-.056s-.013-.045-.018-.069a6.917,6.917,0,0,1-.278-2.15c0-4.852,5-10.253,12.195-10.253a13.722,13.722,0,0,1,12.674,8.7c-.019-.055-.035-.109-.055-.165a15.531,15.531,0,0,0-30.2,5.016c0,7.631,5.526,14.164,13.191,14.164a12.465,12.465,0,0,0,12.107-8.119A5.943,5.943,0,0,0,67.34,21.919Z" transform="translate(-44.088 -7.603)"/><g transform="translate(5.39 1.92)"><path class="b" d="M86.8,22.921a13.676,13.676,0,0,0-12.771-8.994c-7.2,0-12.195,5.4-12.195,10.251a6.914,6.914,0,0,0,.278,2.15,4.509,4.509,0,0,1-.143-1.1c0-5.051,5.08-8.551,10.3-8.551a12.77,12.77,0,0,1,12.8,12.742A14.041,14.041,0,0,1,77.249,42l0,0A15.465,15.465,0,0,0,87.487,27.47,15.221,15.221,0,0,0,86.8,22.921Z" transform="translate(-61.838 -13.927)"/></g></g><g transform="translate(83.194 16.619)"><path class="c" d="M186.344,48.252v1.394h-8.21V48.252h2.581V44.125h1.56v4.127ZM184,46.788v-6.38h-5.4v-1.38h6.948v7.761Zm4.878,4.112h-1.574V38.337h1.574v5.3H190.5v1.479h-1.617Z" transform="translate(-178.134 -38.083)"/><path class="c" d="M227.595,38.544V39.9h-7.374V38.544h2.893V37.5h1.659v1.042Zm-6.849,7.493H230.7v4.169h-1.56V47.417h-8.395Zm6.126-3.225a2.4,2.4,0,0,1-.234,1.042,2.891,2.891,0,0,1-.617.859,3.494,3.494,0,0,1-.936.571,2.925,2.925,0,0,1-1.134.218,2.976,2.976,0,0,1-1.141-.218,3.242,3.242,0,0,1-.929-.571,2.775,2.775,0,0,1-.631-.859,2.4,2.4,0,0,1-.234-1.042,2.354,2.354,0,0,1,.234-1.035,2.808,2.808,0,0,1,.631-.852,3.241,3.241,0,0,1,.929-.57,2.97,2.97,0,0,1,1.141-.218,2.919,2.919,0,0,1,1.134.218,3.492,3.492,0,0,1,.936.57,2.928,2.928,0,0,1,.617.852A2.358,2.358,0,0,1,226.871,42.812Zm-1.5-.014a1.29,1.29,0,0,0-.418-.964,1.393,1.393,0,0,0-1-.4,1.368,1.368,0,0,0-.992.4,1.3,1.3,0,0,0-.411.964,1.323,1.323,0,0,0,.411.972,1.356,1.356,0,0,0,.992.408,1.381,1.381,0,0,0,1-.408A1.313,1.313,0,0,0,225.368,42.8Zm5.332,2.535h-1.56V37.756h1.56V40.7h1.815v1.535H230.7Z" transform="translate(-207.441 -37.502)"/><path class="c" d="M269.339,49.252h-1.574V40.52h-4.849V39.112h6.423ZM272.5,38.337h1.574V50.9H272.5Z" transform="translate(-237.171 -38.083)"/><path class="c" d="M310.349,44.915v-.972h-5.02V42.661h11.628v1.281h-5.034v.972h4.1V48.1h-8.21v.761h8.38V50.14h-9.926V46.873h8.2v-.718h-8.2v-1.24Zm.794-5.648L306.72,42.38l-.936-1.084,5.36-3.746L316.5,41.3l-.936,1.084Z" transform="translate(-266.706 -37.535)"/><path class="c" d="M347.338,40.041V38.7h7.26v1.338h-3.091l3.219,3.9-1.092.9-2.609-3.225-2.567,3.437-1.134-.9,3.219-4.112Zm10.054,8.183a2.757,2.757,0,0,1-.262,1.19,3.251,3.251,0,0,1-1.744,1.648,3.444,3.444,0,0,1-2.56,0,3.253,3.253,0,0,1-1.049-.669,3.29,3.29,0,0,1-.7-.979,2.829,2.829,0,0,1,0-2.38,3.29,3.29,0,0,1,.7-.979,3.253,3.253,0,0,1,1.049-.669,3.444,3.444,0,0,1,2.56,0,3.251,3.251,0,0,1,1.744,1.648A2.758,2.758,0,0,1,357.392,48.224Zm-1.545-.014A1.638,1.638,0,0,0,355.328,47a1.711,1.711,0,0,0-1.241-.507,1.67,1.67,0,0,0-1.219.507,1.7,1.7,0,0,0,0,2.43,1.683,1.683,0,0,0,1.219.5,1.724,1.724,0,0,0,1.241-.5A1.63,1.63,0,0,0,355.846,48.21ZM356.9,45V42.281h-2.354V40.928H356.9V38.337h1.574V45Z" transform="translate(-295.948 -38.083)"/><path class="c" d="M398.823,42.029V40.1h1.56v7.183h-4.1v2.535h5.034V51.2H389.691v-1.38h5.02V47.283h-4.084V40.1h1.546v1.929Zm0,3.887V43.381h-6.65v2.535Z" transform="translate(-325.45 -39.311)"/><path class="c" d="M432.808,43.853v-5.1h9.742v1.267h-8.182v.662h8.125V41.91h-8.125v.7h8.225v1.24h-4.126v.8H443.5v1.281H431.872V44.656h5.02v-.8Zm7.969,5.126a2.477,2.477,0,0,1-.234,1.063,2.812,2.812,0,0,1-.645.88,3.533,3.533,0,0,1-1,.605,3.351,3.351,0,0,1-2.418,0,3.313,3.313,0,0,1-.993-.605,2.725,2.725,0,0,1-.659-.88,2.548,2.548,0,0,1,0-2.134,2.91,2.91,0,0,1,.659-.887,3.2,3.2,0,0,1,.993-.6,3.456,3.456,0,0,1,2.418,0,3.406,3.406,0,0,1,1,.6,3.011,3.011,0,0,1,.645.887A2.464,2.464,0,0,1,440.777,48.98Zm-1.56-.014a1.413,1.413,0,0,0-.454-1.056,1.5,1.5,0,0,0-1.077-.437,1.526,1.526,0,0,0-1.085.437,1.4,1.4,0,0,0-.461,1.056,1.424,1.424,0,0,0,.461,1.063,1.514,1.514,0,0,0,1.085.444,1.49,1.49,0,0,0,1.077-.444A1.435,1.435,0,0,0,439.217,48.966Z" transform="translate(-354.822 -38.375)"/><path class="c" d="M477.4,38.105l3.984,6.408-1.276.789L477.4,40.8,474.7,45.4l-1.3-.789Zm-2.964,12.38v-4.2h1.56V49.1H484.8v1.38Zm8.678-4.268V38.175h1.574v8.042Z" transform="translate(-383.738 -37.922)"/><path class="c" d="M516.233,46.765H527.86v1.38h-5.034v3.239h-1.574V48.145h-5.02Zm2.482-6.141h6.65V39.033h1.56v6.042h-9.756V39.033h1.546Zm6.65,1.353h-6.65v1.732h6.65Z" transform="translate(-413.566 -38.568)"/></g></g></svg>