<svg xmlns="http://www.w3.org/2000/svg" xmlns:xlink="http://www.w3.org/1999/xlink" width="68.368" height="35.23" viewBox="0 0 68.368 35.23"><defs><style>.a{fill:url(#a);}.b{fill:#8dc21f;}.c{fill:url(#b);}</style><linearGradient id="a" x1="0.5" y1="0.087" x2="0.5" y2="0.99" gradientUnits="objectBoundingBox"><stop offset="0" stop-color="#009fe8"/><stop offset="1" stop-color="#1d2087"/></linearGradient><linearGradient id="b" x1="0.5" y1="-0.005" x2="0.5" y2="0.995" xlink:href="#a"/></defs><g transform="translate(-83 -25)"><g transform="translate(83 25)"><g transform="translate(0)"><path class="a" d="M227.946,74.506h-2.034v1.976h2.034Zm1.071-1.056v1.976h2.038V73.45ZM224.782,75.5h-2.036v1.975h2.036Zm-2.551.5H220.2v1.975h2.036Zm-2.463,4.46H221.8V78.483h-1.92V76.506H217.85v1.975h1.918Zm4.38,1.743h2.036V80.225h-2.036Zm2.935-.509h2.036V79.716h-2.036Zm-3.208,2.918h2.033V82.636h-2.033Zm2.347-.195h2.033V82.44h-2.033Zm1.333-7.069h-2.038v1.975h2.038Zm-5.323,2.723h2.033V78.092h-2.033Zm-.554,2.525h2.038V80.618h-2.038Zm6.747-3.715h2.036V76.9h-2.036Zm-6.86,1.933h-2.036V78.837h-2.036V76.86H207.32v7.9h6.133v23.914h8.112V84.766H223.6V82.791h-2.034Z" transform="translate(-186.008 -73.45)"/><path class="b" d="M93.452,115.651h5.233c3.352,0,4.264-.814,4.264-3.549V91.93h8.338v18.833c0,12.269-4.647,12.939-17.837,12.939v-8.05Z" transform="translate(-93.45 -88.471)"/><path class="c" d="M346.339,91.76H334.43v31.8h8.334v-8.705h3.476c7.191,0,11.454-4.791,11.454-11.786A11.07,11.07,0,0,0,346.339,91.76Zm-3.573,15.323V99.525h3.092a3.41,3.41,0,0,1,3.5,3.545C349.358,106.484,347.46,107.048,342.766,107.083Z" transform="translate(-289.327 -88.333)"/></g></g></g></svg>