<svg xmlns="http://www.w3.org/2000/svg" xmlns:xlink="http://www.w3.org/1999/xlink" width="67.949" height="23.817" viewBox="0 0 67.949 23.817"><defs><style>.a{fill:none;}.b{clip-path:url(#a);}.c{fill:#fff;}.d{fill:#d83239;}</style><clipPath id="a"><rect class="a" width="67.949" height="23.817"/></clipPath></defs><g class="b" transform="translate(0 0)"><path class="c" d="M11.715,23.817c-.447,0-1.131-.034-1.328-.05-.08,0,.188.023.109.017a11.851,11.851,0,0,1-7.478-3.759l-.032-.042C-1.838,13.573.221,7.307,1.984,4.89A11.194,11.194,0,0,1,9.762.075C15.538-.609,20.657,3.6,20.872,3.78a2.043,2.043,0,0,1,.122,3.026l-7.964,7.82a2.043,2.043,0,0,1-2.863-2.916l6.169-6.057a10.508,10.508,0,0,0-6.111-1.519A7.162,7.162,0,0,0,5.289,7.293c-.207.3-3.139,4.752.939,10.2a6.787,6.787,0,0,0,4.468,2.2c.116.008-.115-.014,0,0a13.877,13.877,0,0,0,9.046-2.739,2.043,2.043,0,0,1,2.5,3.229,17.377,17.377,0,0,1-10.531,3.635" transform="translate(0 0)"/><path class="d" d="M95.1,35.4a1.644,1.644,0,1,1-1.644-1.644A1.644,1.644,0,0,1,95.1,35.4" transform="translate(-68.366 -25.131)"/><path class="c" d="M125.156,22.381a4.843,4.843,0,0,0-.108.95l-.017,1.036-.083.062h-.525l-.092-.056a5.339,5.339,0,0,0-.092-.931q-.1-.248-.533-.292-.167-.018-1.566-.019h-1.117q-.016.218-.016,1.725v3.525a10.409,10.409,0,0,0,.108,1.924.318.318,0,0,0,.283.23q.125.025.975.062l.084.062v.416l-.084.062q-.825-.037-2.566-.037-1.783,0-2.566.037l-.075-.056v-.422l.083-.062q.85-.038.975-.062a.319.319,0,0,0,.283-.23,10.424,10.424,0,0,0,.109-1.924V24.857q0-1.532-.025-1.725H117.4a11.381,11.381,0,0,0-1.741.068.387.387,0,0,0-.183.093,1,1,0,0,0-.125.4,5.315,5.315,0,0,0-.075.676l-.084.062h-.525l-.092-.062-.017-1.061a5.46,5.46,0,0,0-.1-.925l.075-.062q.491.062,3.583.062h3.374q2.849,0,3.583-.062Z" transform="translate(-85.226 -16.619)"/><path class="c" d="M164.426,38.956l-.083.062q-1.25-.031-1.575-.031-.275,0-.817.016t-.808.015l-.067-.05a7.459,7.459,0,0,0,.067-.968q-.433.242-1.516,1.03a4.189,4.189,0,0,1-1.158.155,3.04,3.04,0,0,1-1.775-.456,1.5,1.5,0,0,1-.65-1.312q0-.106.017-.447t.017-.658v-.794a4.217,4.217,0,0,0-.125-1.427.479.479,0,0,0-.358-.155q-.1-.012-.733-.031l-.083-.062V33.5l.083-.068a18.2,18.2,0,0,0,3.224-.515l.183.081a18.211,18.211,0,0,0-.108,1.9v1.21a5.856,5.856,0,0,0,.075,1.16.853.853,0,0,0,.4.565,1.585,1.585,0,0,0,.837.192,2.1,2.1,0,0,0,1.142-.31.944.944,0,0,0,.491-.708q.016-.3.017-.378V35.518a4.3,4.3,0,0,0-.125-1.427.449.449,0,0,0-.35-.155q-.1-.012-.733-.031l-.092-.062V33.5l.092-.068a18.361,18.361,0,0,0,3.224-.515l.175.081a16.463,16.463,0,0,0-.108,1.9v1.948a5.406,5.406,0,0,0,.1,1.483.238.238,0,0,0,.167.112,6.709,6.709,0,0,0,.867.074l.091.062Z" transform="translate(-115.248 -24.506)"/><path class="c" d="M204.5,26.174a2.853,2.853,0,0,1-.716,1.942,2.329,2.329,0,0,1-.558.5q-.25.143-1.058.565l-.942.5a2.91,2.91,0,0,1-.908.292,4.615,4.615,0,0,1-.708.05,4.98,4.98,0,0,1-2.091-.515l-.775.465-.375-.1q.158-1.973.158-3.438V23.99q0-.323-.042-1.5a5.88,5.88,0,0,0-.042-.59q-.042-.323-.442-.378-.092-.013-.692-.031l-.083-.068v-.341l.083-.068a20.759,20.759,0,0,0,3.224-.515l.183.075q-.108,2.321-.109,3.593v.658l1.008-.627a3.2,3.2,0,0,1,1.725-.465,3.076,3.076,0,0,1,2.791,1.191,2.256,2.256,0,0,1,.366,1.253m-2.141.695a1.939,1.939,0,0,0-.562-1.458,2.079,2.079,0,0,0-1.512-.546,2.667,2.667,0,0,0-1.058.217,1.57,1.57,0,0,0-.617.416v2.929a2.211,2.211,0,0,0,1.725.689,1.873,1.873,0,0,0,1.517-.633,2.419,2.419,0,0,0,.508-1.613" transform="translate(-145.368 -15.261)"/><path class="c" d="M245.186,35.688q0,.105-.008.316l-.092.087a15.209,15.209,0,0,1-2.916.223q-.325,0-.983.009t-.991.009a2.042,2.042,0,0,0,.758,1.508,2.856,2.856,0,0,0,1.933.639,5.59,5.59,0,0,0,1.9-.409l.2.18-.367.614a6.085,6.085,0,0,1-2.641.577,4.723,4.723,0,0,1-2.912-.788,2.654,2.654,0,0,1-1.037-2.246,2.5,2.5,0,0,1,1.108-2.37,5.864,5.864,0,0,1,2.908-.881,3.667,3.667,0,0,1,2.308.639,2.269,2.269,0,0,1,.833,1.892m-2.174-.161q0-1.675-1.4-1.675-1.475,0-1.475,1.663v.136q.483.056,1.716.056A10.6,10.6,0,0,0,243,35.65c.005-.058.008-.1.008-.124" transform="translate(-177.237 -24.688)"/></g></svg>